<svg xmlns="http://www.w3.org/2000/svg" viewBox="0 0 119 115">
  <path d="M118.521 4.3256V35.5564H45.0468L25.149 69.0019C24.3704 70.3169 22.9603 71.1128 21.429 71.1128H4.3256C1.93787 71.1128 0 69.175 0 66.7872V35.5564H41.8718L59.2434 6.34133C61.5792 2.40503 65.8183 0 70.3948 0H114.196C116.584 0 118.521 1.93787 118.521 4.3256Z"/>
  <path d="M0 110.674V79.4436H73.4746L93.3724 45.9981C94.151 44.6831 95.5611 43.8872 97.0924 43.8872H114.204C116.592 43.8872 118.53 45.8251 118.53 48.2128V79.4436H76.6582L59.2866 108.659C56.9508 112.595 52.7117 115 48.1353 115H4.3256C1.93787 115 0 113.062 0 110.674Z"/>
</svg>
