<?xml version="1.0" encoding="UTF-8"?>
<svg id="Layer_1" xmlns="http://www.w3.org/2000/svg" version="1.1" viewBox="0 0 392.4 293.3">
  <!-- Generator: Adobe Illustrator 30.0.0, SVG Export Plug-In . SVG Version: 2.1.1 Build 123)  -->
  <defs>
    <style>
      .st0 {
        fill: #fff;
      }
    </style>
  </defs>
  <path class="st0" d="M0,161.1c7.2.7,10.7,1,17.9,1.6.5,8.6,3.3,20.7,12.3,23.8,5.6,1.9,9.3-1.5,9.3-9.7s-3.8-16.4-14.9-20.9c-12.8-5.2-23.2-14.6-23.2-29.4,0-18.1,12.1-34.8,27.5-43.1,23.6-12.8,26.9,22.4,28,36.4-7.2,1.8-10.9,2.7-18.1,4.4-1-12.7-4.7-18.6-10.8-16.7-5.2,1.6-8.6,7.1-8.6,13.9s3.5,10.5,15,13.9c19.2,5.6,23.1,26.6,23.1,43.8,0,16.1-6.3,42.9-28.4,31C11.7,200.6,1,180.9,0,161.1Z"/>
  <path class="st0" d="M67,67.9c7.2-3.4,10.7-5.1,17.9-8.5v69.1c8.5-.8,12.7-1.3,21.1-2.1V49.3c7.2-3.4,10.7-5.1,17.9-8.5v211.7c-7.2-3.4-10.7-5.1-17.9-8.5v-78.1c-8.5-.8-12.7-1.2-21.1-2v70c-7.2-3.4-10.7-5.1-17.9-8.5,0-52.5,0-104.9,0-157.4Z"/>
  <path class="st0" d="M136.9,213.5c6.5,1.9,9.8,2.8,16.3,4.7,0-47.7,0-95.4,0-143.1-6.5,1.9-9.8,2.8-16.3,4.7v-45.1c16.9-8.1,33.8-16.1,50.7-24.2v54.9c-6.5,1.9-9.8,2.8-16.3,4.7v153.4c6.5,1.9,9.8,2.8,16.3,4.7v54.9c-16.9-8.1-33.8-16.1-50.7-24.2v-45.1Z"/>
  <path class="st0" d="M204.7,10.4c16.6,7.9,33.2,15.8,49.8,23.8v45.3c-10.6-3-21.3-6.1-31.9-9.1v50.7l30.6,2.9v44.6c-10.2.9-20.4,1.9-30.6,2.8v51.4c10.9-3.1,21.9-6.2,32.8-9.3v45.1c-16.9,8.1-33.8,16.1-50.7,24.2V10.4Z"/>
  <path class="st0" d="M272.5,42.8c7.2,3.4,10.7,5.1,17.9,8.5v152.3c10.9-3.1,21.9-6.2,32.8-9.3v32.1c-16.9,8.1-33.8,16.1-50.7,24.2,0-69.3,0-138.5,0-207.8Z"/>
  <path class="st0" d="M335.8,72.9c8.3,4,12.5,6,20.8,9.9,23.2,11.8,35.8,38.8,35.8,63.8s-12.6,52-35.8,63.8c-8.3,4-12.5,6-20.8,9.9V72.9ZM357,184.6c14.9-5.2,17-24.8,17-38,0-13.2-2.2-32.8-17-38-1.3-.4-2-.6-3.3-1,0,26,0,51.9,0,77.9,1.3-.4,2-.6,3.3-.9Z"/>
</svg>