<?xml version="1.0" encoding="UTF-8"?>
<svg id="Layer_1" xmlns="http://www.w3.org/2000/svg" version="1.1" viewBox="0 0 129.7 132">
  <!-- Generator: Adobe Illustrator 30.0.0, SVG Export Plug-In . SVG Version: 2.1.1 Build 123)  -->
  <path d="M99.5,107.6c4.4,0,8-3.6,8-8v-26.1l-34.1,34.1h26.1Z"/>
  <g>
    <path d="M83.9,24.4H30.2c-4.4,0-8,3.6-8,8v53.7l61.7-61.7Z"/>
    <path d="M104.5,26.2c-1-.8-2.4-.2-2.8,1s-1,2.5-2,3.5L25.7,104.6c-.3.3-.6.6-1,.8,1.4,1.3,3.4,2.2,5.5,2.2h25.1c-.2-2.2.6-4.5,2.2-6.2l38.9-38.9c3-3,8-3,11,0v-30c0-2.5-1.2-4.8-3-6.3Z"/>
  </g>
</svg>