<svg width="104" height="32" viewBox="0 0 104 32" xmlns="http://www.w3.org/2000/svg"><clipPath id="satori_cp-id"><path x="0" y="0" width="104" height="32" d="M6,0 h92 a6,6 0 0 1 6,6 v20 a6,6 0 0 1 -6,6 h-92 a6,6 0 0 1 -6,-6 v-20 a6,6 0 0 1 6,-6"/></clipPath><mask id="satori_om-id"><rect x="0" y="0" width="104" height="32" fill="#fff"/></mask><mask id="satori_om-id-0"><rect x="0" y="0" width="39" height="32" fill="#fff" mask="url(#satori_om-id)"/></mask><rect x="0" y="0" width="39" height="32" fill="#27272a" clip-path="url(#satori_cp-id)" mask="url(#satori_om-id)"/><mask id="satori_om-id-0-2"><rect x="12" y="8" width="15" height="17" fill="#fff" mask="url(#satori_om-id)"/></mask><g mask="url(#satori_om-id)" clip-path="url(#satori_cp-id)"><path fill="rgba(24,24,27,0.7)" d="M17.4 22.1L17.4 22.1Q16.0 22.1 15.0 21.5Q14.0 20.9 13.4 19.7Q12.8 18.5 12.8 16.9L12.8 16.9Q12.8 15.3 13.4 14.1Q14.0 12.9 15.0 12.3Q16.0 11.7 17.4 11.7L17.4 11.7Q18.2 11.7 18.9 11.9Q19.6 12.1 20.1 12.6Q20.7 13.0 21.1 13.7Q21.4 14.3 21.6 15.1L21.6 15.1L20.0 15.1Q19.9 14.6 19.7 14.3Q19.4 13.9 19.1 13.6Q18.7 13.4 18.3 13.2Q17.9 13.1 17.4 13.1L17.4 13.1Q16.5 13.1 15.8 13.5Q15.1 14.0 14.7 14.8Q14.3 15.7 14.3 16.9L14.3 16.9Q14.3 18.1 14.7 19.0Q15.1 19.8 15.8 20.3Q16.5 20.7 17.4 20.7L17.4 20.7Q17.9 20.7 18.3 20.6Q18.7 20.4 19.1 20.2Q19.4 19.9 19.7 19.6Q19.9 19.2 20.0 18.7L20.0 18.7L21.6 18.7Q21.4 19.5 21.1 20.1Q20.7 20.7 20.2 21.2Q19.6 21.6 18.9 21.9Q18.2 22.1 17.4 22.1ZM23.4 11.8L25.0 11.8L25.0 22L23.4 22L23.4 11.8Z "/></g><mask id="satori_om-id-1"><rect x="39" y="0" width="65" height="32" fill="#fff" mask="url(#satori_om-id)"/></mask><rect x="39" y="0" width="65" height="32" fill="#dc2626" clip-path="url(#satori_cp-id)" mask="url(#satori_om-id)"/><mask id="satori_om-id-1-0"><rect x="51" y="8" width="41" height="17" fill="#fff" mask="url(#satori_om-id)"/></mask><g mask="url(#satori_om-id)" clip-path="url(#satori_cp-id)"><path fill="#fafafa" d="M51.1 14.4L55.8 14.4L55.8 15.6L51.1 15.6L51.1 14.4ZM54.1 22L52.6 22L52.6 13.5Q52.6 12.8 52.9 12.3Q53.2 11.8 53.7 11.6Q54.3 11.3 54.9 11.3L54.9 11.3Q55.3 11.3 55.6 11.4Q56.0 11.5 56.1 11.5L56.1 11.5L55.8 12.8Q55.7 12.7 55.5 12.7Q55.3 12.6 55.1 12.6L55.1 12.6Q54.6 12.6 54.3 12.9Q54.1 13.2 54.1 13.7L54.1 13.7L54.1 22ZM59.5 22.2L59.5 22.2Q58.7 22.2 58.2 21.9Q57.6 21.6 57.2 21.1Q56.9 20.6 56.9 19.8L56.9 19.8Q56.9 19.2 57.1 18.8Q57.4 18.4 57.8 18.1Q58.2 17.9 58.8 17.7Q59.3 17.6 59.8 17.6L59.8 17.6Q60.5 17.5 60.9 17.4Q61.3 17.4 61.5 17.3Q61.7 17.1 61.7 16.9L61.7 16.9L61.7 16.8Q61.7 16.4 61.6 16.1Q61.4 15.8 61.1 15.6Q60.8 15.5 60.3 15.5L60.3 15.5Q59.8 15.5 59.4 15.6Q59.1 15.8 58.8 16.0Q58.6 16.3 58.5 16.5L58.5 16.5L57.1 16.2Q57.4 15.5 57.8 15.1Q58.3 14.6 59.0 14.5Q59.6 14.3 60.3 14.3L60.3 14.3Q60.7 14.3 61.2 14.4Q61.8 14.5 62.2 14.8Q62.7 15.1 63.0 15.6Q63.3 16.1 63.3 16.9L63.3 16.9L63.3 22L61.8 22L61.8 21.0L61.7 21.0Q61.6 21.2 61.3 21.5Q61.0 21.8 60.5 22.0Q60.1 22.2 59.5 22.2ZM59.8 21.0L59.8 21.0Q60.4 21.0 60.9 20.7Q61.3 20.5 61.5 20.1Q61.8 19.7 61.8 19.2L61.8 19.2L61.8 18.3Q61.7 18.3 61.4 18.4Q61.2 18.5 60.9 18.5Q60.6 18.6 60.4 18.6Q60.1 18.7 59.9 18.7L59.9 18.7Q59.5 18.7 59.1 18.9Q58.8 19.0 58.6 19.2Q58.4 19.5 58.4 19.9L58.4 19.9Q58.4 20.2 58.5 20.5Q58.7 20.7 59.1 20.8Q59.4 21.0 59.8 21.0ZM66.8 22L65.3 22L65.3 14.4L66.8 14.4L66.8 22ZM66.0 13.2L66.0 13.2Q65.6 13.2 65.4 12.9Q65.1 12.7 65.1 12.3L65.1 12.3Q65.1 11.9 65.4 11.7Q65.6 11.4 66.0 11.4L66.0 11.4Q66.4 11.4 66.7 11.7Q67.0 11.9 67.0 12.3L67.0 12.3Q67.0 12.7 66.7 12.9Q66.4 13.2 66.0 13.2ZM68.8 11.8L70.3 11.8L70.3 22L68.8 22L68.8 11.8ZM73.8 22L72.3 22L72.3 14.4L73.8 14.4L73.8 22ZM73.1 13.2L73.1 13.2Q72.7 13.2 72.4 12.9Q72.1 12.7 72.1 12.3L72.1 12.3Q72.1 11.9 72.4 11.7Q72.7 11.4 73.1 11.4L73.1 11.4Q73.5 11.4 73.8 11.7Q74.0 11.9 74.0 12.3L74.0 12.3Q74.0 12.7 73.8 12.9Q73.5 13.2 73.1 13.2ZM77.4 17.5L77.4 17.5L77.4 22L75.9 22L75.9 14.4L77.3 14.4L77.3 16.2L77.1 16.2Q77.5 15.2 78.1 14.7Q78.8 14.3 79.7 14.3L79.7 14.3Q80.4 14.3 81.0 14.6Q81.6 14.9 81.9 15.6Q82.3 16.2 82.3 17.1L82.3 17.1L82.3 22L80.8 22L80.8 17.3Q80.8 16.5 80.3 16.0Q79.9 15.6 79.1 15.6L79.1 15.6Q78.6 15.6 78.2 15.8Q77.8 16.0 77.6 16.4Q77.4 16.9 77.4 17.5ZM87.5 25.0L87.5 25.0Q86.6 25.0 85.9 24.8Q85.3 24.6 84.9 24.2Q84.4 23.8 84.2 23.4L84.2 23.4L85.5 22.8Q85.6 23.0 85.9 23.2Q86.1 23.5 86.5 23.6Q86.9 23.8 87.5 23.8L87.5 23.8Q88.3 23.8 88.9 23.4Q89.4 23.0 89.4 22.1L89.4 22.1L89.4 20.6L89.3 20.6Q89.2 20.9 88.9 21.2Q88.7 21.5 88.2 21.7Q87.8 21.9 87.1 21.9L87.1 21.9Q86.2 21.9 85.5 21.5Q84.8 21.0 84.3 20.2Q83.9 19.4 83.9 18.2L83.9 18.2Q83.9 16.9 84.3 16.1Q84.8 15.2 85.5 14.7Q86.2 14.3 87.1 14.3L87.1 14.3Q87.8 14.3 88.3 14.5Q88.7 14.7 89.0 15.0Q89.2 15.4 89.3 15.6L89.3 15.6L89.5 15.6L89.5 14.4L90.9 14.4L90.9 22.1Q90.9 23.1 90.5 23.8Q90.0 24.4 89.2 24.7Q88.5 25.0 87.5 25.0ZM87.5 20.6L87.5 20.6Q88.1 20.6 88.5 20.3Q89.0 20.0 89.2 19.5Q89.4 18.9 89.4 18.1L89.4 18.1Q89.4 17.4 89.2 16.8Q89.0 16.2 88.5 15.9Q88.1 15.5 87.5 15.5L87.5 15.5Q86.8 15.5 86.4 15.9Q85.9 16.2 85.7 16.8Q85.5 17.4 85.5 18.1L85.5 18.1Q85.5 18.9 85.7 19.4Q85.9 20.0 86.4 20.3Q86.8 20.6 87.5 20.6Z "/></g></svg>