<svg width="99" height="32" viewBox="0 0 99 32" xmlns="http://www.w3.org/2000/svg"><mask id="satori_om-id"><rect x="0" y="0" width="99" height="32" fill="#fff"/></mask><path x="0" y="0" width="99" height="32" fill="#fafafa" d="M6,0 h87 a6,6 0 0 1 6,6 v20 a6,6 0 0 1 -6,6 h-87 a6,6 0 0 1 -6,-6 v-20 a6,6 0 0 1 6,-6"/><mask id="satori_om-id-0"><rect x="12" y="13" width="13" height="7" fill="#fff"/></mask><mask id="satori_om-id-0-0"><rect x="12" y="13" width="7" height="7" fill="#fff"/></mask><path x="12" y="13" width="7" height="7" fill="#dc2626" d="M15.5,13 h0 a3.5,3.5 0 0 1 3.5,3.5 v0 a3.5,3.5 0 0 1 -3.5,3.5 h0 a3.5,3.5 0 0 1 -3.5,-3.5 v0 a3.5,3.5 0 0 1 3.5,-3.5"/><mask id="satori_om-id-0-1"><rect x="19" y="13" width="6" height="7" fill="#fff"/></mask><mask id="satori_om-id-2"><rect x="25" y="8" width="21" height="17" fill="#fff"/></mask><mask id="satori_om-id-2-0"><rect x="25" y="8" width="15" height="17" fill="#fff"/></mask><g  ><path fill="#18181b" d="M30.4 22.1L30.4 22.1Q29.0 22.1 28.0 21.5Q27.0 20.9 26.4 19.7Q25.8 18.5 25.8 16.9L25.8 16.9Q25.8 15.3 26.4 14.1Q27.0 12.9 28.0 12.3Q29.0 11.7 30.4 11.7L30.4 11.7Q31.2 11.7 31.9 11.9Q32.6 12.1 33.1 12.6Q33.7 13.0 34.1 13.7Q34.4 14.3 34.6 15.1L34.6 15.1L33.0 15.1Q32.9 14.6 32.7 14.3Q32.4 13.9 32.1 13.6Q31.7 13.4 31.3 13.2Q30.9 13.1 30.4 13.1L30.4 13.1Q29.5 13.1 28.8 13.5Q28.1 14.0 27.7 14.8Q27.3 15.7 27.3 16.9L27.3 16.9Q27.3 18.1 27.7 19.0Q28.1 19.8 28.8 20.3Q29.5 20.7 30.4 20.7L30.4 20.7Q30.9 20.7 31.3 20.6Q31.7 20.4 32.1 20.2Q32.4 19.9 32.7 19.6Q32.9 19.2 33.0 18.7L33.0 18.7L34.6 18.7Q34.4 19.5 34.1 20.1Q33.7 20.7 33.2 21.2Q32.6 21.6 31.9 21.9Q31.2 22.1 30.4 22.1ZM36.4 11.8L38.0 11.8L38.0 22L36.4 22L36.4 11.8Z "/></g><mask id="satori_om-id-2-1"><rect x="40" y="8" width="6" height="17" fill="#fff"/></mask><mask id="satori_om-id-3"><rect x="46" y="8" width="41" height="17" fill="#fff"/></mask><g  ><path fill="#dc2626" d="M46.1 14.4L50.8 14.4L50.8 15.6L46.1 15.6L46.1 14.4ZM49.1 22L47.6 22L47.6 13.5Q47.6 12.8 47.9 12.3Q48.2 11.8 48.7 11.6Q49.3 11.3 49.9 11.3L49.9 11.3Q50.3 11.3 50.6 11.4Q51.0 11.5 51.1 11.5L51.1 11.5L50.8 12.8Q50.7 12.7 50.5 12.7Q50.3 12.6 50.1 12.6L50.1 12.6Q49.6 12.6 49.3 12.9Q49.1 13.2 49.1 13.7L49.1 13.7L49.1 22ZM54.5 22.2L54.5 22.2Q53.7 22.2 53.2 21.9Q52.6 21.6 52.2 21.1Q51.9 20.6 51.9 19.8L51.9 19.8Q51.9 19.2 52.1 18.8Q52.4 18.4 52.8 18.1Q53.2 17.9 53.8 17.7Q54.3 17.6 54.8 17.6L54.8 17.6Q55.5 17.5 55.9 17.4Q56.3 17.4 56.5 17.3Q56.7 17.1 56.7 16.9L56.7 16.9L56.7 16.8Q56.7 16.4 56.6 16.1Q56.4 15.8 56.1 15.6Q55.8 15.5 55.3 15.5L55.3 15.5Q54.8 15.5 54.4 15.6Q54.1 15.8 53.8 16.0Q53.6 16.3 53.5 16.5L53.5 16.5L52.1 16.2Q52.4 15.5 52.8 15.1Q53.3 14.6 54.0 14.5Q54.6 14.3 55.3 14.3L55.3 14.3Q55.7 14.3 56.2 14.4Q56.8 14.5 57.2 14.8Q57.7 15.1 58.0 15.6Q58.3 16.1 58.3 16.9L58.3 16.9L58.3 22L56.8 22L56.8 21.0L56.7 21.0Q56.6 21.2 56.3 21.5Q56.0 21.8 55.5 22.0Q55.1 22.2 54.5 22.2ZM54.8 21.0L54.8 21.0Q55.4 21.0 55.9 20.7Q56.3 20.5 56.5 20.1Q56.8 19.7 56.8 19.2L56.8 19.2L56.8 18.3Q56.7 18.3 56.4 18.4Q56.2 18.5 55.9 18.5Q55.6 18.6 55.4 18.6Q55.1 18.7 54.9 18.7L54.9 18.7Q54.5 18.7 54.1 18.9Q53.8 19.0 53.6 19.2Q53.4 19.5 53.4 19.9L53.4 19.9Q53.4 20.2 53.5 20.5Q53.7 20.7 54.1 20.8Q54.4 21.0 54.8 21.0ZM61.8 22L60.3 22L60.3 14.4L61.8 14.4L61.8 22ZM61.0 13.2L61.0 13.2Q60.6 13.2 60.4 12.9Q60.1 12.7 60.1 12.3L60.1 12.3Q60.1 11.9 60.4 11.7Q60.6 11.4 61.0 11.4L61.0 11.4Q61.4 11.4 61.7 11.7Q62.0 11.9 62.0 12.3L62.0 12.3Q62.0 12.7 61.7 12.9Q61.4 13.2 61.0 13.2ZM63.8 11.8L65.3 11.8L65.3 22L63.8 22L63.8 11.8ZM68.8 22L67.3 22L67.3 14.4L68.8 14.4L68.8 22ZM68.1 13.2L68.1 13.2Q67.7 13.2 67.4 12.9Q67.1 12.7 67.1 12.3L67.1 12.3Q67.1 11.9 67.4 11.7Q67.7 11.4 68.1 11.4L68.1 11.4Q68.5 11.4 68.8 11.7Q69.0 11.9 69.0 12.3L69.0 12.3Q69.0 12.7 68.8 12.9Q68.5 13.2 68.1 13.2ZM72.4 17.5L72.4 17.5L72.4 22L70.9 22L70.9 14.4L72.3 14.4L72.3 16.2L72.1 16.2Q72.5 15.2 73.1 14.7Q73.8 14.3 74.7 14.3L74.7 14.3Q75.4 14.3 76.0 14.6Q76.6 14.9 76.9 15.6Q77.3 16.2 77.3 17.1L77.3 17.1L77.3 22L75.8 22L75.8 17.3Q75.8 16.5 75.3 16.0Q74.9 15.6 74.1 15.6L74.1 15.6Q73.6 15.6 73.2 15.8Q72.8 16.0 72.6 16.4Q72.4 16.9 72.4 17.5ZM82.5 25.0L82.5 25.0Q81.6 25.0 80.9 24.8Q80.3 24.6 79.9 24.2Q79.4 23.8 79.2 23.4L79.2 23.4L80.5 22.8Q80.6 23.0 80.9 23.2Q81.1 23.5 81.5 23.6Q81.9 23.8 82.5 23.8L82.5 23.8Q83.3 23.8 83.9 23.4Q84.4 23.0 84.4 22.1L84.4 22.1L84.4 20.6L84.3 20.6Q84.2 20.9 83.9 21.2Q83.7 21.5 83.2 21.7Q82.8 21.9 82.1 21.9L82.1 21.9Q81.2 21.9 80.5 21.5Q79.8 21.0 79.3 20.2Q78.9 19.4 78.9 18.2L78.9 18.2Q78.9 16.9 79.3 16.1Q79.8 15.2 80.5 14.7Q81.2 14.3 82.1 14.3L82.1 14.3Q82.8 14.3 83.3 14.5Q83.7 14.7 84.0 15.0Q84.2 15.4 84.3 15.6L84.3 15.6L84.5 15.6L84.5 14.4L85.9 14.4L85.9 22.1Q85.9 23.1 85.5 23.8Q85.0 24.4 84.2 24.7Q83.5 25.0 82.5 25.0ZM82.5 20.6L82.5 20.6Q83.1 20.6 83.5 20.3Q84.0 20.0 84.2 19.5Q84.4 18.9 84.4 18.1L84.4 18.1Q84.4 17.4 84.2 16.8Q84.0 16.2 83.5 15.9Q83.1 15.5 82.5 15.5L82.5 15.5Q81.8 15.5 81.4 15.9Q80.9 16.2 80.7 16.8Q80.5 17.4 80.5 18.1L80.5 18.1Q80.5 18.9 80.7 19.4Q80.9 20.0 81.4 20.3Q81.8 20.6 82.5 20.6Z "/></g></svg>