<svg width="165" height="32" viewBox="0 0 165 32" xmlns="http://www.w3.org/2000/svg"><mask id="satori_om-id"><rect x="0" y="0" width="165" height="32" fill="#fff"/></mask><path x="0" y="0" width="165" height="32" fill="#fafafa" d="M6,0 h153 a6,6 0 0 1 6,6 v20 a6,6 0 0 1 -6,6 h-153 a6,6 0 0 1 -6,-6 v-20 a6,6 0 0 1 6,-6"/><clipPath id="satori_cp-id-1"><rect x="12" y="8" width="16" height="16"/></clipPath><mask id="satori_om-id-1"><rect x="12" y="8" width="16" height="16" fill="#fff"/></mask><image x="12" y="8" width="16" height="16" href="data:image/svg+xml;utf8,%3Csvg  xmlns=%22http://www.w3.org/2000/svg%22 width=%2216%22 height=%2216%22 viewBox=%220 0 24 24%22%3E%3Cpath fill=%22rgba(24,24,27,0.85)%22 d=%22M20.317 4.3698a19.7913 19.7913 0 00-4.8851-1.5152.0741.0741 0 00-.0785.0371c-.211.3753-.4447.8648-.6083 1.2495-1.8447-.2762-3.68-.2762-5.4868 0-.1636-.3933-.4058-.8742-.6177-1.2495a.077.077 0 00-.0785-.037 19.7363 19.7363 0 00-4.8852 1.515.0699.0699 0 00-.0321.0277C.5334 9.0458-.319 13.5799.0992 18.0578a.0824.0824 0 00.0312.0561c2.0528 1.5076 4.0413 2.4228 5.9929 3.0294a.0777.0777 0 00.0842-.0276c.4616-.6304.8731-1.2952 1.226-1.9942a.076.076 0 00-.0416-.1057c-.6528-.2476-1.2743-.5495-1.8722-.8923a.077.077 0 01-.0076-.1277c.1258-.0943.2517-.1923.3718-.2914a.0743.0743 0 01.0776-.0105c3.9278 1.7933 8.18 1.7933 12.0614 0a.0739.0739 0 01.0785.0095c.1202.099.246.1981.3728.2924a.077.077 0 01-.0066.1276 12.2986 12.2986 0 01-1.873.8914.0766.0766 0 00-.0407.1067c.3604.698.7719 1.3628 1.225 1.9932a.076.076 0 00.0842.0286c1.961-.6067 3.9495-1.5219 6.0023-3.0294a.077.077 0 00.0313-.0552c.5004-5.177-.8382-9.6739-3.5485-13.6604a.061.061 0 00-.0312-.0286zM8.02 15.3312c-1.1825 0-2.1569-1.0857-2.1569-2.419 0-1.3332.9555-2.4189 2.157-2.4189 1.2108 0 2.1757 1.0952 2.1568 2.419 0 1.3332-.9555 2.4189-2.1569 2.4189zm7.9748 0c-1.1825 0-2.1569-1.0857-2.1569-2.419 0-1.3332.9554-2.4189 2.1569-2.4189 1.2108 0 2.1757 1.0952 2.1568 2.419 0 1.3332-.946 2.4189-2.1568 2.4189Z%22 fill-rule=%22undefined%22%3E%3C/path%3E%3C/svg%3E" preserveAspectRatio="none" clip-path="url(#satori_cp-id-1)" mask="url(#satori_om-id-1)"/><mask id="satori_om-id-1-0"><rect x="12" y="8" width="0" height="16" fill="#fff"/></mask><mask id="satori_om-id-2"><rect x="28" y="16" width="6" height="0" fill="#fff"/></mask><mask id="satori_om-id-3"><rect x="34" y="8" width="57" height="17" fill="#fff"/></mask><mask id="satori_om-id-3-0"><rect x="34" y="8" width="51" height="17" fill="#fff"/></mask><g  ><path fill="rgba(24,24,27,0.7)" d="M37.9 22.2L37.9 22.2Q36.9 22.2 36.2 21.7Q35.5 21.2 35.1 20.3Q34.7 19.4 34.7 18.2L34.7 18.2Q34.7 17.0 35.1 16.1Q35.5 15.2 36.2 14.7Q36.9 14.3 37.9 14.3L37.9 14.3Q38.6 14.3 39.0 14.5Q39.4 14.7 39.7 15.0Q39.9 15.4 40.1 15.6L40.1 15.6L40.1 15.6L40.1 11.8L41.6 11.8L41.6 22L40.2 22L40.2 20.8L40.1 20.8Q39.9 21.0 39.7 21.4Q39.4 21.7 39.0 21.9Q38.5 22.2 37.9 22.2ZM38.2 20.9L38.2 20.9Q38.8 20.9 39.3 20.5Q39.7 20.2 39.9 19.6Q40.2 19.0 40.2 18.2L40.2 18.2Q40.2 17.4 39.9 16.8Q39.7 16.2 39.3 15.9Q38.8 15.5 38.2 15.5L38.2 15.5Q37.5 15.5 37.1 15.9Q36.6 16.2 36.4 16.8Q36.2 17.4 36.2 18.2L36.2 18.2Q36.2 18.9 36.4 19.6Q36.6 20.2 37.1 20.5Q37.5 20.9 38.2 20.9ZM45.2 22L43.7 22L43.7 14.4L45.2 14.4L45.2 22ZM44.4 13.2L44.4 13.2Q44.0 13.2 43.8 12.9Q43.5 12.7 43.5 12.3L43.5 12.3Q43.5 11.9 43.8 11.7Q44.0 11.4 44.4 11.4L44.4 11.4Q44.8 11.4 45.1 11.7Q45.4 11.9 45.4 12.3L45.4 12.3Q45.4 12.7 45.1 12.9Q44.8 13.2 44.4 13.2ZM49.9 22.2L49.9 22.2Q49.1 22.2 48.5 21.9Q47.8 21.7 47.4 21.2Q47.0 20.7 46.9 20.1L46.9 20.1L48.3 19.8Q48.4 20.4 48.9 20.7Q49.3 20.9 49.9 20.9L49.9 20.9Q50.7 20.9 51.1 20.6Q51.5 20.3 51.5 19.9L51.5 19.9Q51.5 19.5 51.3 19.3Q51.0 19.1 50.5 18.9L50.5 18.9L49.2 18.7Q48.1 18.4 47.6 17.9Q47.1 17.4 47.1 16.5L47.1 16.5Q47.1 15.9 47.5 15.3Q47.8 14.8 48.5 14.5Q49.2 14.3 50.0 14.3L50.0 14.3Q50.9 14.3 51.4 14.5Q52.0 14.7 52.4 15.2Q52.8 15.6 52.9 16.2L52.9 16.2L51.6 16.5Q51.4 16.1 51.1 15.8Q50.7 15.5 50.0 15.5L50.0 15.5Q49.4 15.5 49.0 15.7Q48.6 16.0 48.6 16.4L48.6 16.4Q48.6 16.8 48.9 17.1Q49.1 17.3 49.8 17.4L49.8 17.4L51.0 17.7Q52.1 18.0 52.6 18.5Q53.1 19.0 53.1 19.8L53.1 19.8Q53.1 20.5 52.7 21.0Q52.3 21.5 51.6 21.9Q50.9 22.2 49.9 22.2ZM57.9 22.2L57.9 22.2Q56.9 22.2 56.1 21.7Q55.3 21.2 54.8 20.3Q54.4 19.4 54.4 18.2L54.4 18.2Q54.4 17.0 54.8 16.1Q55.3 15.2 56.1 14.8Q56.9 14.3 57.9 14.3L57.9 14.3Q58.5 14.3 59.1 14.4Q59.6 14.6 60.0 14.9Q60.4 15.2 60.7 15.6Q61.0 16.0 61.1 16.5L61.1 16.5L59.7 16.9Q59.6 16.6 59.5 16.3Q59.3 16.1 59.1 15.9Q58.9 15.7 58.6 15.6Q58.3 15.5 58.0 15.5L58.0 15.5Q57.3 15.5 56.8 15.9Q56.4 16.3 56.1 16.9Q55.9 17.5 55.9 18.2L55.9 18.2Q55.9 19.0 56.1 19.6Q56.4 20.2 56.8 20.5Q57.3 20.9 58.0 20.9L58.0 20.9Q58.3 20.9 58.6 20.8Q58.9 20.7 59.1 20.5Q59.4 20.3 59.5 20.1Q59.7 19.8 59.7 19.5L59.7 19.5L61.2 19.8Q61.0 20.4 60.7 20.8Q60.4 21.2 60.0 21.5Q59.6 21.8 59.1 22Q58.5 22.2 57.9 22.2ZM66.0 22.2L66.0 22.2Q65.0 22.2 64.1 21.7Q63.3 21.2 62.9 20.3Q62.5 19.4 62.5 18.2L62.5 18.2Q62.5 17.0 62.9 16.1Q63.3 15.2 64.1 14.8Q65.0 14.3 66.0 14.3L66.0 14.3Q67.1 14.3 67.9 14.8Q68.7 15.2 69.2 16.1Q69.6 17.0 69.6 18.2L69.6 18.2Q69.6 19.4 69.2 20.3Q68.7 21.2 67.9 21.7Q67.1 22.2 66.0 22.2ZM66.0 20.9L66.0 20.9Q66.7 20.9 67.2 20.5Q67.6 20.2 67.9 19.5Q68.1 18.9 68.1 18.2L68.1 18.2Q68.1 17.5 67.9 16.9Q67.6 16.3 67.2 15.9Q66.7 15.5 66.0 15.5L66.0 15.5Q65.3 15.5 64.9 15.9Q64.4 16.3 64.2 16.9Q64.0 17.5 64.0 18.2L64.0 18.2Q64.0 18.9 64.2 19.5Q64.4 20.2 64.9 20.5Q65.3 20.9 66.0 20.9ZM72.8 22L71.3 22L71.3 14.4L72.7 14.4L72.7 15.6L72.8 15.6Q73.0 15.0 73.5 14.6Q74.1 14.2 74.7 14.2L74.7 14.2Q74.9 14.2 75.1 14.3Q75.3 14.3 75.4 14.3L75.4 14.3L75.4 15.7Q75.3 15.7 75.1 15.7Q74.8 15.6 74.6 15.6L74.6 15.6Q74.1 15.6 73.7 15.9Q73.2 16.1 73.0 16.5Q72.8 16.9 72.8 17.4L72.8 17.4L72.8 22ZM79.5 22.2L79.5 22.2Q78.6 22.2 77.9 21.7Q77.1 21.2 76.7 20.3Q76.3 19.4 76.3 18.2L76.3 18.2Q76.3 17.0 76.7 16.1Q77.2 15.2 77.9 14.7Q78.6 14.3 79.5 14.3L79.5 14.3Q80.2 14.3 80.7 14.5Q81.1 14.7 81.4 15.0Q81.6 15.4 81.7 15.6L81.7 15.6L81.8 15.6L81.8 11.8L83.3 11.8L83.3 22L81.9 22L81.9 20.8L81.7 20.8Q81.6 21.0 81.3 21.4Q81.1 21.7 80.7 21.9Q80.2 22.2 79.5 22.2ZM79.9 20.9L79.9 20.9Q80.5 20.9 80.9 20.5Q81.4 20.2 81.6 19.6Q81.8 19.0 81.8 18.2L81.8 18.2Q81.8 17.4 81.6 16.8Q81.4 16.2 80.9 15.9Q80.5 15.5 79.9 15.5L79.9 15.5Q79.2 15.5 78.8 15.9Q78.3 16.2 78.1 16.8Q77.9 17.4 77.9 18.2L77.9 18.2Q77.9 18.9 78.1 19.6Q78.3 20.2 78.8 20.5Q79.2 20.9 79.9 20.9Z "/></g><mask id="satori_om-id-3-1"><rect x="85" y="8" width="6" height="17" fill="#fff"/></mask><mask id="satori_om-id-4"><rect x="91" y="8" width="62" height="17" fill="#fff"/></mask><g  ><path fill="#18181b" d="M98.7 22L92.0 22L92.0 20.9L95.4 17.3Q96.0 16.7 96.3 16.3Q96.7 15.9 96.9 15.5Q97.1 15.1 97.1 14.6L97.1 14.6Q97.1 14.1 96.8 13.7Q96.6 13.4 96.2 13.2Q95.8 13.0 95.3 13.0L95.3 13.0Q94.7 13.0 94.3 13.2Q93.9 13.4 93.7 13.8Q93.5 14.2 93.5 14.8L93.5 14.8L92.0 14.8Q92.0 13.9 92.4 13.2Q92.8 12.5 93.6 12.1Q94.3 11.7 95.3 11.7L95.3 11.7Q96.3 11.7 97.0 12.1Q97.7 12.4 98.1 13.1Q98.6 13.7 98.6 14.6L98.6 14.6Q98.6 15.1 98.3 15.7Q98.1 16.2 97.6 16.9Q97.1 17.5 96.1 18.5L96.1 18.5L94.1 20.6L94.1 20.7L98.7 20.7L98.7 22ZM107.3 22L100.6 22L100.6 20.9L104.1 17.3Q104.6 16.7 105.0 16.3Q105.3 15.9 105.5 15.5Q105.7 15.1 105.7 14.6L105.7 14.6Q105.7 14.1 105.4 13.7Q105.2 13.4 104.8 13.2Q104.4 13.0 103.9 13.0L103.9 13.0Q103.3 13.0 102.9 13.2Q102.5 13.4 102.3 13.8Q102.1 14.2 102.1 14.8L102.1 14.8L100.6 14.8Q100.6 13.9 101.0 13.2Q101.5 12.5 102.2 12.1Q102.9 11.7 103.9 11.7L103.9 11.7Q104.9 11.7 105.6 12.1Q106.3 12.4 106.8 13.1Q107.2 13.7 107.2 14.6L107.2 14.6Q107.2 15.1 107.0 15.7Q106.8 16.2 106.2 16.9Q105.7 17.5 104.8 18.5L104.8 18.5L102.8 20.6L102.8 20.7L107.3 20.7L107.3 22Z M116.2 22.2L116.2 22.2Q115.1 22.2 114.3 21.7Q113.5 21.2 113.1 20.3Q112.6 19.4 112.6 18.2L112.6 18.2Q112.6 17.0 113.1 16.1Q113.5 15.2 114.3 14.8Q115.1 14.3 116.2 14.3L116.2 14.3Q117.3 14.3 118.1 14.8Q118.9 15.2 119.3 16.1Q119.8 17.0 119.8 18.2L119.8 18.2Q119.8 19.4 119.3 20.3Q118.9 21.2 118.1 21.7Q117.3 22.2 116.2 22.2ZM116.2 20.9L116.2 20.9Q116.9 20.9 117.4 20.5Q117.8 20.2 118.0 19.5Q118.3 18.9 118.3 18.2L118.3 18.2Q118.3 17.5 118.0 16.9Q117.8 16.3 117.4 15.9Q116.9 15.5 116.2 15.5L116.2 15.5Q115.5 15.5 115.1 15.9Q114.6 16.3 114.4 16.9Q114.2 17.5 114.2 18.2L114.2 18.2Q114.2 18.9 114.4 19.5Q114.6 20.2 115.1 20.5Q115.5 20.9 116.2 20.9ZM123.0 17.5L123.0 17.5L123.0 22L121.5 22L121.5 14.4L122.9 14.4L122.9 16.2L122.7 16.2Q123.1 15.2 123.7 14.7Q124.4 14.3 125.3 14.3L125.3 14.3Q126.0 14.3 126.6 14.6Q127.2 14.9 127.5 15.6Q127.9 16.2 127.9 17.1L127.9 17.1L127.9 22L126.3 22L126.3 17.3Q126.3 16.5 125.9 16.0Q125.5 15.6 124.7 15.6L124.7 15.6Q124.2 15.6 123.8 15.8Q123.4 16.0 123.2 16.4Q123.0 16.9 123.0 17.5ZM129.9 11.8L131.4 11.8L131.4 22L129.9 22L129.9 11.8ZM134.9 22L133.4 22L133.4 14.4L134.9 14.4L134.9 22ZM134.2 13.2L134.2 13.2Q133.8 13.2 133.5 12.9Q133.2 12.7 133.2 12.3L133.2 12.3Q133.2 11.9 133.5 11.7Q133.8 11.4 134.2 11.4L134.2 11.4Q134.6 11.4 134.8 11.7Q135.1 11.9 135.1 12.3L135.1 12.3Q135.1 12.7 134.8 12.9Q134.6 13.2 134.2 13.2ZM138.4 17.5L138.4 17.5L138.4 22L136.9 22L136.9 14.4L138.4 14.4L138.4 16.2L138.2 16.2Q138.6 15.2 139.2 14.7Q139.8 14.3 140.7 14.3L140.7 14.3Q141.5 14.3 142.1 14.6Q142.7 14.9 143.0 15.6Q143.3 16.2 143.3 17.1L143.3 17.1L143.3 22L141.8 22L141.8 17.3Q141.8 16.5 141.4 16.0Q141.0 15.6 140.2 15.6L140.2 15.6Q139.7 15.6 139.3 15.8Q138.9 16.0 138.7 16.4Q138.4 16.9 138.4 17.5ZM148.6 22.2L148.6 22.2Q147.5 22.2 146.7 21.7Q145.9 21.2 145.4 20.3Q145.0 19.4 145.0 18.2L145.0 18.2Q145.0 17.1 145.4 16.2Q145.9 15.3 146.7 14.8Q147.5 14.3 148.5 14.3L148.5 14.3Q149.2 14.3 149.8 14.5Q150.4 14.7 150.9 15.2Q151.4 15.6 151.6 16.3Q151.9 17.1 151.9 18.1L151.9 18.1L151.9 18.6L145.8 18.6L145.8 17.5L151.2 17.5L150.5 17.9Q150.5 17.2 150.2 16.6Q150.0 16.1 149.6 15.8Q149.2 15.5 148.5 15.5L148.5 15.5Q147.9 15.5 147.4 15.8Q147.0 16.1 146.7 16.6Q146.5 17.1 146.5 17.7L146.5 17.7L146.5 18.5Q146.5 19.3 146.8 19.8Q147.0 20.4 147.5 20.6Q148.0 20.9 148.7 20.9L148.7 20.9Q149.1 20.9 149.4 20.8Q149.8 20.7 150.0 20.4Q150.3 20.2 150.4 19.8L150.4 19.8L151.8 20.2Q151.6 20.8 151.2 21.2Q150.8 21.7 150.1 21.9Q149.5 22.2 148.6 22.2Z "/></g></svg>