<svg width="142" height="32" viewBox="0 0 142 32" xmlns="http://www.w3.org/2000/svg"><mask id="satori_om-id"><rect x="0" y="0" width="142" height="32" fill="#fff"/></mask><path x="0" y="0" width="142" height="32" fill="#fafafa" d="M6,0 h130 a6,6 0 0 1 6,6 v20 a6,6 0 0 1 -6,6 h-130 a6,6 0 0 1 -6,-6 v-20 a6,6 0 0 1 6,-6"/><clipPath id="satori_cp-id-1"><rect x="12" y="8" width="16" height="16"/></clipPath><mask id="satori_om-id-1"><rect x="12" y="8" width="16" height="16" fill="#fff"/></mask><image x="12" y="8" width="16" height="16" href="data:image/svg+xml;utf8,%3Csvg  fill=%22none%22 stroke=%22rgba(24,24,27,0.85)%22 stroke-width=%222%22 stroke-linecap=%22round%22 stroke-linejoin=%22round%22 xmlns=%22http://www.w3.org/2000/svg%22 width=%2216%22 height=%2216%22 viewBox=%220 0 24 24%22%3E%3Cpath d=%22M13 6h3a2 2 0 0 1 2 2v7 M15,18a3,3 0 1,0 6,0a3,3 0 1,0 -6,0 M3,6a3,3 0 1,0 6,0a3,3 0 1,0 -6,0%22%3E%3C/path%3E%3C/svg%3E" preserveAspectRatio="none" clip-path="url(#satori_cp-id-1)" mask="url(#satori_om-id-1)"/><mask id="satori_om-id-1-0"><rect x="12" y="8" width="0" height="16" fill="#fff"/></mask><mask id="satori_om-id-2"><rect x="28" y="16" width="6" height="0" fill="#fff"/></mask><mask id="satori_om-id-3"><rect x="34" y="8" width="70" height="17" fill="#fff"/></mask><mask id="satori_om-id-3-0"><rect x="34" y="8" width="64" height="17" fill="#fff"/></mask><g  ><path fill="rgba(24,24,27,0.7)" d="M38.2 22.2L38.2 22.2Q37.2 22.2 36.3 21.7Q35.5 21.2 35.1 20.3Q34.7 19.4 34.7 18.2L34.7 18.2Q34.7 17.0 35.1 16.1Q35.5 15.2 36.3 14.8Q37.2 14.3 38.2 14.3L38.2 14.3Q39.3 14.3 40.1 14.8Q40.9 15.2 41.4 16.1Q41.8 17.0 41.8 18.2L41.8 18.2Q41.8 19.4 41.4 20.3Q40.9 21.2 40.1 21.7Q39.3 22.2 38.2 22.2ZM38.2 20.9L38.2 20.9Q38.9 20.9 39.4 20.5Q39.8 20.2 40.1 19.5Q40.3 18.9 40.3 18.2L40.3 18.2Q40.3 17.5 40.1 16.9Q39.8 16.3 39.4 15.9Q38.9 15.5 38.2 15.5L38.2 15.5Q37.5 15.5 37.1 15.9Q36.6 16.3 36.4 16.9Q36.2 17.5 36.2 18.2L36.2 18.2Q36.2 18.9 36.4 19.5Q36.6 20.2 37.1 20.5Q37.5 20.9 38.2 20.9ZM45.0 24.9L43.5 24.9L43.5 14.4L44.9 14.4L44.9 15.6L45.1 15.6Q45.2 15.4 45.4 15.0Q45.7 14.7 46.1 14.5Q46.5 14.3 47.3 14.3L47.3 14.3Q48.2 14.3 48.9 14.7Q49.6 15.2 50.0 16.1Q50.5 17.0 50.5 18.2L50.5 18.2Q50.5 19.4 50.0 20.3Q49.6 21.2 48.9 21.7Q48.2 22.2 47.3 22.2L47.3 22.2Q46.6 22.2 46.1 21.9Q45.7 21.7 45.4 21.4Q45.2 21.0 45.1 20.8L45.1 20.8L45.0 20.8L45.0 24.9ZM46.9 20.9L46.9 20.9Q47.6 20.9 48.0 20.5Q48.5 20.2 48.7 19.6Q48.9 18.9 48.9 18.2L48.9 18.2Q48.9 17.4 48.7 16.8Q48.5 16.2 48.0 15.9Q47.6 15.5 46.9 15.5L46.9 15.5Q46.3 15.5 45.8 15.9Q45.4 16.2 45.2 16.8Q44.9 17.4 44.9 18.2L44.9 18.2Q44.9 19.0 45.2 19.6Q45.4 20.2 45.8 20.5Q46.3 20.9 46.9 20.9ZM55.4 22.2L55.4 22.2Q54.3 22.2 53.5 21.7Q52.6 21.2 52.2 20.3Q51.8 19.4 51.8 18.2L51.8 18.2Q51.8 17.1 52.2 16.2Q52.6 15.3 53.4 14.8Q54.2 14.3 55.3 14.3L55.3 14.3Q55.9 14.3 56.6 14.5Q57.2 14.7 57.6 15.2Q58.1 15.6 58.4 16.3Q58.7 17.1 58.7 18.1L58.7 18.1L58.7 18.6L52.6 18.6L52.6 17.5L57.9 17.5L57.2 17.9Q57.2 17.2 57.0 16.6Q56.8 16.1 56.4 15.8Q55.9 15.5 55.3 15.5L55.3 15.5Q54.7 15.5 54.2 15.8Q53.7 16.1 53.5 16.6Q53.3 17.1 53.3 17.7L53.3 17.7L53.3 18.5Q53.3 19.3 53.5 19.8Q53.8 20.4 54.3 20.6Q54.8 20.9 55.4 20.9L55.4 20.9Q55.9 20.9 56.2 20.8Q56.5 20.7 56.8 20.4Q57.0 20.2 57.2 19.8L57.2 19.8L58.6 20.2Q58.4 20.8 58.0 21.2Q57.5 21.7 56.9 21.9Q56.2 22.2 55.4 22.2ZM61.8 17.5L61.8 17.5L61.8 22L60.3 22L60.3 14.4L61.8 14.4L61.8 16.2L61.6 16.2Q62.0 15.2 62.6 14.7Q63.2 14.3 64.1 14.3L64.1 14.3Q64.9 14.3 65.5 14.6Q66.1 14.9 66.4 15.6Q66.7 16.2 66.7 17.1L66.7 17.1L66.7 22L65.2 22L65.2 17.3Q65.2 16.5 64.8 16.0Q64.4 15.6 63.6 15.6L63.6 15.6Q63.1 15.6 62.7 15.8Q62.3 16.0 62.1 16.4Q61.8 16.9 61.8 17.5Z M74.2 22L72.6 22L72.6 11.8L76.3 11.8Q77.4 11.8 78.2 12.3Q79.0 12.7 79.4 13.4Q79.8 14.2 79.8 15.1L79.8 15.1Q79.8 16.1 79.4 16.8Q79.0 17.6 78.2 18.0Q77.4 18.4 76.3 18.4L76.3 18.4L73.8 18.4L73.8 17.1L76.1 17.1Q76.9 17.1 77.3 16.9Q77.8 16.6 78.0 16.1Q78.2 15.7 78.2 15.1L78.2 15.1Q78.2 14.5 78.0 14.1Q77.8 13.7 77.3 13.4Q76.8 13.1 76.1 13.1L76.1 13.1L74.2 13.1L74.2 22ZM83.2 22L81.6 22L81.6 11.8L85.2 11.8Q86.4 11.8 87.2 12.2Q88.0 12.6 88.4 13.4Q88.8 14.1 88.8 15.0L88.8 15.0Q88.8 16.0 88.4 16.7Q88.0 17.4 87.2 17.8Q86.4 18.2 85.2 18.2L85.2 18.2L82.5 18.2L82.5 16.8L85.1 16.8Q85.8 16.8 86.3 16.6Q86.8 16.4 87.0 16.0Q87.2 15.6 87.2 15.0L87.2 15.0Q87.2 14.4 87.0 14.0Q86.8 13.6 86.3 13.4Q85.8 13.1 85.1 13.1L85.1 13.1L83.2 13.1L83.2 22ZM89.2 22L87.4 22L84.9 17.4L86.7 17.4L89.2 22ZM93.3 22.2L93.3 22.2Q92.5 22.2 91.8 21.9Q91.2 21.7 90.8 21.2Q90.3 20.7 90.2 20.1L90.2 20.1L91.6 19.8Q91.8 20.4 92.2 20.7Q92.6 20.9 93.3 20.9L93.3 20.9Q94.0 20.9 94.5 20.6Q94.9 20.3 94.9 19.9L94.9 19.9Q94.9 19.5 94.6 19.3Q94.4 19.1 93.8 18.9L93.8 18.9L92.5 18.7Q91.5 18.4 91.0 17.9Q90.4 17.4 90.4 16.5L90.4 16.5Q90.4 15.9 90.8 15.3Q91.2 14.8 91.9 14.5Q92.5 14.3 93.4 14.3L93.4 14.3Q94.2 14.3 94.8 14.5Q95.4 14.7 95.8 15.2Q96.1 15.6 96.3 16.2L96.3 16.2L94.9 16.5Q94.8 16.1 94.4 15.8Q94.1 15.5 93.4 15.5L93.4 15.5Q92.8 15.5 92.4 15.7Q91.9 16.0 91.9 16.4L91.9 16.4Q91.9 16.8 92.2 17.1Q92.5 17.3 93.1 17.4L93.1 17.4L94.4 17.7Q95.4 18.0 95.9 18.5Q96.4 19.0 96.4 19.8L96.4 19.8Q96.4 20.5 96.0 21.0Q95.6 21.5 94.9 21.9Q94.2 22.2 93.3 22.2Z "/></g><mask id="satori_om-id-3-1"><rect x="98" y="8" width="6" height="17" fill="#fff"/></mask><mask id="satori_om-id-4"><rect x="104" y="8" width="26" height="17" fill="#fff"/></mask><g  ><path fill="#18181b" d="M106.9 11.8L108.7 11.8L108.7 22L107.1 22L107.1 13.2L107.1 13.2L104.6 15.0L104.6 13.4L106.9 11.8ZM111.9 22.1L111.9 22.1Q111.5 22.1 111.2 21.8Q110.9 21.5 110.9 21.1L110.9 21.1Q110.9 20.7 111.2 20.4Q111.5 20.1 111.9 20.1L111.9 20.1Q112.4 20.1 112.6 20.4Q112.9 20.7 112.9 21.1L112.9 21.1Q112.9 21.5 112.6 21.8Q112.4 22.1 111.9 22.1ZM116.7 22L115.1 22L119.5 13.2L119.5 13.1L114.4 13.1L114.4 11.8L121.2 11.8L121.2 13.2L116.7 22ZM125.6 18.1L124.2 19.4L124.2 17.6L124.5 17.6L127.5 14.4L129.3 14.4L125.8 18.1L125.6 18.1ZM124.3 22L122.8 22L122.8 11.8L124.3 11.8L124.3 22ZM129.5 22L127.6 22L124.9 18.4L126.0 17.3L129.5 22Z "/></g></svg>