<svg width="122" height="32" viewBox="0 0 122 32" xmlns="http://www.w3.org/2000/svg"><mask id="satori_om-id"><rect x="0" y="0" width="122" height="32" fill="#fff"/></mask><path x="0" y="0" width="122" height="32" fill="#fafafa" d="M6,0 h110 a6,6 0 0 1 6,6 v20 a6,6 0 0 1 -6,6 h-110 a6,6 0 0 1 -6,-6 v-20 a6,6 0 0 1 6,-6"/><clipPath id="satori_cp-id-1"><rect x="12" y="8" width="16" height="16"/></clipPath><mask id="satori_om-id-1"><rect x="12" y="8" width="16" height="16" fill="#fff"/></mask><image x="12" y="8" width="16" height="16" href="data:image/svg+xml;utf8,%3Csvg  fill=%22none%22 stroke=%22rgba(24,24,27,0.85)%22 stroke-width=%222%22 stroke-linecap=%22round%22 stroke-linejoin=%22round%22 xmlns=%22http://www.w3.org/2000/svg%22 width=%2216%22 height=%2216%22 viewBox=%220 0 24 24%22%3E%3Cpath d=%22M2,12a10,10 0 1,0 20,0a10,10 0 1,0 -20,0 M11,12a1,1 0 1,0 2,0a1,1 0 1,0 -2,0%22%3E%3C/path%3E%3C/svg%3E" preserveAspectRatio="none" clip-path="url(#satori_cp-id-1)" mask="url(#satori_om-id-1)"/><mask id="satori_om-id-1-0"><rect x="12" y="8" width="0" height="16" fill="#fff"/></mask><mask id="satori_om-id-2"><rect x="28" y="16" width="6" height="0" fill="#fff"/></mask><mask id="satori_om-id-3"><rect x="34" y="8" width="49" height="17" fill="#fff"/></mask><mask id="satori_om-id-3-0"><rect x="34" y="8" width="43" height="17" fill="#fff"/></mask><g  ><path fill="rgba(24,24,27,0.7)" d="M36.5 22L35.0 22L35.0 14.4L36.5 14.4L36.5 22ZM35.8 13.2L35.8 13.2Q35.4 13.2 35.1 12.9Q34.8 12.7 34.8 12.3L34.8 12.3Q34.8 11.9 35.1 11.7Q35.4 11.4 35.8 11.4L35.8 11.4Q36.2 11.4 36.4 11.7Q36.7 11.9 36.7 12.3L36.7 12.3Q36.7 12.7 36.4 12.9Q36.2 13.2 35.8 13.2ZM41.3 22.2L41.3 22.2Q40.5 22.2 39.8 21.9Q39.2 21.7 38.7 21.2Q38.3 20.7 38.2 20.1L38.2 20.1L39.6 19.8Q39.8 20.4 40.2 20.7Q40.6 20.9 41.3 20.9L41.3 20.9Q42.0 20.9 42.4 20.6Q42.9 20.3 42.9 19.9L42.9 19.9Q42.9 19.5 42.6 19.3Q42.4 19.1 41.8 18.9L41.8 18.9L40.5 18.7Q39.5 18.4 38.9 17.9Q38.4 17.4 38.4 16.5L38.4 16.5Q38.4 15.9 38.8 15.3Q39.2 14.8 39.8 14.5Q40.5 14.3 41.4 14.3L41.4 14.3Q42.2 14.3 42.8 14.5Q43.4 14.7 43.7 15.2Q44.1 15.6 44.3 16.2L44.3 16.2L42.9 16.5Q42.8 16.1 42.4 15.8Q42.1 15.5 41.4 15.5L41.4 15.5Q40.8 15.5 40.4 15.7Q39.9 16.0 39.9 16.4L39.9 16.4Q39.9 16.8 40.2 17.1Q40.5 17.3 41.1 17.4L41.1 17.4L42.3 17.7Q43.4 18.0 43.9 18.5Q44.4 19.0 44.4 19.8L44.4 19.8Q44.4 20.5 44.0 21.0Q43.6 21.5 42.9 21.9Q42.2 22.2 41.3 22.2ZM48.8 22.2L48.8 22.2Q48.0 22.2 47.3 21.9Q46.7 21.7 46.3 21.2Q45.9 20.7 45.7 20.1L45.7 20.1L47.2 19.8Q47.3 20.4 47.7 20.7Q48.2 20.9 48.8 20.9L48.8 20.9Q49.6 20.9 50.0 20.6Q50.4 20.3 50.4 19.9L50.4 19.9Q50.4 19.5 50.2 19.3Q49.9 19.1 49.3 18.9L49.3 18.9L48.1 18.7Q47.0 18.4 46.5 17.9Q46.0 17.4 46.0 16.5L46.0 16.5Q46.0 15.9 46.3 15.3Q46.7 14.8 47.4 14.5Q48.0 14.3 48.9 14.3L48.9 14.3Q49.7 14.3 50.3 14.5Q50.9 14.7 51.3 15.2Q51.7 15.6 51.8 16.2L51.8 16.2L50.5 16.5Q50.3 16.1 50.0 15.8Q49.6 15.5 48.9 15.5L48.9 15.5Q48.3 15.5 47.9 15.7Q47.5 16.0 47.5 16.4L47.5 16.4Q47.5 16.8 47.8 17.1Q48.0 17.3 48.7 17.4L48.7 17.4L49.9 17.7Q50.9 18.0 51.5 18.5Q52.0 19.0 52.0 19.8L52.0 19.8Q52.0 20.5 51.6 21.0Q51.2 21.5 50.5 21.9Q49.8 22.2 48.8 22.2ZM56.2 22.1L56.2 22.1Q55.4 22.1 54.9 21.8Q54.3 21.4 53.9 20.8Q53.6 20.2 53.6 19.2L53.6 19.2L53.6 14.4L55.1 14.4L55.1 19.0Q55.1 19.9 55.6 20.3Q56.0 20.8 56.7 20.8L56.7 20.8Q57.2 20.8 57.6 20.6Q58.0 20.3 58.3 19.9Q58.5 19.5 58.5 18.9L58.5 18.9L58.5 14.4L60.0 14.4L60.0 22L58.6 22L58.6 20.1L58.7 20.1Q58.4 21.2 57.7 21.6Q57.1 22.1 56.2 22.1ZM65.3 22.2L65.3 22.2Q64.2 22.2 63.4 21.7Q62.6 21.2 62.1 20.3Q61.7 19.4 61.7 18.2L61.7 18.2Q61.7 17.1 62.1 16.2Q62.6 15.3 63.3 14.8Q64.1 14.3 65.2 14.3L65.2 14.3Q65.9 14.3 66.5 14.5Q67.1 14.7 67.6 15.2Q68.0 15.6 68.3 16.3Q68.6 17.1 68.6 18.1L68.6 18.1L68.6 18.6L62.5 18.6L62.5 17.5L67.8 17.5L67.1 17.9Q67.1 17.2 66.9 16.6Q66.7 16.1 66.3 15.8Q65.8 15.5 65.2 15.5L65.2 15.5Q64.6 15.5 64.1 15.8Q63.7 16.1 63.4 16.6Q63.2 17.1 63.2 17.7L63.2 17.7L63.2 18.5Q63.2 19.3 63.5 19.8Q63.7 20.4 64.2 20.6Q64.7 20.9 65.3 20.9L65.3 20.9Q65.8 20.9 66.1 20.8Q66.5 20.7 66.7 20.4Q67.0 20.2 67.1 19.8L67.1 19.8L68.5 20.2Q68.3 20.8 67.9 21.2Q67.4 21.7 66.8 21.9Q66.2 22.2 65.3 22.2ZM73.0 22.2L73.0 22.2Q72.2 22.2 71.5 21.9Q70.9 21.7 70.5 21.2Q70.1 20.7 69.9 20.1L69.9 20.1L71.3 19.8Q71.5 20.4 71.9 20.7Q72.4 20.9 73.0 20.9L73.0 20.9Q73.7 20.9 74.2 20.6Q74.6 20.3 74.6 19.9L74.6 19.9Q74.6 19.5 74.3 19.3Q74.1 19.1 73.5 18.9L73.5 18.9L72.2 18.7Q71.2 18.4 70.7 17.9Q70.1 17.4 70.1 16.5L70.1 16.5Q70.1 15.9 70.5 15.3Q70.9 14.8 71.6 14.5Q72.2 14.3 73.1 14.3L73.1 14.3Q73.9 14.3 74.5 14.5Q75.1 14.7 75.5 15.2Q75.8 15.6 76.0 16.2L76.0 16.2L74.6 16.5Q74.5 16.1 74.1 15.8Q73.8 15.5 73.1 15.5L73.1 15.5Q72.5 15.5 72.1 15.7Q71.7 16.0 71.7 16.4L71.7 16.4Q71.7 16.8 71.9 17.1Q72.2 17.3 72.8 17.4L72.8 17.4L74.1 17.7Q75.1 18.0 75.6 18.5Q76.2 19.0 76.2 19.8L76.2 19.8Q76.2 20.5 75.8 21.0Q75.4 21.5 74.6 21.9Q73.9 22.2 73.0 22.2Z "/></g><mask id="satori_om-id-3-1"><rect x="77" y="8" width="6" height="17" fill="#fff"/></mask><mask id="satori_om-id-4"><rect x="83" y="8" width="27" height="17" fill="#fff"/></mask><g  ><path fill="#18181b" d="M90.7 22L84.0 22L84.0 20.9L87.4 17.3Q88.0 16.7 88.3 16.3Q88.7 15.9 88.9 15.5Q89.1 15.1 89.1 14.6L89.1 14.6Q89.1 14.1 88.8 13.7Q88.6 13.4 88.2 13.2Q87.8 13.0 87.3 13.0L87.3 13.0Q86.7 13.0 86.3 13.2Q85.9 13.4 85.7 13.8Q85.5 14.2 85.5 14.8L85.5 14.8L84.0 14.8Q84.0 13.9 84.4 13.2Q84.8 12.5 85.6 12.1Q86.3 11.7 87.3 11.7L87.3 11.7Q88.3 11.7 89.0 12.1Q89.7 12.4 90.1 13.1Q90.6 13.7 90.6 14.6L90.6 14.6Q90.6 15.1 90.3 15.7Q90.1 16.2 89.6 16.9Q89.1 17.5 88.1 18.5L88.1 18.5L86.1 20.6L86.1 20.7L90.7 20.7L90.7 22ZM93.8 22.1L93.8 22.1Q93.3 22.1 93.0 21.8Q92.7 21.5 92.7 21.1L92.7 21.1Q92.7 20.7 93.0 20.4Q93.3 20.1 93.8 20.1L93.8 20.1Q94.2 20.1 94.5 20.4Q94.8 20.7 94.8 21.1L94.8 21.1Q94.8 21.5 94.5 21.8Q94.2 22.1 93.8 22.1ZM97.5 11.8L99.3 11.8L99.3 22L97.8 22L97.8 13.2L97.7 13.2L95.3 15.0L95.3 13.4L97.5 11.8ZM104.2 18.1L102.9 19.4L102.9 17.6L103.1 17.6L106.1 14.4L107.9 14.4L104.5 18.1L104.2 18.1ZM103.0 22L101.5 22L101.5 11.8L103.0 11.8L103.0 22ZM108.1 22L106.3 22L103.6 18.4L104.6 17.3L108.1 22Z "/></g></svg>