<svg width="126" height="32" viewBox="0 0 126 32" xmlns="http://www.w3.org/2000/svg"><mask id="satori_om-id"><rect x="0" y="0" width="126" height="32" fill="#fff"/></mask><path x="0" y="0" width="126" height="32" fill="#fafafa" d="M6,0 h114 a6,6 0 0 1 6,6 v20 a6,6 0 0 1 -6,6 h-114 a6,6 0 0 1 -6,-6 v-20 a6,6 0 0 1 6,-6"/><clipPath id="satori_cp-id-1"><rect x="12" y="8" width="16" height="16"/></clipPath><mask id="satori_om-id-1"><rect x="12" y="8" width="16" height="16" fill="#fff"/></mask><image x="12" y="8" width="16" height="16" href="data:image/svg+xml;utf8,%3Csvg  xmlns=%22http://www.w3.org/2000/svg%22 width=%2220%22 height=%2216%22 viewBox=%220 0 640 512%22%3E%3Cpath fill=%22rgba(24,24,27,0.85)%22 d=%22M256 336h-.02c0-16.18 1.34-8.73-85.05-181.51-17.65-35.29-68.19-35.36-85.87 0C-2.06 328.75.02 320.33.02 336H0c0 44.18 57.31 80 128 80s128-35.82 128-80zM128 176l72 144H56l72-144zm511.98 160c0-16.18 1.34-8.73-85.05-181.51-17.65-35.29-68.19-35.36-85.87 0-87.12 174.26-85.04 165.84-85.04 181.51H384c0 44.18 57.31 80 128 80s128-35.82 128-80h-.02zM440 320l72-144 72 144H440zm88 128H352V153.25c23.51-10.29 41.16-31.48 46.39-57.25H528c8.84 0 16-7.16 16-16V48c0-8.84-7.16-16-16-16H383.64C369.04 12.68 346.09 0 320 0s-49.04 12.68-63.64 32H112c-8.84 0-16 7.16-16 16v32c0 8.84 7.16 16 16 16h129.61c5.23 25.76 22.87 46.96 46.39 57.25V448H112c-8.84 0-16 7.16-16 16v32c0 8.84 7.16 16 16 16h416c8.84 0 16-7.16 16-16v-32c0-8.84-7.16-16-16-16z%22 fill-rule=%22undefined%22%3E%3C/path%3E%3C/svg%3E" preserveAspectRatio="none" clip-path="url(#satori_cp-id-1)" mask="url(#satori_om-id-1)"/><mask id="satori_om-id-1-0"><rect x="12" y="8" width="0" height="16" fill="#fff"/></mask><mask id="satori_om-id-2"><rect x="28" y="16" width="6" height="0" fill="#fff"/></mask><mask id="satori_om-id-3"><rect x="34" y="8" width="54" height="17" fill="#fff"/></mask><mask id="satori_om-id-3-0"><rect x="34" y="8" width="48" height="17" fill="#fff"/></mask><g  ><path fill="rgba(24,24,27,0.7)" d="M35.0 11.8L36.5 11.8L36.5 22L35.0 22L35.0 11.8ZM40.0 22L38.5 22L38.5 14.4L40.0 14.4L40.0 22ZM39.3 13.2L39.3 13.2Q38.9 13.2 38.6 12.9Q38.4 12.7 38.4 12.3L38.4 12.3Q38.4 11.9 38.6 11.7Q38.9 11.4 39.3 11.4L39.3 11.4Q39.7 11.4 40.0 11.7Q40.2 11.9 40.2 12.3L40.2 12.3Q40.2 12.7 40.0 12.9Q39.7 13.2 39.3 13.2ZM45.3 22.2L45.3 22.2Q44.2 22.2 43.4 21.7Q42.6 21.2 42.2 20.3Q41.7 19.4 41.7 18.2L41.7 18.2Q41.7 17.0 42.2 16.1Q42.6 15.2 43.4 14.8Q44.2 14.3 45.3 14.3L45.3 14.3Q45.9 14.3 46.4 14.4Q46.9 14.6 47.3 14.9Q47.8 15.2 48.0 15.6Q48.3 16.0 48.5 16.5L48.5 16.5L47.0 16.9Q47.0 16.6 46.8 16.3Q46.7 16.1 46.4 15.9Q46.2 15.7 45.9 15.6Q45.6 15.5 45.3 15.5L45.3 15.5Q44.6 15.5 44.1 15.9Q43.7 16.3 43.5 16.9Q43.2 17.5 43.2 18.2L43.2 18.2Q43.2 19.0 43.5 19.6Q43.7 20.2 44.1 20.5Q44.6 20.9 45.3 20.9L45.3 20.9Q45.6 20.9 45.9 20.8Q46.2 20.7 46.5 20.5Q46.7 20.3 46.9 20.1Q47.0 19.8 47.1 19.5L47.1 19.5L48.5 19.8Q48.4 20.4 48.1 20.8Q47.8 21.2 47.4 21.5Q46.9 21.8 46.4 22Q45.9 22.2 45.3 22.2ZM53.4 22.2L53.4 22.2Q52.3 22.2 51.5 21.7Q50.7 21.2 50.2 20.3Q49.8 19.4 49.8 18.2L49.8 18.2Q49.8 17.1 50.2 16.2Q50.7 15.3 51.5 14.8Q52.2 14.3 53.3 14.3L53.3 14.3Q54.0 14.3 54.6 14.5Q55.2 14.7 55.7 15.2Q56.2 15.6 56.4 16.3Q56.7 17.1 56.7 18.1L56.7 18.1L56.7 18.6L50.6 18.6L50.6 17.5L56.0 17.5L55.2 17.9Q55.2 17.2 55.0 16.6Q54.8 16.1 54.4 15.8Q54.0 15.5 53.3 15.5L53.3 15.5Q52.7 15.5 52.2 15.8Q51.8 16.1 51.5 16.6Q51.3 17.1 51.3 17.7L51.3 17.7L51.3 18.5Q51.3 19.3 51.6 19.8Q51.8 20.4 52.3 20.6Q52.8 20.9 53.5 20.9L53.5 20.9Q53.9 20.9 54.2 20.8Q54.6 20.7 54.8 20.4Q55.1 20.2 55.2 19.8L55.2 19.8L56.6 20.2Q56.4 20.8 56.0 21.2Q55.6 21.7 54.9 21.9Q54.3 22.2 53.4 22.2ZM59.9 17.5L59.9 17.5L59.9 22L58.4 22L58.4 14.4L59.8 14.4L59.8 16.2L59.7 16.2Q60.0 15.2 60.6 14.7Q61.3 14.3 62.2 14.3L62.2 14.3Q63.0 14.3 63.5 14.6Q64.1 14.9 64.4 15.6Q64.8 16.2 64.8 17.1L64.8 17.1L64.8 22L63.3 22L63.3 17.3Q63.3 16.5 62.8 16.0Q62.4 15.6 61.7 15.6L61.7 15.6Q61.1 15.6 60.7 15.8Q60.3 16.0 60.1 16.4Q59.9 16.9 59.9 17.5ZM69.5 22.2L69.5 22.2Q68.7 22.2 68.1 21.9Q67.4 21.7 67.0 21.2Q66.6 20.7 66.5 20.1L66.5 20.1L67.9 19.8Q68.0 20.4 68.5 20.7Q68.9 20.9 69.5 20.9L69.5 20.9Q70.3 20.9 70.7 20.6Q71.1 20.3 71.1 19.9L71.1 19.9Q71.1 19.5 70.9 19.3Q70.6 19.1 70.1 18.9L70.1 18.9L68.8 18.7Q67.7 18.4 67.2 17.9Q66.7 17.4 66.7 16.5L66.7 16.5Q66.7 15.9 67.1 15.3Q67.4 14.8 68.1 14.5Q68.8 14.3 69.6 14.3L69.6 14.3Q70.5 14.3 71.0 14.5Q71.6 14.7 72.0 15.2Q72.4 15.6 72.5 16.2L72.5 16.2L71.2 16.5Q71.0 16.1 70.7 15.8Q70.3 15.5 69.6 15.5L69.6 15.5Q69.0 15.5 68.6 15.7Q68.2 16.0 68.2 16.4L68.2 16.4Q68.2 16.8 68.5 17.1Q68.7 17.3 69.4 17.4L69.4 17.4L70.6 17.7Q71.7 18.0 72.2 18.5Q72.7 19.0 72.7 19.8L72.7 19.8Q72.7 20.5 72.3 21.0Q71.9 21.5 71.2 21.9Q70.5 22.2 69.5 22.2ZM77.6 22.2L77.6 22.2Q76.5 22.2 75.7 21.7Q74.9 21.2 74.4 20.3Q74.0 19.4 74.0 18.2L74.0 18.2Q74.0 17.1 74.4 16.2Q74.8 15.3 75.6 14.8Q76.4 14.3 77.5 14.3L77.5 14.3Q78.2 14.3 78.8 14.5Q79.4 14.7 79.9 15.2Q80.3 15.6 80.6 16.3Q80.9 17.1 80.9 18.1L80.9 18.1L80.9 18.6L74.8 18.6L74.8 17.5L80.1 17.5L79.4 17.9Q79.4 17.2 79.2 16.6Q79.0 16.1 78.6 15.8Q78.1 15.5 77.5 15.5L77.5 15.5Q76.9 15.5 76.4 15.8Q76.0 16.1 75.7 16.6Q75.5 17.1 75.5 17.7L75.5 17.7L75.5 18.5Q75.5 19.3 75.8 19.8Q76.0 20.4 76.5 20.6Q77.0 20.9 77.6 20.9L77.6 20.9Q78.1 20.9 78.4 20.8Q78.7 20.7 79.0 20.4Q79.2 20.2 79.4 19.8L79.4 19.8L80.8 20.2Q80.6 20.8 80.2 21.2Q79.7 21.7 79.1 21.9Q78.4 22.2 77.6 22.2Z "/></g><mask id="satori_om-id-3-1"><rect x="82" y="8" width="6" height="17" fill="#fff"/></mask><mask id="satori_om-id-4"><rect x="88" y="8" width="26" height="17" fill="#fff"/></mask><g  ><path fill="#18181b" d="M90.6 22L89.1 22L89.1 11.8L91.4 11.8L93.6 17.7Q93.7 17.9 93.9 18.3Q94.0 18.7 94.1 19.2Q94.2 19.6 94.4 20.1Q94.5 20.5 94.6 20.9L94.6 20.9L94.2 20.9Q94.3 20.6 94.4 20.1Q94.6 19.7 94.7 19.2Q94.8 18.7 94.9 18.3Q95.1 17.9 95.2 17.7L95.2 17.7L97.3 11.8L99.7 11.8L99.7 22L98.1 22L98.1 16.5Q98.1 16.2 98.1 15.8Q98.1 15.3 98.1 14.8Q98.1 14.4 98.1 13.9Q98.2 13.4 98.2 12.9L98.2 12.9L98.3 12.9Q98.1 13.4 98.0 13.9Q97.8 14.5 97.7 14.9Q97.5 15.4 97.4 15.8Q97.2 16.3 97.1 16.5L97.1 16.5L95.1 22L93.7 22L91.6 16.5Q91.5 16.3 91.4 15.9Q91.2 15.5 91.1 15.0Q90.9 14.5 90.8 14.0Q90.6 13.4 90.4 12.9L90.4 12.9L90.6 12.9Q90.6 13.3 90.6 13.8Q90.6 14.3 90.6 14.8Q90.6 15.3 90.6 15.7Q90.6 16.2 90.6 16.5L90.6 16.5L90.6 22ZM101.9 11.8L103.5 11.8L103.5 22L101.9 22L101.9 11.8ZM108.4 13.2L105.2 13.2L105.2 11.8L113.1 11.8L113.1 13.2L110.0 13.2L110.0 22L108.4 22L108.4 13.2Z "/></g></svg>