<svg width="123" height="32" viewBox="0 0 123 32" xmlns="http://www.w3.org/2000/svg"><mask id="satori_om-id"><rect x="0" y="0" width="123" height="32" fill="#fff"/></mask><path x="0" y="0" width="123" height="32" fill="#fafafa" d="M6,0 h111 a6,6 0 0 1 6,6 v20 a6,6 0 0 1 -6,6 h-111 a6,6 0 0 1 -6,-6 v-20 a6,6 0 0 1 6,-6"/><clipPath id="satori_cp-id-1"><rect x="12" y="8" width="16" height="16"/></clipPath><mask id="satori_om-id-1"><rect x="12" y="8" width="16" height="16" fill="#fff"/></mask><image x="12" y="8" width="16" height="16" href="data:image/svg+xml;utf8,%3Csvg  fill=%22none%22 stroke=%22rgba(24,24,27,0.85)%22 stroke-width=%222%22 stroke-linecap=%22round%22 stroke-linejoin=%22round%22 xmlns=%22http://www.w3.org/2000/svg%22 width=%2216%22 height=%2216%22 viewBox=%220 0 24 24%22%3E%3Cpath d=%22M18 9v2c0 .6-.4 1-1 1H7c-.6 0-1-.4-1-1V9 M12 12v3 M9,18a3,3 0 1,0 6,0a3,3 0 1,0 -6,0 M3,6a3,3 0 1,0 6,0a3,3 0 1,0 -6,0 M15,6a3,3 0 1,0 6,0a3,3 0 1,0 -6,0%22%3E%3C/path%3E%3C/svg%3E" preserveAspectRatio="none" clip-path="url(#satori_cp-id-1)" mask="url(#satori_om-id-1)"/><mask id="satori_om-id-1-0"><rect x="12" y="8" width="0" height="16" fill="#fff"/></mask><mask id="satori_om-id-2"><rect x="28" y="16" width="6" height="0" fill="#fff"/></mask><mask id="satori_om-id-3"><rect x="34" y="8" width="41" height="17" fill="#fff"/></mask><mask id="satori_om-id-3-0"><rect x="34" y="8" width="35" height="17" fill="#fff"/></mask><g  ><path fill="rgba(24,24,27,0.7)" d="M34.1 14.4L38.8 14.4L38.8 15.6L34.1 15.6L34.1 14.4ZM37.1 22L35.6 22L35.6 13.5Q35.6 12.8 35.9 12.3Q36.2 11.8 36.7 11.6Q37.3 11.3 37.9 11.3L37.9 11.3Q38.3 11.3 38.6 11.4Q39.0 11.5 39.1 11.5L39.1 11.5L38.8 12.8Q38.7 12.7 38.5 12.7Q38.3 12.6 38.1 12.6L38.1 12.6Q37.6 12.6 37.3 12.9Q37.1 13.2 37.1 13.7L37.1 13.7L37.1 22ZM43.5 22.2L43.5 22.2Q42.5 22.2 41.7 21.7Q40.9 21.2 40.4 20.3Q40.0 19.4 40.0 18.2L40.0 18.2Q40.0 17.0 40.4 16.1Q40.9 15.2 41.7 14.8Q42.5 14.3 43.5 14.3L43.5 14.3Q44.6 14.3 45.4 14.8Q46.2 15.2 46.7 16.1Q47.1 17.0 47.1 18.2L47.1 18.2Q47.1 19.4 46.7 20.3Q46.2 21.2 45.4 21.7Q44.6 22.2 43.5 22.2ZM43.5 20.9L43.5 20.9Q44.2 20.9 44.7 20.5Q45.1 20.2 45.4 19.5Q45.6 18.9 45.6 18.2L45.6 18.2Q45.6 17.5 45.4 16.9Q45.1 16.3 44.7 15.9Q44.2 15.5 43.5 15.5L43.5 15.5Q42.8 15.5 42.4 15.9Q41.9 16.3 41.7 16.9Q41.5 17.5 41.5 18.2L41.5 18.2Q41.5 18.9 41.7 19.5Q41.9 20.2 42.4 20.5Q42.8 20.9 43.5 20.9ZM50.3 22L48.8 22L48.8 14.4L50.2 14.4L50.2 15.6L50.3 15.6Q50.5 15.0 51.1 14.6Q51.6 14.2 52.3 14.2L52.3 14.2Q52.4 14.2 52.6 14.3Q52.8 14.3 52.9 14.3L52.9 14.3L52.9 15.7Q52.8 15.7 52.6 15.7Q52.3 15.6 52.1 15.6L52.1 15.6Q51.6 15.6 51.2 15.9Q50.7 16.1 50.5 16.5Q50.3 16.9 50.3 17.4L50.3 17.4L50.3 22ZM56.9 18.1L55.6 19.4L55.6 17.6L55.8 17.6L58.8 14.4L60.7 14.4L57.2 18.1L56.9 18.1ZM55.7 22L54.2 22L54.2 11.8L55.7 11.8L55.7 22ZM60.9 22L59.0 22L56.3 18.4L57.3 17.3L60.9 22ZM64.8 22.2L64.8 22.2Q63.9 22.2 63.3 21.9Q62.6 21.7 62.2 21.2Q61.8 20.7 61.7 20.1L61.7 20.1L63.1 19.8Q63.3 20.4 63.7 20.7Q64.1 20.9 64.8 20.9L64.8 20.9Q65.5 20.9 65.9 20.6Q66.4 20.3 66.4 19.9L66.4 19.9Q66.4 19.5 66.1 19.3Q65.8 19.1 65.3 18.9L65.3 18.9L64.0 18.7Q62.9 18.4 62.4 17.9Q61.9 17.4 61.9 16.5L61.9 16.5Q61.9 15.9 62.3 15.3Q62.7 14.8 63.3 14.5Q64.0 14.3 64.9 14.3L64.9 14.3Q65.7 14.3 66.3 14.5Q66.9 14.7 67.2 15.2Q67.6 15.6 67.7 16.2L67.7 16.2L66.4 16.5Q66.3 16.1 65.9 15.8Q65.5 15.5 64.9 15.5L64.9 15.5Q64.2 15.5 63.8 15.7Q63.4 16.0 63.4 16.4L63.4 16.4Q63.4 16.8 63.7 17.1Q64.0 17.3 64.6 17.4L64.6 17.4L65.8 17.7Q66.9 18.0 67.4 18.5Q67.9 19.0 67.9 19.8L67.9 19.8Q67.9 20.5 67.5 21.0Q67.1 21.5 66.4 21.9Q65.7 22.2 64.8 22.2Z "/></g><mask id="satori_om-id-3-1"><rect x="69" y="8" width="6" height="17" fill="#fff"/></mask><mask id="satori_om-id-4"><rect x="75" y="8" width="36" height="17" fill="#fff"/></mask><g  ><path fill="#18181b" d="M79.4 22.1L79.4 22.1Q78.4 22.1 77.6 21.8Q76.8 21.4 76.3 20.8Q75.8 20.2 75.8 19.3L75.8 19.3L77.4 19.3Q77.4 19.8 77.7 20.1Q77.9 20.4 78.4 20.6Q78.8 20.8 79.4 20.8L79.4 20.8Q80.0 20.8 80.4 20.6Q80.9 20.4 81.2 20.0Q81.4 19.6 81.4 19.1L81.4 19.1Q81.4 18.6 81.2 18.3Q80.9 17.9 80.4 17.6Q79.9 17.4 79.2 17.4L79.2 17.4L78.3 17.4L78.3 16.2L79.2 16.2Q79.8 16.2 80.2 16.0Q80.6 15.8 80.9 15.4Q81.1 15.0 81.1 14.5L81.1 14.5Q81.1 14.1 80.9 13.7Q80.7 13.4 80.3 13.2Q79.9 13.0 79.4 13.0L79.4 13.0Q78.9 13.0 78.5 13.2Q78.1 13.3 77.8 13.7Q77.5 14.0 77.5 14.5L77.5 14.5L76.0 14.5Q76.0 13.6 76.5 13.0Q77.0 12.4 77.7 12.0Q78.5 11.7 79.4 11.7L79.4 11.7Q80.4 11.7 81.1 12.1Q81.9 12.4 82.2 13.1Q82.6 13.7 82.6 14.5L82.6 14.5Q82.6 15.3 82.2 15.9Q81.7 16.5 80.9 16.7L80.9 16.7L80.9 16.8Q81.6 16.9 82.0 17.2Q82.5 17.5 82.8 18.1Q83.0 18.6 83.0 19.2L83.0 19.2Q83.0 20.0 82.5 20.7Q82.1 21.4 81.3 21.8Q80.4 22.1 79.4 22.1ZM86.7 11.8L88.5 11.8L88.5 22L86.9 22L86.9 13.2L86.8 13.2L84.4 15.0L84.4 13.4L86.7 11.8ZM91.7 22.1L91.7 22.1Q91.3 22.1 91.0 21.8Q90.7 21.5 90.7 21.1L90.7 21.1Q90.7 20.7 91.0 20.4Q91.3 20.1 91.7 20.1L91.7 20.1Q92.1 20.1 92.4 20.4Q92.7 20.7 92.7 21.1L92.7 21.1Q92.7 21.5 92.4 21.8Q92.1 22.1 91.7 22.1ZM98.0 22.1L98.0 22.1Q96.8 22.1 96.0 21.5Q95.1 20.9 94.7 19.7Q94.2 18.6 94.2 16.9L94.2 16.9Q94.2 15.3 94.7 14.1Q95.1 12.9 96.0 12.3Q96.8 11.7 98.0 11.7L98.0 11.7Q99.2 11.7 100.0 12.3Q100.8 12.9 101.3 14.1Q101.7 15.3 101.7 16.9L101.7 16.9Q101.7 18.6 101.3 19.7Q100.8 20.9 100.0 21.5Q99.2 22.1 98.0 22.1ZM98.0 20.8L98.0 20.8Q98.7 20.8 99.2 20.3Q99.7 19.9 99.9 19.0Q100.2 18.1 100.2 16.9L100.2 16.9Q100.2 15.7 99.9 14.8Q99.7 13.9 99.2 13.5Q98.7 13.0 98.0 13.0L98.0 13.0Q97.3 13.0 96.8 13.5Q96.3 13.9 96.0 14.8Q95.8 15.7 95.8 16.9L95.8 16.9Q95.8 18.1 96.0 19.0Q96.3 19.9 96.8 20.3Q97.3 20.8 98.0 20.8ZM106.3 18.1L104.9 19.4L104.9 17.6L105.1 17.6L108.2 14.4L110.0 14.4L106.5 18.1L106.3 18.1ZM105.0 22L103.5 22L103.5 11.8L105.0 11.8L105.0 22ZM110.2 22L108.3 22L105.6 18.4L106.6 17.3L110.2 22Z "/></g></svg>