<svg width="147" height="32" viewBox="0 0 147 32" xmlns="http://www.w3.org/2000/svg"><mask id="satori_om-id"><rect x="0" y="0" width="147" height="32" fill="#fff"/></mask><path x="0" y="0" width="147" height="32" fill="#2563eb" d="M6,0 h135 a6,6 0 0 1 6,6 v20 a6,6 0 0 1 -6,6 h-135 a6,6 0 0 1 -6,-6 v-20 a6,6 0 0 1 6,-6"/><clipPath id="satori_cp-id-1"><rect x="12" y="8" width="16" height="16"/></clipPath><mask id="satori_om-id-1"><rect x="12" y="8" width="16" height="16" fill="#fff"/></mask><image x="12" y="8" width="16" height="16" href="data:image/svg+xml;utf8,%3Csvg  xmlns=%22http://www.w3.org/2000/svg%22 width=%2216%22 height=%2216%22 viewBox=%220 0 24 24%22%3E%3Cpath fill=%22%233178C6%22 d=%22M1.125 0C.502 0 0 .502 0 1.125v21.75C0 23.498.502 24 1.125 24h21.75c.623 0 1.125-.502 1.125-1.125V1.125C24 .502 23.498 0 22.875 0zm17.363 9.75c.612 0 1.154.037 1.627.111a6.38 6.38 0 0 1 1.306.34v2.458a3.95 3.95 0 0 0-.643-.361 5.093 5.093 0 0 0-.717-.26 5.453 5.453 0 0 0-1.426-.2c-.3 0-.573.028-.819.086a2.1 2.1 0 0 0-.623.242c-.17.104-.3.229-.393.374a.888.888 0 0 0-.14.49c0 .196.053.373.156.529.104.156.252.304.443.444s.423.276.696.41c.273.135.582.274.926.416.47.197.892.407 1.266.628.374.222.695.473.963.753.268.279.472.598.614.957.142.359.214.776.214 1.253 0 .657-.125 1.21-.373 1.656a3.033 3.033 0 0 1-1.012 1.085 4.38 4.38 0 0 1-1.487.596c-.566.12-1.163.18-1.79.18a9.916 9.916 0 0 1-1.84-.164 5.544 5.544 0 0 1-1.512-.493v-2.63a5.033 5.033 0 0 0 3.237 1.2c.333 0 .624-.03.872-.09.249-.06.456-.144.623-.25.166-.108.29-.234.373-.38a1.023 1.023 0 0 0-.074-1.089 2.12 2.12 0 0 0-.537-.5 5.597 5.597 0 0 0-.807-.444 27.72 27.72 0 0 0-1.007-.436c-.918-.383-1.602-.852-2.053-1.405-.45-.553-.676-1.222-.676-2.005 0-.614.123-1.141.369-1.582.246-.441.58-.804 1.004-1.089a4.494 4.494 0 0 1 1.47-.629 7.536 7.536 0 0 1 1.77-.201zm-15.113.188h9.563v2.166H9.506v9.646H6.789v-9.646H3.375z%22 fill-rule=%22undefined%22%3E%3C/path%3E%3C/svg%3E" preserveAspectRatio="none" clip-path="url(#satori_cp-id-1)" mask="url(#satori_om-id-1)"/><mask id="satori_om-id-1-0"><rect x="12" y="8" width="0" height="16" fill="#fff"/></mask><mask id="satori_om-id-2"><rect x="28" y="16" width="6" height="0" fill="#fff"/></mask><mask id="satori_om-id-3"><rect x="34" y="8" width="80" height="17" fill="#fff"/></mask><mask id="satori_om-id-3-0"><rect x="34" y="8" width="74" height="17" fill="#fff"/></mask><g  ><path fill="rgba(255,255,255,0.7)" d="M37.8 13.2L34.6 13.2L34.6 11.8L42.5 11.8L42.5 13.2L39.4 13.2L39.4 22L37.8 22L37.8 13.2ZM44.0 24.7L44.0 24.7L44.4 23.5L44.6 23.6Q45.0 23.7 45.3 23.6Q45.6 23.6 45.8 23.3Q46.1 23.1 46.2 22.6L46.2 22.6L46.4 22.0L43.5 14.4L45.1 14.4L46.6 18.7Q46.8 19.4 47.0 20.1Q47.2 20.9 47.4 21.6L47.4 21.6L46.9 21.6Q47.1 20.9 47.3 20.1Q47.5 19.4 47.7 18.7L47.7 18.7L49.3 14.4L50.9 14.4L47.6 23.1Q47.3 23.7 47.0 24.1Q46.6 24.5 46.2 24.7Q45.7 24.9 45.1 24.9L45.1 24.9Q44.7 24.9 44.5 24.9Q44.2 24.8 44.0 24.7ZM53.7 24.9L52.2 24.9L52.2 14.4L53.7 14.4L53.7 15.6L53.8 15.6Q53.9 15.4 54.2 15.0Q54.4 14.7 54.8 14.5Q55.3 14.3 56.0 14.3L56.0 14.3Q56.9 14.3 57.6 14.7Q58.4 15.2 58.8 16.1Q59.2 17.0 59.2 18.2L59.2 18.2Q59.2 19.4 58.8 20.3Q58.4 21.2 57.6 21.7Q56.9 22.2 56.0 22.2L56.0 22.2Q55.3 22.2 54.9 21.9Q54.4 21.7 54.2 21.4Q53.9 21.0 53.8 20.8L53.8 20.8L53.7 20.8L53.7 24.9ZM55.7 20.9L55.7 20.9Q56.3 20.9 56.8 20.5Q57.2 20.2 57.4 19.6Q57.7 18.9 57.7 18.2L57.7 18.2Q57.7 17.4 57.4 16.8Q57.2 16.2 56.8 15.9Q56.3 15.5 55.7 15.5L55.7 15.5Q55.0 15.5 54.6 15.9Q54.1 16.2 53.9 16.8Q53.7 17.4 53.7 18.2L53.7 18.2Q53.7 19.0 53.9 19.6Q54.1 20.2 54.6 20.5Q55.0 20.9 55.7 20.9ZM64.2 22.2L64.2 22.2Q63.0 22.2 62.2 21.7Q61.4 21.2 60.9 20.3Q60.5 19.4 60.5 18.2L60.5 18.2Q60.5 17.1 60.9 16.2Q61.4 15.3 62.2 14.8Q63.0 14.3 64.0 14.3L64.0 14.3Q64.7 14.3 65.3 14.5Q65.9 14.7 66.4 15.2Q66.9 15.6 67.2 16.3Q67.4 17.1 67.4 18.1L67.4 18.1L67.4 18.6L61.3 18.6L61.3 17.5L66.7 17.5L66.0 17.9Q66.0 17.2 65.7 16.6Q65.5 16.1 65.1 15.8Q64.7 15.5 64.0 15.5L64.0 15.5Q63.4 15.5 62.9 15.8Q62.5 16.1 62.2 16.6Q62.0 17.1 62.0 17.7L62.0 17.7L62.0 18.5Q62.0 19.3 62.3 19.8Q62.6 20.4 63.0 20.6Q63.5 20.9 64.2 20.9L64.2 20.9Q64.6 20.9 64.9 20.8Q65.3 20.7 65.5 20.4Q65.8 20.2 65.9 19.8L65.9 19.8L67.3 20.2Q67.1 20.8 66.7 21.2Q66.3 21.7 65.6 21.9Q65.0 22.2 64.2 22.2ZM72.6 22.2L72.6 22.2Q71.5 22.2 70.6 21.8Q69.8 21.4 69.3 20.8Q68.8 20.1 68.8 19.2L68.8 19.2L70.4 19.2Q70.4 19.7 70.7 20.1Q71.0 20.4 71.5 20.6Q72.0 20.8 72.6 20.8L72.6 20.8Q73.3 20.8 73.8 20.6Q74.3 20.4 74.6 20.0Q74.9 19.7 74.9 19.2L74.9 19.2Q74.9 18.7 74.6 18.4Q74.3 18.2 73.9 18.0Q73.5 17.8 72.9 17.6L72.9 17.6L71.7 17.3Q70.5 17.0 69.8 16.3Q69.1 15.7 69.1 14.6L69.1 14.6Q69.1 13.7 69.6 13.1Q70.0 12.4 70.8 12.0Q71.7 11.7 72.7 11.7L72.7 11.7Q73.7 11.7 74.5 12.0Q75.3 12.4 75.8 13.0Q76.2 13.7 76.3 14.5L76.3 14.5L74.7 14.5Q74.7 13.8 74.1 13.4Q73.5 13.0 72.7 13.0L72.7 13.0Q72.0 13.0 71.6 13.2Q71.1 13.4 70.9 13.8Q70.6 14.1 70.6 14.5L70.6 14.5Q70.6 15.0 70.9 15.3Q71.2 15.6 71.6 15.8Q72.1 16.0 72.5 16.1L72.5 16.1L73.5 16.3Q73.9 16.4 74.5 16.6Q75.0 16.9 75.4 17.2Q75.8 17.5 76.1 18.0Q76.4 18.5 76.4 19.2L76.4 19.2Q76.4 20.0 75.9 20.7Q75.5 21.4 74.7 21.8Q73.8 22.2 72.6 22.2ZM81.3 22.2L81.3 22.2Q80.3 22.2 79.5 21.7Q78.7 21.2 78.2 20.3Q77.8 19.4 77.8 18.2L77.8 18.2Q77.8 17.0 78.2 16.1Q78.7 15.2 79.5 14.8Q80.3 14.3 81.3 14.3L81.3 14.3Q81.9 14.3 82.5 14.4Q83.0 14.6 83.4 14.9Q83.8 15.2 84.1 15.6Q84.4 16.0 84.5 16.5L84.5 16.5L83.1 16.9Q83.0 16.6 82.9 16.3Q82.7 16.1 82.5 15.9Q82.3 15.7 82.0 15.6Q81.7 15.5 81.3 15.5L81.3 15.5Q80.7 15.5 80.2 15.9Q79.7 16.3 79.5 16.9Q79.3 17.5 79.3 18.2L79.3 18.2Q79.3 19.0 79.5 19.6Q79.7 20.2 80.2 20.5Q80.7 20.9 81.3 20.9L81.3 20.9Q81.7 20.9 82.0 20.8Q82.3 20.7 82.5 20.5Q82.8 20.3 82.9 20.1Q83.1 19.8 83.1 19.5L83.1 19.5L84.6 19.8Q84.4 20.4 84.1 20.8Q83.8 21.2 83.4 21.5Q83.0 21.8 82.5 22Q81.9 22.2 81.3 22.2ZM87.7 22L86.2 22L86.2 14.4L87.7 14.4L87.7 15.6L87.7 15.6Q88.0 15.0 88.5 14.6Q89.0 14.2 89.7 14.2L89.7 14.2Q89.8 14.2 90.0 14.3Q90.2 14.3 90.3 14.3L90.3 14.3L90.3 15.7Q90.2 15.7 90 15.7Q89.8 15.6 89.5 15.6L89.5 15.6Q89.0 15.6 88.6 15.9Q88.2 16.1 87.9 16.5Q87.7 16.9 87.7 17.4L87.7 17.4L87.7 22ZM93.1 22L91.6 22L91.6 14.4L93.1 14.4L93.1 22ZM92.4 13.2L92.4 13.2Q92.0 13.2 91.7 12.9Q91.4 12.7 91.4 12.3L91.4 12.3Q91.4 11.9 91.7 11.7Q92.0 11.4 92.4 11.4L92.4 11.4Q92.8 11.4 93.0 11.7Q93.3 11.9 93.3 12.3L93.3 12.3Q93.3 12.7 93.0 12.9Q92.8 13.2 92.4 13.2ZM96.7 24.9L95.1 24.9L95.1 14.4L96.6 14.4L96.6 15.6L96.7 15.6Q96.9 15.4 97.1 15.0Q97.4 14.7 97.8 14.5Q98.2 14.3 98.9 14.3L98.9 14.3Q99.9 14.3 100.6 14.7Q101.3 15.2 101.7 16.1Q102.1 17.0 102.1 18.2L102.1 18.2Q102.1 19.4 101.7 20.3Q101.3 21.2 100.6 21.7Q99.9 22.2 98.9 22.2L98.9 22.2Q98.3 22.2 97.8 21.9Q97.4 21.7 97.1 21.4Q96.9 21.0 96.7 20.8L96.7 20.8L96.7 20.8L96.7 24.9ZM98.6 20.9L98.6 20.9Q99.3 20.9 99.7 20.5Q100.2 20.2 100.4 19.6Q100.6 18.9 100.6 18.2L100.6 18.2Q100.6 17.4 100.4 16.8Q100.2 16.2 99.7 15.9Q99.3 15.5 98.6 15.5L98.6 15.5Q98.0 15.5 97.5 15.9Q97.1 16.2 96.8 16.8Q96.6 17.4 96.6 18.2L96.6 18.2Q96.6 19.0 96.9 19.6Q97.1 20.2 97.5 20.5Q98.0 20.9 98.6 20.9ZM102.9 14.4L107.1 14.4L107.1 15.6L102.9 15.6L102.9 14.4ZM104.0 20.1L104.0 12.5L105.5 12.5L105.5 19.9Q105.5 20.4 105.7 20.6Q105.9 20.8 106.4 20.8L106.4 20.8Q106.5 20.8 106.7 20.8Q106.9 20.8 107.0 20.7L107.0 20.7L107.3 21.9Q107.0 22.0 106.8 22.1Q106.5 22.1 106.2 22.1L106.2 22.1Q105.2 22.1 104.6 21.6Q104.0 21.0 104.0 20.1L104.0 20.1Z "/></g><mask id="satori_om-id-3-1"><rect x="108" y="8" width="6" height="17" fill="#fff"/></mask><mask id="satori_om-id-4"><rect x="114" y="8" width="21" height="17" fill="#fff"/></mask><g  ><path fill="#ffffff" d="M118.1 22.1L118.1 22.1Q117.2 22.1 116.5 21.8Q115.7 21.4 115.3 20.8Q114.8 20.1 114.8 19.3L114.8 19.3L116.3 19.3Q116.3 19.8 116.6 20.1Q116.9 20.4 117.3 20.6Q117.7 20.8 118.1 20.8L118.1 20.8Q118.7 20.8 119.2 20.6Q119.6 20.3 119.9 19.8Q120.1 19.3 120.1 18.7L120.1 18.7Q120.1 18.1 119.9 17.6Q119.6 17.1 119.1 16.9Q118.7 16.6 118.1 16.6L118.1 16.6Q117.6 16.6 117.2 16.8Q116.7 16.9 116.4 17.2L116.4 17.2L115.0 17.0L115.5 11.8L121.2 11.8L121.2 13.1L116.8 13.1L116.5 16.0L116.6 16.0Q116.9 15.7 117.4 15.5Q117.9 15.3 118.4 15.3L118.4 15.3Q119.1 15.3 119.7 15.6Q120.3 15.8 120.8 16.3Q121.2 16.7 121.4 17.3Q121.7 18.0 121.7 18.7L121.7 18.7Q121.7 19.7 121.2 20.5Q120.8 21.2 120.0 21.7Q119.2 22.1 118.1 22.1ZM124.2 22.1L124.2 22.1Q123.8 22.1 123.5 21.8Q123.2 21.5 123.2 21.1L123.2 21.1Q123.2 20.7 123.5 20.4Q123.8 20.1 124.2 20.1L124.2 20.1Q124.6 20.1 124.9 20.4Q125.2 20.7 125.2 21.1L125.2 21.1Q125.2 21.5 124.9 21.8Q124.6 22.1 124.2 22.1ZM129.0 22L127.4 22L131.8 13.2L131.8 13.1L126.7 13.1L126.7 11.8L133.5 11.8L133.5 13.2L129.0 22Z "/></g></svg>