<svg width="131" height="32" viewBox="0 0 131 32" xmlns="http://www.w3.org/2000/svg"><mask id="satori_om-id"><rect x="0" y="0" width="131" height="32" fill="#fff"/></mask><path x="0" y="0" width="131" height="32" fill="#fafafa" d="M6,0 h119 a6,6 0 0 1 6,6 v20 a6,6 0 0 1 -6,6 h-119 a6,6 0 0 1 -6,-6 v-20 a6,6 0 0 1 6,-6"/><clipPath id="satori_cp-id-1"><rect x="12" y="8" width="16" height="16"/></clipPath><mask id="satori_om-id-1"><rect x="12" y="8" width="16" height="16" fill="#fff"/></mask><image x="12" y="8" width="16" height="16" href="data:image/svg+xml;utf8,%3Csvg  xmlns=%22http://www.w3.org/2000/svg%22 width=%2216%22 height=%2216%22 viewBox=%220 0 24 24%22%3E%3Cpath fill=%22rgba(24,24,27,0.85)%22 d=%22M1.763 0C.786 0 0 .786 0 1.763v20.474C0 23.214.786 24 1.763 24h20.474c.977 0 1.763-.786 1.763-1.763V1.763C24 .786 23.214 0 22.237 0zM5.13 5.323l13.837.019-.009 13.836h-3.464l.01-10.382h-3.456L12.04 19.17H5.113z%22 fill-rule=%22undefined%22%3E%3C/path%3E%3C/svg%3E" preserveAspectRatio="none" clip-path="url(#satori_cp-id-1)" mask="url(#satori_om-id-1)"/><mask id="satori_om-id-1-0"><rect x="12" y="8" width="0" height="16" fill="#fff"/></mask><mask id="satori_om-id-2"><rect x="28" y="16" width="6" height="0" fill="#fff"/></mask><mask id="satori_om-id-3"><rect x="34" y="8" width="36" height="17" fill="#fff"/></mask><mask id="satori_om-id-3-0"><rect x="34" y="8" width="30" height="17" fill="#fff"/></mask><g  ><path fill="rgba(24,24,27,0.7)" d="M36.5 17.5L36.5 17.5L36.5 22L35.0 22L35.0 14.4L36.4 14.4L36.5 16.2L36.3 16.2Q36.6 15.2 37.3 14.7Q37.9 14.3 38.8 14.3L38.8 14.3Q39.6 14.3 40.2 14.6Q40.8 14.9 41.1 15.6Q41.4 16.2 41.4 17.1L41.4 17.1L41.4 22L39.9 22L39.9 17.3Q39.9 16.5 39.5 16.0Q39.0 15.6 38.3 15.6L38.3 15.6Q37.8 15.6 37.4 15.8Q37.0 16.0 36.7 16.4Q36.5 16.9 36.5 17.5ZM44.9 24.9L43.4 24.9L43.4 14.4L44.9 14.4L44.9 15.6L45.0 15.6Q45.2 15.4 45.4 15.0Q45.6 14.7 46.1 14.5Q46.5 14.3 47.2 14.3L47.2 14.3Q48.1 14.3 48.9 14.7Q49.6 15.2 50.0 16.1Q50.4 17.0 50.4 18.2L50.4 18.2Q50.4 19.4 50.0 20.3Q49.6 21.2 48.9 21.7Q48.2 22.2 47.2 22.2L47.2 22.2Q46.5 22.2 46.1 21.9Q45.7 21.7 45.4 21.4Q45.2 21.0 45.0 20.8L45.0 20.8L44.9 20.8L44.9 24.9ZM46.9 20.9L46.9 20.9Q47.5 20.9 48.0 20.5Q48.4 20.2 48.7 19.6Q48.9 18.9 48.9 18.2L48.9 18.2Q48.9 17.4 48.7 16.8Q48.4 16.2 48.0 15.9Q47.6 15.5 46.9 15.5L46.9 15.5Q46.3 15.5 45.8 15.9Q45.4 16.2 45.1 16.8Q44.9 17.4 44.9 18.2L44.9 18.2Q44.9 19.0 45.1 19.6Q45.4 20.2 45.8 20.5Q46.3 20.9 46.9 20.9ZM53.6 22L52.1 22L52.1 14.4L53.5 14.4L53.6 16.1L53.4 16.1Q53.6 15.5 53.9 15.1Q54.3 14.6 54.7 14.4Q55.2 14.2 55.7 14.2L55.7 14.2Q56.5 14.2 57.1 14.7Q57.6 15.3 57.7 16.2L57.7 16.2L57.5 16.2Q57.7 15.6 58.1 15.1Q58.4 14.7 59.0 14.5Q59.5 14.2 60.1 14.2L60.1 14.2Q60.8 14.2 61.3 14.5Q61.9 14.8 62.2 15.4Q62.5 16.0 62.5 16.8L62.5 16.8L62.5 22L61.0 22L61.0 17.0Q61.0 16.2 60.6 15.9Q60.1 15.5 59.6 15.5L59.6 15.5Q59.1 15.5 58.7 15.7Q58.4 15.9 58.2 16.3Q58.0 16.6 58.0 17.1L58.0 17.1L58.0 22L56.6 22L56.6 16.9Q56.6 16.3 56.2 15.9Q55.8 15.5 55.2 15.5L55.2 15.5Q54.7 15.5 54.4 15.7Q54.0 15.9 53.8 16.3Q53.6 16.7 53.6 17.2L53.6 17.2L53.6 22Z "/></g><mask id="satori_om-id-3-1"><rect x="64" y="8" width="6" height="17" fill="#fff"/></mask><mask id="satori_om-id-4"><rect x="70" y="8" width="49" height="17" fill="#fff"/></mask><g  ><path fill="#18181b" d="M74.8 22L73.2 22L70.3 14.4L71.9 14.4L73.5 18.7Q73.7 19.4 73.9 20.1Q74.1 20.9 74.3 21.6L74.3 21.6L73.8 21.6Q74.0 20.9 74.2 20.1Q74.4 19.4 74.6 18.7L74.6 18.7L76.1 14.4L77.7 14.4L74.8 22ZM80.9 11.8L82.7 11.8L82.7 22L81.2 22L81.2 13.2L81.1 13.2L78.7 15.0L78.7 13.4L80.9 11.8ZM88.1 22.1L88.1 22.1Q87.1 22.1 86.4 21.8Q85.7 21.4 85.3 20.8Q84.8 20.1 84.7 19.3L84.7 19.3L86.3 19.3Q86.4 20.0 86.9 20.4Q87.3 20.8 88.1 20.8L88.1 20.8Q88.8 20.8 89.3 20.3Q89.9 19.9 90.1 19.1Q90.4 18.3 90.4 17.1L90.4 17.1L90.3 17.1Q90.1 17.5 89.7 17.8Q89.3 18.1 88.8 18.3Q88.4 18.5 87.8 18.5L87.8 18.5Q86.9 18.5 86.2 18.0Q85.5 17.6 85.1 16.9Q84.6 16.1 84.6 15.1L84.6 15.1Q84.6 14.2 85.1 13.4Q85.5 12.6 86.3 12.1Q87.1 11.7 88.2 11.7L88.2 11.7Q88.9 11.7 89.5 11.9Q90.2 12.2 90.7 12.7Q91.3 13.3 91.6 14.2Q91.9 15.2 91.9 16.6L91.9 16.6Q91.9 17.9 91.6 18.9Q91.4 20.0 90.9 20.7Q90.4 21.4 89.7 21.8Q88.9 22.1 88.1 22.1ZM88.1 17.2L88.1 17.2Q88.6 17.2 89.0 17.0Q89.3 16.9 89.6 16.6Q89.9 16.3 90.1 15.9Q90.2 15.5 90.2 15.1L90.2 15.1Q90.2 14.5 90.0 14.1Q89.7 13.6 89.2 13.3Q88.8 13.0 88.2 13.0L88.2 13.0Q87.6 13.0 87.1 13.3Q86.7 13.6 86.4 14.0Q86.2 14.5 86.2 15.1L86.2 15.1Q86.2 15.7 86.4 16.2Q86.7 16.6 87.1 16.9Q87.6 17.2 88.1 17.2ZM94.4 22.1L94.4 22.1Q94.0 22.1 93.7 21.8Q93.4 21.5 93.4 21.1L93.4 21.1Q93.4 20.7 93.7 20.4Q94.0 20.1 94.4 20.1L94.4 20.1Q94.8 20.1 95.1 20.4Q95.4 20.7 95.4 21.1L95.4 21.1Q95.4 21.5 95.1 21.8Q94.8 22.1 94.4 22.1ZM104.3 22L97.5 22L97.5 20.9L101.0 17.3Q101.5 16.7 101.9 16.3Q102.2 15.9 102.4 15.5Q102.6 15.1 102.6 14.6L102.6 14.6Q102.6 14.1 102.4 13.7Q102.1 13.4 101.7 13.2Q101.3 13.0 100.8 13.0L100.8 13.0Q100.3 13.0 99.9 13.2Q99.4 13.4 99.2 13.8Q99.0 14.2 99.0 14.8L99.0 14.8L97.5 14.8Q97.5 13.9 97.9 13.2Q98.4 12.5 99.1 12.1Q99.9 11.7 100.8 11.7L100.8 11.7Q101.8 11.7 102.5 12.1Q103.3 12.4 103.7 13.1Q104.1 13.7 104.1 14.6L104.1 14.6Q104.1 15.1 103.9 15.7Q103.7 16.2 103.2 16.9Q102.6 17.5 101.7 18.5L101.7 18.5L99.7 20.6L99.7 20.7L104.3 20.7L104.3 22ZM107.3 22.1L107.3 22.1Q106.9 22.1 106.6 21.8Q106.3 21.5 106.3 21.1L106.3 21.1Q106.3 20.7 106.6 20.4Q106.9 20.1 107.3 20.1L107.3 20.1Q107.7 20.1 108.0 20.4Q108.3 20.7 108.3 21.1L108.3 21.1Q108.3 21.5 108.0 21.8Q107.7 22.1 107.3 22.1ZM113.4 22.1L113.4 22.1Q112.5 22.1 111.7 21.8Q111.0 21.4 110.5 20.8Q110.1 20.1 110.0 19.3L110.0 19.3L111.6 19.3Q111.6 19.8 111.8 20.1Q112.1 20.4 112.5 20.6Q112.9 20.8 113.4 20.8L113.4 20.8Q114.0 20.8 114.4 20.6Q114.9 20.3 115.1 19.8Q115.4 19.3 115.4 18.7L115.4 18.7Q115.4 18.1 115.1 17.6Q114.9 17.1 114.4 16.9Q113.9 16.6 113.3 16.6L113.3 16.6Q112.9 16.6 112.4 16.8Q111.9 16.9 111.7 17.2L111.7 17.2L110.2 17.0L110.8 11.8L116.4 11.8L116.4 13.1L112.1 13.1L111.8 16.0L111.8 16.0Q112.1 15.7 112.6 15.5Q113.1 15.3 113.7 15.3L113.7 15.3Q114.4 15.3 115.0 15.6Q115.6 15.8 116.0 16.3Q116.4 16.7 116.7 17.3Q116.9 18.0 116.9 18.7L116.9 18.7Q116.9 19.7 116.5 20.5Q116.0 21.2 115.2 21.7Q114.4 22.1 113.4 22.1Z "/></g></svg>