<svg width="143" height="36" viewBox="0 0 143 36" xmlns="http://www.w3.org/2000/svg"><mask id="satori_om-id"><rect x="0" y="0" width="143" height="36" fill="#fff"/></mask><path x="0" y="0" width="143" height="36" fill="#fafafa" d="M6,0 h131 a6,6 0 0 1 6,6 v24 a6,6 0 0 1 -6,6 h-131 a6,6 0 0 1 -6,-6 v-24 a6,6 0 0 1 6,-6"/><clipPath id="satori_cp-id-1"><rect x="16" y="10" width="16" height="16"/></clipPath><mask id="satori_om-id-1"><rect x="16" y="10" width="16" height="16" fill="#fff"/></mask><image x="16" y="10" width="16" height="16" href="data:image/svg+xml;utf8,%3Csvg  xmlns=%22http://www.w3.org/2000/svg%22 width=%2216%22 height=%2216%22 viewBox=%220 0 24 24%22%3E%3Cpath fill=%22rgba(24,24,27,0.85)%22 d=%22M1.763 0C.786 0 0 .786 0 1.763v20.474C0 23.214.786 24 1.763 24h20.474c.977 0 1.763-.786 1.763-1.763V1.763C24 .786 23.214 0 22.237 0zM5.13 5.323l13.837.019-.009 13.836h-3.464l.01-10.382h-3.456L12.04 19.17H5.113z%22 fill-rule=%22undefined%22%3E%3C/path%3E%3C/svg%3E" preserveAspectRatio="none" clip-path="url(#satori_cp-id-1)" mask="url(#satori_om-id-1)"/><mask id="satori_om-id-1-0"><rect x="16" y="10" width="0" height="16" fill="#fff"/></mask><mask id="satori_om-id-2"><rect x="32" y="18" width="8" height="0" fill="#fff"/></mask><mask id="satori_om-id-3"><rect x="40" y="10" width="38" height="17" fill="#fff"/></mask><mask id="satori_om-id-3-0"><rect x="40" y="10" width="30" height="17" fill="#fff"/></mask><g  ><path fill="rgba(24,24,27,0.7)" d="M42.5 19.5L42.5 19.5L42.5 24L41.0 24L41.0 16.4L42.4 16.4L42.5 18.2L42.3 18.2Q42.6 17.2 43.3 16.7Q43.9 16.3 44.8 16.3L44.8 16.3Q45.6 16.3 46.2 16.6Q46.8 16.9 47.1 17.6Q47.4 18.2 47.4 19.1L47.4 19.1L47.4 24L45.9 24L45.9 19.3Q45.9 18.5 45.5 18.0Q45.0 17.6 44.3 17.6L44.3 17.6Q43.8 17.6 43.4 17.8Q43.0 18.0 42.7 18.4Q42.5 18.9 42.5 19.5ZM50.9 26.9L49.4 26.9L49.4 16.4L50.9 16.4L50.9 17.6L51.0 17.6Q51.2 17.4 51.4 17.0Q51.6 16.7 52.1 16.5Q52.5 16.3 53.2 16.3L53.2 16.3Q54.1 16.3 54.9 16.7Q55.6 17.2 56.0 18.1Q56.4 19.0 56.4 20.2L56.4 20.2Q56.4 21.4 56.0 22.3Q55.6 23.2 54.9 23.7Q54.2 24.2 53.2 24.2L53.2 24.2Q52.5 24.2 52.1 23.9Q51.7 23.7 51.4 23.4Q51.2 23.0 51.0 22.8L51.0 22.8L50.9 22.8L50.9 26.9ZM52.9 22.9L52.9 22.9Q53.5 22.9 54.0 22.5Q54.4 22.2 54.7 21.6Q54.9 20.9 54.9 20.2L54.9 20.2Q54.9 19.4 54.7 18.8Q54.4 18.2 54.0 17.9Q53.6 17.5 52.9 17.5L52.9 17.5Q52.3 17.5 51.8 17.9Q51.4 18.2 51.1 18.8Q50.9 19.4 50.9 20.2L50.9 20.2Q50.9 21.0 51.1 21.6Q51.4 22.2 51.8 22.5Q52.3 22.9 52.9 22.9ZM59.6 24L58.1 24L58.1 16.4L59.5 16.4L59.6 18.1L59.4 18.1Q59.6 17.5 59.9 17.1Q60.3 16.6 60.7 16.4Q61.2 16.2 61.7 16.2L61.7 16.2Q62.5 16.2 63.1 16.7Q63.6 17.3 63.7 18.2L63.7 18.2L63.5 18.2Q63.7 17.6 64.1 17.1Q64.4 16.7 65.0 16.5Q65.5 16.2 66.1 16.2L66.1 16.2Q66.8 16.2 67.3 16.5Q67.9 16.8 68.2 17.4Q68.5 18.0 68.5 18.8L68.5 18.8L68.5 24L67.0 24L67.0 19.0Q67.0 18.2 66.6 17.9Q66.1 17.5 65.6 17.5L65.6 17.5Q65.1 17.5 64.7 17.7Q64.4 17.9 64.2 18.3Q64.0 18.6 64.0 19.1L64.0 19.1L64.0 24L62.6 24L62.6 18.9Q62.6 18.3 62.2 17.9Q61.8 17.5 61.2 17.5L61.2 17.5Q60.7 17.5 60.4 17.7Q60.0 17.9 59.8 18.3Q59.6 18.7 59.6 19.2L59.6 19.2L59.6 24Z "/></g><mask id="satori_om-id-3-1"><rect x="70" y="10" width="8" height="17" fill="#fff"/></mask><mask id="satori_om-id-4"><rect x="78" y="10" width="49" height="17" fill="#fff"/></mask><g  ><path fill="#18181b" d="M82.8 24L81.2 24L78.3 16.4L79.9 16.4L81.5 20.7Q81.7 21.4 81.9 22.1Q82.1 22.9 82.3 23.6L82.3 23.6L81.8 23.6Q82.0 22.9 82.2 22.1Q82.4 21.4 82.6 20.7L82.6 20.7L84.1 16.4L85.7 16.4L82.8 24ZM88.9 13.8L90.7 13.8L90.7 24L89.2 24L89.2 15.2L89.1 15.2L86.7 17.0L86.7 15.4L88.9 13.8ZM96.1 24.1L96.1 24.1Q95.1 24.1 94.4 23.8Q93.7 23.4 93.3 22.8Q92.8 22.1 92.7 21.3L92.7 21.3L94.3 21.3Q94.4 22.0 94.9 22.4Q95.3 22.8 96.1 22.8L96.1 22.8Q96.8 22.8 97.3 22.3Q97.9 21.9 98.1 21.1Q98.4 20.3 98.4 19.1L98.4 19.1L98.3 19.1Q98.1 19.5 97.7 19.8Q97.3 20.1 96.8 20.3Q96.4 20.5 95.8 20.5L95.8 20.5Q94.9 20.5 94.2 20.0Q93.5 19.6 93.1 18.9Q92.6 18.1 92.6 17.1L92.6 17.1Q92.6 16.2 93.1 15.4Q93.5 14.6 94.3 14.1Q95.1 13.7 96.2 13.7L96.2 13.7Q96.9 13.7 97.5 13.9Q98.2 14.2 98.7 14.7Q99.3 15.3 99.6 16.2Q99.9 17.2 99.9 18.6L99.9 18.6Q99.9 19.9 99.6 20.9Q99.4 22.0 98.9 22.7Q98.4 23.4 97.7 23.8Q96.9 24.1 96.1 24.1ZM96.1 19.2L96.1 19.2Q96.6 19.2 97.0 19.0Q97.3 18.9 97.6 18.6Q97.9 18.3 98.1 17.9Q98.2 17.5 98.2 17.1L98.2 17.1Q98.2 16.5 98.0 16.1Q97.7 15.6 97.2 15.3Q96.8 15.0 96.2 15.0L96.2 15.0Q95.6 15.0 95.1 15.3Q94.7 15.6 94.4 16.0Q94.2 16.5 94.2 17.1L94.2 17.1Q94.2 17.7 94.4 18.2Q94.7 18.6 95.1 18.9Q95.6 19.2 96.1 19.2ZM102.4 24.1L102.4 24.1Q102.0 24.1 101.7 23.8Q101.4 23.5 101.4 23.1L101.4 23.1Q101.4 22.7 101.7 22.4Q102.0 22.1 102.4 22.1L102.4 22.1Q102.8 22.1 103.1 22.4Q103.4 22.7 103.4 23.1L103.4 23.1Q103.4 23.5 103.1 23.8Q102.8 24.1 102.4 24.1ZM112.3 24L105.5 24L105.5 22.9L109.0 19.3Q109.5 18.7 109.9 18.3Q110.2 17.9 110.4 17.5Q110.6 17.1 110.6 16.6L110.6 16.6Q110.6 16.1 110.4 15.7Q110.1 15.4 109.7 15.2Q109.3 15.0 108.8 15.0L108.8 15.0Q108.3 15.0 107.9 15.2Q107.4 15.4 107.2 15.8Q107.0 16.2 107.0 16.8L107.0 16.8L105.5 16.8Q105.5 15.9 105.9 15.2Q106.4 14.5 107.1 14.1Q107.9 13.7 108.8 13.7L108.8 13.7Q109.8 13.7 110.5 14.1Q111.3 14.4 111.7 15.1Q112.1 15.7 112.1 16.6L112.1 16.6Q112.1 17.1 111.9 17.7Q111.7 18.2 111.2 18.9Q110.6 19.5 109.7 20.5L109.7 20.5L107.7 22.6L107.7 22.7L112.3 22.7L112.3 24ZM115.3 24.1L115.3 24.1Q114.9 24.1 114.6 23.8Q114.3 23.5 114.3 23.1L114.3 23.1Q114.3 22.7 114.6 22.4Q114.9 22.1 115.3 22.1L115.3 22.1Q115.7 22.1 116.0 22.4Q116.3 22.7 116.3 23.1L116.3 23.1Q116.3 23.5 116.0 23.8Q115.7 24.1 115.3 24.1ZM121.4 24.1L121.4 24.1Q120.5 24.1 119.7 23.8Q119.0 23.4 118.5 22.8Q118.1 22.1 118.0 21.3L118.0 21.3L119.6 21.3Q119.6 21.8 119.8 22.1Q120.1 22.4 120.5 22.6Q120.9 22.8 121.4 22.8L121.4 22.8Q122.0 22.8 122.4 22.6Q122.9 22.3 123.1 21.8Q123.4 21.3 123.4 20.7L123.4 20.7Q123.4 20.1 123.1 19.6Q122.9 19.1 122.4 18.9Q121.9 18.6 121.3 18.6L121.3 18.6Q120.9 18.6 120.4 18.8Q119.9 18.9 119.7 19.2L119.7 19.2L118.2 19.0L118.8 13.8L124.4 13.8L124.4 15.1L120.1 15.1L119.8 18.0L119.8 18.0Q120.1 17.7 120.6 17.5Q121.1 17.3 121.7 17.3L121.7 17.3Q122.4 17.3 123.0 17.6Q123.6 17.8 124.0 18.3Q124.4 18.7 124.7 19.3Q124.9 20.0 124.9 20.7L124.9 20.7Q124.9 21.7 124.5 22.5Q124.0 23.2 123.2 23.7Q122.4 24.1 121.4 24.1Z "/></g></svg>