<svg width="159" height="40" viewBox="0 0 159 40" xmlns="http://www.w3.org/2000/svg"><mask id="satori_om-id"><rect x="0" y="0" width="159" height="40" fill="#fff"/></mask><path x="0" y="0" width="159" height="40" fill="#fafafa" d="M6,0 h147 a6,6 0 0 1 6,6 v28 a6,6 0 0 1 -6,6 h-147 a6,6 0 0 1 -6,-6 v-28 a6,6 0 0 1 6,-6"/><clipPath id="satori_cp-id-1"><rect x="24" y="12" width="16" height="16"/></clipPath><mask id="satori_om-id-1"><rect x="24" y="12" width="16" height="16" fill="#fff"/></mask><image x="24" y="12" width="16" height="16" href="data:image/svg+xml;utf8,%3Csvg  xmlns=%22http://www.w3.org/2000/svg%22 width=%2216%22 height=%2216%22 viewBox=%220 0 24 24%22%3E%3Cpath fill=%22rgba(24,24,27,0.85)%22 d=%22M1.763 0C.786 0 0 .786 0 1.763v20.474C0 23.214.786 24 1.763 24h20.474c.977 0 1.763-.786 1.763-1.763V1.763C24 .786 23.214 0 22.237 0zM5.13 5.323l13.837.019-.009 13.836h-3.464l.01-10.382h-3.456L12.04 19.17H5.113z%22 fill-rule=%22undefined%22%3E%3C/path%3E%3C/svg%3E" preserveAspectRatio="none" clip-path="url(#satori_cp-id-1)" mask="url(#satori_om-id-1)"/><mask id="satori_om-id-1-0"><rect x="24" y="12" width="0" height="16" fill="#fff"/></mask><mask id="satori_om-id-2"><rect x="40" y="20" width="8" height="0" fill="#fff"/></mask><mask id="satori_om-id-3"><rect x="48" y="12" width="38" height="17" fill="#fff"/></mask><mask id="satori_om-id-3-0"><rect x="48" y="12" width="30" height="17" fill="#fff"/></mask><g  ><path fill="rgba(24,24,27,0.7)" d="M50.5 21.5L50.5 21.5L50.5 26L49.0 26L49.0 18.4L50.4 18.4L50.5 20.2L50.3 20.2Q50.6 19.2 51.3 18.7Q51.9 18.3 52.8 18.3L52.8 18.3Q53.6 18.3 54.2 18.6Q54.8 18.9 55.1 19.6Q55.4 20.2 55.4 21.1L55.4 21.1L55.4 26L53.9 26L53.9 21.3Q53.9 20.5 53.5 20.0Q53.0 19.6 52.3 19.6L52.3 19.6Q51.8 19.6 51.4 19.8Q51.0 20.0 50.7 20.4Q50.5 20.9 50.5 21.5ZM58.9 28.9L57.4 28.9L57.4 18.4L58.9 18.4L58.9 19.6L59.0 19.6Q59.2 19.4 59.4 19.0Q59.6 18.7 60.1 18.5Q60.5 18.3 61.2 18.3L61.2 18.3Q62.1 18.3 62.9 18.7Q63.6 19.2 64.0 20.1Q64.4 21.0 64.4 22.2L64.4 22.2Q64.4 23.4 64.0 24.3Q63.6 25.2 62.9 25.7Q62.2 26.2 61.2 26.2L61.2 26.2Q60.5 26.2 60.1 25.9Q59.7 25.7 59.4 25.4Q59.2 25.0 59.0 24.8L59.0 24.8L58.9 24.8L58.9 28.9ZM60.9 24.9L60.9 24.9Q61.5 24.9 62.0 24.5Q62.4 24.2 62.7 23.6Q62.9 22.9 62.9 22.2L62.9 22.2Q62.9 21.4 62.7 20.8Q62.4 20.2 62.0 19.9Q61.6 19.5 60.9 19.5L60.9 19.5Q60.3 19.5 59.8 19.9Q59.4 20.2 59.1 20.8Q58.9 21.4 58.9 22.2L58.9 22.2Q58.9 23.0 59.1 23.6Q59.4 24.2 59.8 24.5Q60.3 24.9 60.9 24.9ZM67.6 26L66.1 26L66.1 18.4L67.5 18.4L67.6 20.1L67.4 20.1Q67.6 19.5 67.9 19.1Q68.3 18.6 68.7 18.4Q69.2 18.2 69.7 18.2L69.7 18.2Q70.5 18.2 71.1 18.7Q71.6 19.3 71.7 20.2L71.7 20.2L71.5 20.2Q71.7 19.6 72.1 19.1Q72.4 18.7 73.0 18.5Q73.5 18.2 74.1 18.2L74.1 18.2Q74.8 18.2 75.3 18.5Q75.9 18.8 76.2 19.4Q76.5 20.0 76.5 20.8L76.5 20.8L76.5 26L75.0 26L75.0 21.0Q75.0 20.2 74.6 19.9Q74.1 19.5 73.6 19.5L73.6 19.5Q73.1 19.5 72.7 19.7Q72.4 19.9 72.2 20.3Q72.0 20.6 72.0 21.1L72.0 21.1L72.0 26L70.6 26L70.6 20.9Q70.6 20.3 70.2 19.9Q69.8 19.5 69.2 19.5L69.2 19.5Q68.7 19.5 68.4 19.7Q68.0 19.9 67.8 20.3Q67.6 20.7 67.6 21.2L67.6 21.2L67.6 26Z "/></g><mask id="satori_om-id-3-1"><rect x="78" y="12" width="8" height="17" fill="#fff"/></mask><mask id="satori_om-id-4"><rect x="86" y="12" width="49" height="17" fill="#fff"/></mask><g  ><path fill="#18181b" d="M90.8 26L89.2 26L86.3 18.4L87.9 18.4L89.5 22.7Q89.7 23.4 89.9 24.1Q90.1 24.9 90.3 25.6L90.3 25.6L89.8 25.6Q90.0 24.9 90.2 24.1Q90.4 23.4 90.6 22.7L90.6 22.7L92.1 18.4L93.7 18.4L90.8 26ZM96.9 15.8L98.7 15.8L98.7 26L97.2 26L97.2 17.2L97.1 17.2L94.7 19.0L94.7 17.4L96.9 15.8ZM104.1 26.1L104.1 26.1Q103.1 26.1 102.4 25.8Q101.7 25.4 101.3 24.8Q100.8 24.1 100.7 23.3L100.7 23.3L102.3 23.3Q102.4 24.0 102.9 24.4Q103.3 24.8 104.1 24.8L104.1 24.8Q104.8 24.8 105.3 24.3Q105.9 23.9 106.1 23.1Q106.4 22.3 106.4 21.1L106.4 21.1L106.3 21.1Q106.1 21.5 105.7 21.8Q105.3 22.1 104.8 22.3Q104.4 22.5 103.8 22.5L103.8 22.5Q102.9 22.5 102.2 22.0Q101.5 21.6 101.1 20.9Q100.6 20.1 100.6 19.1L100.6 19.1Q100.6 18.2 101.1 17.4Q101.5 16.6 102.3 16.1Q103.1 15.7 104.2 15.7L104.2 15.7Q104.9 15.7 105.5 15.9Q106.2 16.2 106.7 16.7Q107.3 17.3 107.6 18.2Q107.9 19.2 107.9 20.6L107.9 20.6Q107.9 21.9 107.6 22.9Q107.4 24.0 106.9 24.7Q106.4 25.4 105.7 25.8Q104.9 26.1 104.1 26.1ZM104.1 21.2L104.1 21.2Q104.6 21.2 105.0 21.0Q105.3 20.9 105.6 20.6Q105.9 20.3 106.1 19.9Q106.2 19.5 106.2 19.1L106.2 19.1Q106.2 18.5 106.0 18.1Q105.7 17.6 105.2 17.3Q104.8 17.0 104.2 17.0L104.2 17.0Q103.6 17.0 103.1 17.3Q102.7 17.6 102.4 18.0Q102.2 18.5 102.2 19.1L102.2 19.1Q102.2 19.7 102.4 20.2Q102.7 20.6 103.1 20.9Q103.6 21.2 104.1 21.2ZM110.4 26.1L110.4 26.1Q110.0 26.1 109.7 25.8Q109.4 25.5 109.4 25.1L109.4 25.1Q109.4 24.7 109.7 24.4Q110.0 24.1 110.4 24.1L110.4 24.1Q110.8 24.1 111.1 24.4Q111.4 24.7 111.4 25.1L111.4 25.1Q111.4 25.5 111.1 25.8Q110.8 26.1 110.4 26.1ZM120.3 26L113.5 26L113.5 24.9L117.0 21.3Q117.5 20.7 117.9 20.3Q118.2 19.9 118.4 19.5Q118.6 19.1 118.6 18.6L118.6 18.6Q118.6 18.1 118.4 17.7Q118.1 17.4 117.7 17.2Q117.3 17.0 116.8 17.0L116.8 17.0Q116.3 17.0 115.9 17.2Q115.4 17.4 115.2 17.8Q115.0 18.2 115.0 18.8L115.0 18.8L113.5 18.8Q113.5 17.9 113.9 17.2Q114.4 16.5 115.1 16.1Q115.9 15.7 116.8 15.7L116.8 15.7Q117.8 15.7 118.5 16.1Q119.3 16.4 119.7 17.1Q120.1 17.7 120.1 18.6L120.1 18.6Q120.1 19.1 119.9 19.7Q119.7 20.2 119.2 20.9Q118.6 21.5 117.7 22.5L117.7 22.5L115.7 24.6L115.7 24.7L120.3 24.7L120.3 26ZM123.3 26.1L123.3 26.1Q122.9 26.1 122.6 25.8Q122.3 25.5 122.3 25.1L122.3 25.1Q122.3 24.7 122.6 24.4Q122.9 24.1 123.3 24.1L123.3 24.1Q123.7 24.1 124.0 24.4Q124.3 24.7 124.3 25.1L124.3 25.1Q124.3 25.5 124.0 25.8Q123.7 26.1 123.3 26.1ZM129.4 26.1L129.4 26.1Q128.5 26.1 127.7 25.8Q127.0 25.4 126.5 24.8Q126.1 24.1 126.0 23.3L126.0 23.3L127.6 23.3Q127.6 23.8 127.8 24.1Q128.1 24.4 128.5 24.6Q128.9 24.8 129.4 24.8L129.4 24.8Q130.0 24.8 130.4 24.6Q130.9 24.3 131.1 23.8Q131.4 23.3 131.4 22.7L131.4 22.7Q131.4 22.1 131.1 21.6Q130.9 21.1 130.4 20.9Q129.9 20.6 129.3 20.6L129.3 20.6Q128.9 20.6 128.4 20.8Q127.9 20.9 127.7 21.2L127.7 21.2L126.2 21.0L126.8 15.8L132.4 15.8L132.4 17.1L128.1 17.1L127.8 20.0L127.8 20.0Q128.1 19.7 128.6 19.5Q129.1 19.3 129.7 19.3L129.7 19.3Q130.4 19.3 131.0 19.6Q131.6 19.8 132.0 20.3Q132.4 20.7 132.7 21.3Q132.9 22.0 132.9 22.7L132.9 22.7Q132.9 23.7 132.5 24.5Q132.0 25.2 131.2 25.7Q130.4 26.1 129.4 26.1Z "/></g></svg>