<svg width="126" height="32" viewBox="0 0 126 32" xmlns="http://www.w3.org/2000/svg"><mask id="satori_om-id"><rect x="0" y="0" width="126" height="32" fill="#fff"/></mask><path x="0" y="0" width="126" height="32" fill="#2563eb" d="M6,0 h114 a6,6 0 0 1 6,6 v20 a6,6 0 0 1 -6,6 h-114 a6,6 0 0 1 -6,-6 v-20 a6,6 0 0 1 6,-6"/><mask id="satori_om-id-2"><rect x="12" y="8" width="70" height="17" fill="#fff"/></mask><mask id="satori_om-id-2-0"><rect x="12" y="8" width="64" height="17" fill="#fff"/></mask><g  ><path fill="rgba(255,255,255,0.7)" d="M16.2 22.2L16.2 22.2Q15.1 22.2 14.3 21.7Q13.5 21.2 13.1 20.3Q12.7 19.4 12.7 18.2L12.7 18.2Q12.7 17.0 13.1 16.1Q13.5 15.2 14.3 14.8Q15.1 14.3 16.2 14.3L16.2 14.3Q16.8 14.3 17.3 14.4Q17.9 14.6 18.3 14.9Q18.7 15.2 19.0 15.6Q19.3 16.0 19.4 16.5L19.4 16.5L18.0 16.9Q17.9 16.6 17.8 16.3Q17.6 16.1 17.4 15.9Q17.2 15.7 16.9 15.6Q16.6 15.5 16.2 15.5L16.2 15.5Q15.5 15.5 15.1 15.9Q14.6 16.3 14.4 16.9Q14.2 17.5 14.2 18.2L14.2 18.2Q14.2 19.0 14.4 19.6Q14.6 20.2 15.1 20.5Q15.5 20.9 16.2 20.9L16.2 20.9Q16.6 20.9 16.9 20.8Q17.2 20.7 17.4 20.5Q17.6 20.3 17.8 20.1Q18.0 19.8 18.0 19.5L18.0 19.5L19.4 19.8Q19.3 20.4 19.0 20.8Q18.7 21.2 18.3 21.5Q17.9 21.8 17.4 22Q16.8 22.2 16.2 22.2ZM24.3 22.2L24.3 22.2Q23.2 22.2 22.4 21.7Q21.6 21.2 21.2 20.3Q20.7 19.4 20.7 18.2L20.7 18.2Q20.7 17.0 21.2 16.1Q21.6 15.2 22.4 14.8Q23.2 14.3 24.3 14.3L24.3 14.3Q25.4 14.3 26.2 14.8Q27.0 15.2 27.4 16.1Q27.9 17.0 27.9 18.2L27.9 18.2Q27.9 19.4 27.4 20.3Q27.0 21.2 26.2 21.7Q25.4 22.2 24.3 22.2ZM24.3 20.9L24.3 20.9Q25.0 20.9 25.5 20.5Q25.9 20.2 26.1 19.5Q26.4 18.9 26.4 18.2L26.4 18.2Q26.4 17.5 26.1 16.9Q25.9 16.3 25.5 15.9Q25.0 15.5 24.3 15.5L24.3 15.5Q23.6 15.5 23.2 15.9Q22.7 16.3 22.5 16.9Q22.3 17.5 22.3 18.2L22.3 18.2Q22.3 18.9 22.5 19.5Q22.7 20.2 23.2 20.5Q23.6 20.9 24.3 20.9ZM33.4 22L31.7 22L28.9 14.4L30.5 14.4L32.0 18.7Q32.2 19.4 32.4 20.1Q32.6 20.9 32.8 21.6L32.8 21.6L32.3 21.6Q32.5 20.9 32.7 20.1Q32.9 19.4 33.1 18.7L33.1 18.7L34.6 14.4L36.3 14.4L33.4 22ZM40.9 22.2L40.9 22.2Q39.8 22.2 38.9 21.7Q38.1 21.2 37.7 20.3Q37.2 19.4 37.2 18.2L37.2 18.2Q37.2 17.1 37.7 16.2Q38.1 15.3 38.9 14.8Q39.7 14.3 40.8 14.3L40.8 14.3Q41.4 14.3 42.0 14.5Q42.6 14.7 43.1 15.2Q43.6 15.6 43.9 16.3Q44.2 17.1 44.2 18.1L44.2 18.1L44.2 18.6L38.1 18.6L38.1 17.5L43.4 17.5L42.7 17.9Q42.7 17.2 42.5 16.6Q42.3 16.1 41.8 15.8Q41.4 15.5 40.8 15.5L40.8 15.5Q40.1 15.5 39.7 15.8Q39.2 16.1 39.0 16.6Q38.7 17.1 38.7 17.7L38.7 17.7L38.7 18.5Q38.7 19.3 39.0 19.8Q39.3 20.4 39.8 20.6Q40.3 20.9 40.9 20.9L40.9 20.9Q41.3 20.9 41.7 20.8Q42.0 20.7 42.3 20.4Q42.5 20.2 42.6 19.8L42.6 19.8L44.1 20.2Q43.9 20.8 43.4 21.2Q43.0 21.7 42.4 21.9Q41.7 22.2 40.9 22.2ZM47.3 22L45.8 22L45.8 14.4L47.3 14.4L47.3 15.6L47.4 15.6Q47.6 15.0 48.1 14.6Q48.6 14.2 49.3 14.2L49.3 14.2Q49.4 14.2 49.6 14.3Q49.8 14.3 49.9 14.3L49.9 14.3L49.9 15.7Q49.8 15.7 49.6 15.7Q49.4 15.6 49.1 15.6L49.1 15.6Q48.6 15.6 48.2 15.9Q47.8 16.1 47.6 16.5Q47.3 16.9 47.3 17.4L47.3 17.4L47.3 22ZM53.4 22.2L53.4 22.2Q52.6 22.2 52.1 21.9Q51.5 21.6 51.1 21.1Q50.8 20.6 50.8 19.8L50.8 19.8Q50.8 19.2 51.0 18.8Q51.3 18.4 51.7 18.1Q52.1 17.9 52.7 17.7Q53.2 17.6 53.7 17.6L53.7 17.6Q54.4 17.5 54.8 17.4Q55.3 17.4 55.5 17.3Q55.7 17.1 55.7 16.9L55.7 16.9L55.7 16.8Q55.7 16.4 55.5 16.1Q55.3 15.8 55.0 15.6Q54.7 15.5 54.2 15.5L54.2 15.5Q53.7 15.5 53.3 15.6Q53.0 15.8 52.8 16.0Q52.5 16.3 52.4 16.5L52.4 16.5L51.0 16.2Q51.3 15.5 51.8 15.1Q52.2 14.6 52.9 14.5Q53.5 14.3 54.2 14.3L54.2 14.3Q54.6 14.3 55.1 14.4Q55.7 14.5 56.1 14.8Q56.6 15.1 56.9 15.6Q57.2 16.1 57.2 16.9L57.2 16.9L57.2 22L55.7 22L55.7 21.0L55.6 21.0Q55.5 21.2 55.2 21.5Q54.9 21.8 54.4 22.0Q54.0 22.2 53.4 22.2ZM53.7 21.0L53.7 21.0Q54.3 21.0 54.8 20.7Q55.2 20.5 55.4 20.1Q55.7 19.7 55.7 19.2L55.7 19.2L55.7 18.3Q55.6 18.3 55.4 18.4Q55.1 18.5 54.8 18.5Q54.5 18.6 54.3 18.6Q54.0 18.7 53.8 18.7L53.8 18.7Q53.4 18.7 53.0 18.9Q52.7 19.0 52.5 19.2Q52.3 19.5 52.3 19.9L52.3 19.9Q52.3 20.2 52.5 20.5Q52.6 20.7 53.0 20.8Q53.3 21.0 53.7 21.0ZM62.4 25.0L62.4 25.0Q61.5 25.0 60.8 24.8Q60.2 24.6 59.8 24.2Q59.4 23.8 59.1 23.4L59.1 23.4L60.4 22.8Q60.5 23.0 60.8 23.2Q61.0 23.5 61.4 23.6Q61.8 23.8 62.4 23.8L62.4 23.8Q63.2 23.8 63.8 23.4Q64.3 23.0 64.3 22.1L64.3 22.1L64.3 20.6L64.2 20.6Q64.1 20.9 63.8 21.2Q63.6 21.5 63.1 21.7Q62.7 21.9 62.0 21.9L62.0 21.9Q61.1 21.9 60.4 21.5Q59.7 21.0 59.3 20.2Q58.8 19.4 58.8 18.2L58.8 18.2Q58.8 16.9 59.2 16.1Q59.7 15.2 60.4 14.7Q61.1 14.3 62.0 14.3L62.0 14.3Q62.7 14.3 63.2 14.5Q63.6 14.7 63.9 15.0Q64.1 15.4 64.3 15.6L64.3 15.6L64.4 15.6L64.4 14.4L65.8 14.4L65.8 22.1Q65.8 23.1 65.4 23.8Q64.9 24.4 64.1 24.7Q63.4 25.0 62.4 25.0ZM62.4 20.6L62.4 20.6Q63.0 20.6 63.5 20.3Q63.9 20.0 64.1 19.5Q64.3 18.9 64.3 18.1L64.3 18.1Q64.3 17.4 64.1 16.8Q63.9 16.2 63.5 15.9Q63.0 15.5 62.4 15.5L62.4 15.5Q61.7 15.5 61.3 15.9Q60.8 16.2 60.6 16.8Q60.4 17.4 60.4 18.1L60.4 18.1Q60.4 18.9 60.6 19.4Q60.8 20.0 61.3 20.3Q61.7 20.6 62.4 20.6ZM71.2 22.2L71.2 22.2Q70.0 22.2 69.2 21.7Q68.4 21.2 67.9 20.3Q67.5 19.4 67.5 18.2L67.5 18.2Q67.5 17.1 67.9 16.2Q68.4 15.3 69.2 14.8Q70.0 14.3 71.0 14.3L71.0 14.3Q71.7 14.3 72.3 14.5Q72.9 14.7 73.4 15.2Q73.9 15.6 74.1 16.3Q74.4 17.1 74.4 18.1L74.4 18.1L74.4 18.6L68.3 18.6L68.3 17.5L73.7 17.5L73.0 17.9Q73.0 17.2 72.7 16.6Q72.5 16.1 72.1 15.8Q71.7 15.5 71.0 15.5L71.0 15.5Q70.4 15.5 69.9 15.8Q69.5 16.1 69.2 16.6Q69.0 17.1 69.0 17.7L69.0 17.7L69.0 18.5Q69.0 19.3 69.3 19.8Q69.6 20.4 70.0 20.6Q70.5 20.9 71.2 20.9L71.2 20.9Q71.6 20.9 71.9 20.8Q72.3 20.7 72.5 20.4Q72.8 20.2 72.9 19.8L72.9 19.8L74.3 20.2Q74.1 20.8 73.7 21.2Q73.3 21.7 72.6 21.9Q72.0 22.2 71.2 22.2Z "/></g><mask id="satori_om-id-2-1"><rect x="76" y="8" width="6" height="17" fill="#fff"/></mask><mask id="satori_om-id-3"><rect x="82" y="8" width="32" height="17" fill="#fff"/></mask><g  ><path fill="#ffffff" d="M86.2 22.1L86.2 22.1Q85.3 22.1 84.6 21.8Q83.9 21.4 83.4 20.8Q83.0 20.1 82.9 19.3L82.9 19.3L84.4 19.3Q84.5 20.0 85.0 20.4Q85.5 20.8 86.2 20.8L86.2 20.8Q86.9 20.8 87.5 20.3Q88.0 19.9 88.3 19.1Q88.6 18.3 88.6 17.1L88.6 17.1L88.5 17.1Q88.2 17.5 87.8 17.8Q87.5 18.1 87.0 18.3Q86.5 18.5 86.0 18.5L86.0 18.5Q85.1 18.5 84.3 18.0Q83.6 17.6 83.2 16.9Q82.8 16.1 82.8 15.1L82.8 15.1Q82.8 14.2 83.2 13.4Q83.7 12.6 84.5 12.1Q85.3 11.7 86.3 11.7L86.3 11.7Q87.0 11.7 87.7 11.9Q88.3 12.2 88.9 12.7Q89.4 13.3 89.7 14.2Q90.1 15.2 90.1 16.6L90.1 16.6Q90.1 17.9 89.8 18.9Q89.5 20.0 89.0 20.7Q88.5 21.4 87.8 21.8Q87.1 22.1 86.2 22.1ZM86.3 17.2L86.3 17.2Q86.7 17.2 87.1 17.0Q87.5 16.9 87.8 16.6Q88.0 16.3 88.2 15.9Q88.4 15.5 88.4 15.1L88.4 15.1Q88.4 14.5 88.1 14.1Q87.8 13.6 87.4 13.3Q86.9 13.0 86.3 13.0L86.3 13.0Q85.8 13.0 85.3 13.3Q84.8 13.6 84.6 14.0Q84.3 14.5 84.3 15.1L84.3 15.1Q84.3 15.7 84.6 16.2Q84.8 16.6 85.3 16.9Q85.7 17.2 86.3 17.2ZM95.0 22.1L95.0 22.1Q94.0 22.1 93.3 21.8Q92.5 21.4 92.1 20.8Q91.6 20.1 91.6 19.3L91.6 19.3L93.1 19.3Q93.2 19.8 93.4 20.1Q93.7 20.4 94.1 20.6Q94.5 20.8 95.0 20.8L95.0 20.8Q95.5 20.8 96 20.6Q96.5 20.3 96.7 19.8Q97.0 19.3 97.0 18.7L97.0 18.7Q97.0 18.1 96.7 17.6Q96.4 17.1 96.0 16.9Q95.5 16.6 94.9 16.6L94.9 16.6Q94.4 16.6 94.0 16.8Q93.5 16.9 93.2 17.2L93.2 17.2L91.8 17.0L92.4 11.8L98.0 11.8L98.0 13.1L93.7 13.1L93.3 16.0L93.4 16.0Q93.7 15.7 94.2 15.5Q94.7 15.3 95.3 15.3L95.3 15.3Q96.0 15.3 96.5 15.6Q97.1 15.8 97.6 16.3Q98.0 16.7 98.2 17.3Q98.5 18.0 98.5 18.7L98.5 18.7Q98.5 19.7 98.0 20.5Q97.6 21.2 96.8 21.7Q96.0 22.1 95.0 22.1ZM102.8 16.4L102.8 16.4Q102.1 16.4 101.7 16.1Q101.2 15.9 101.0 15.4Q100.7 14.9 100.7 14.3L100.7 14.3L100.7 13.8Q100.7 13.2 101.0 12.7Q101.2 12.2 101.7 11.9Q102.1 11.7 102.8 11.7L102.8 11.7Q103.5 11.7 103.9 11.9Q104.4 12.2 104.6 12.7Q104.9 13.2 104.9 13.8L104.9 13.8L104.9 14.3Q104.9 14.9 104.6 15.4Q104.4 15.9 103.9 16.1Q103.5 16.4 102.8 16.4ZM102.8 15.4L102.8 15.4Q103.3 15.4 103.5 15.1Q103.7 14.7 103.7 14.3L103.7 14.3L103.7 13.8Q103.7 13.4 103.5 13.0Q103.3 12.7 102.8 12.7L102.8 12.7Q102.3 12.7 102.1 13.0Q101.9 13.4 101.9 13.8L101.9 13.8L101.9 14.3Q101.9 14.7 102.1 15.1Q102.3 15.4 102.8 15.4ZM109.6 22.2L109.6 22.2Q109.0 22.2 108.5 21.9Q108.0 21.6 107.8 21.1Q107.6 20.6 107.6 20.1L107.6 20.1L107.6 19.5Q107.6 19.0 107.8 18.5Q108.0 18.0 108.5 17.7Q109.0 17.4 109.6 17.4L109.6 17.4Q110.3 17.4 110.8 17.7Q111.2 18.0 111.5 18.5Q111.7 19.0 111.7 19.5L111.7 19.5L111.7 20.1Q111.7 20.6 111.5 21.1Q111.2 21.6 110.8 21.9Q110.3 22.2 109.6 22.2ZM109.6 21.2L109.6 21.2Q110.1 21.2 110.3 20.8Q110.5 20.5 110.5 20.1L110.5 20.1L110.5 19.5Q110.5 19.1 110.3 18.8Q110.1 18.4 109.6 18.4L109.6 18.4Q109.1 18.4 108.9 18.8Q108.7 19.1 108.7 19.5L108.7 19.5L108.7 20.1Q108.7 20.5 108.9 20.8Q109.1 21.2 109.6 21.2ZM103.3 22L102.1 22L109.1 11.8L110.3 11.8L103.3 22Z "/></g></svg>