<svg width="112" height="32" viewBox="0 0 112 32" xmlns="http://www.w3.org/2000/svg"><mask id="satori_om-id"><rect x="0" y="0" width="112" height="32" fill="#fff"/></mask><path x="0" y="0" width="112" height="32" fill="#44cc11" d="M6,0 h100 a6,6 0 0 1 6,6 v20 a6,6 0 0 1 -6,6 h-100 a6,6 0 0 1 -6,-6 v-20 a6,6 0 0 1 6,-6"/><mask id="satori_om-id-2"><rect x="12" y="8" width="47" height="17" fill="#fff"/></mask><mask id="satori_om-id-2-0"><rect x="12" y="8" width="41" height="17" fill="#fff"/></mask><g  ><path fill="rgba(255,255,255,0.7)" d="M15.8 22.2L15.8 22.2Q14.9 22.2 14.3 21.9Q13.6 21.7 13.2 21.2Q12.8 20.7 12.7 20.1L12.7 20.1L14.1 19.8Q14.2 20.4 14.7 20.7Q15.1 20.9 15.8 20.9L15.8 20.9Q16.5 20.9 16.9 20.6Q17.4 20.3 17.4 19.9L17.4 19.9Q17.4 19.5 17.1 19.3Q16.8 19.1 16.3 18.9L16.3 18.9L15.0 18.7Q13.9 18.4 13.4 17.9Q12.9 17.4 12.9 16.5L12.9 16.5Q12.9 15.9 13.3 15.3Q13.7 14.8 14.3 14.5Q15.0 14.3 15.8 14.3L15.8 14.3Q16.7 14.3 17.3 14.5Q17.9 14.7 18.2 15.2Q18.6 15.6 18.7 16.2L18.7 16.2L17.4 16.5Q17.3 16.1 16.9 15.8Q16.5 15.5 15.9 15.5L15.9 15.5Q15.2 15.5 14.8 15.7Q14.4 16.0 14.4 16.4L14.4 16.4Q14.4 16.8 14.7 17.1Q15.0 17.3 15.6 17.4L15.6 17.4L16.8 17.7Q17.9 18.0 18.4 18.5Q18.9 19.0 18.9 19.8L18.9 19.8Q18.9 20.5 18.5 21.0Q18.1 21.5 17.4 21.9Q16.7 22.2 15.8 22.2ZM19.7 14.4L23.8 14.4L23.8 15.6L19.7 15.6L19.7 14.4ZM20.8 20.1L20.8 12.5L22.3 12.5L22.3 19.9Q22.3 20.4 22.5 20.6Q22.7 20.8 23.1 20.8L23.1 20.8Q23.2 20.8 23.4 20.8Q23.6 20.8 23.8 20.7L23.8 20.7L24.0 21.9Q23.8 22.0 23.5 22.1Q23.2 22.1 23.0 22.1L23.0 22.1Q21.9 22.1 21.4 21.6Q20.8 21.0 20.8 20.1L20.8 20.1ZM27.5 22.2L27.5 22.2Q26.7 22.2 26.1 21.9Q25.6 21.6 25.2 21.1Q24.9 20.6 24.9 19.8L24.9 19.8Q24.9 19.2 25.1 18.8Q25.4 18.4 25.8 18.1Q26.2 17.9 26.7 17.7Q27.3 17.6 27.8 17.6L27.8 17.6Q28.5 17.5 28.9 17.4Q29.3 17.4 29.5 17.3Q29.7 17.1 29.7 16.9L29.7 16.9L29.7 16.8Q29.7 16.4 29.6 16.1Q29.4 15.8 29.1 15.6Q28.8 15.5 28.3 15.5L28.3 15.5Q27.8 15.5 27.4 15.6Q27.1 15.8 26.8 16.0Q26.6 16.3 26.5 16.5L26.5 16.5L25.1 16.2Q25.4 15.5 25.8 15.1Q26.3 14.6 27.0 14.5Q27.6 14.3 28.2 14.3L28.2 14.3Q28.7 14.3 29.2 14.4Q29.8 14.5 30.2 14.8Q30.7 15.1 31.0 15.6Q31.2 16.1 31.2 16.9L31.2 16.9L31.2 22L29.8 22L29.8 21.0L29.7 21.0Q29.6 21.2 29.3 21.5Q29.0 21.8 28.5 22.0Q28.1 22.2 27.5 22.2ZM27.8 21.0L27.8 21.0Q28.4 21.0 28.8 20.7Q29.3 20.5 29.5 20.1Q29.7 19.7 29.7 19.2L29.7 19.2L29.7 18.3Q29.7 18.3 29.4 18.4Q29.2 18.5 28.9 18.5Q28.6 18.6 28.3 18.6Q28.1 18.7 27.9 18.7L27.9 18.7Q27.5 18.7 27.1 18.9Q26.8 19.0 26.6 19.2Q26.3 19.5 26.3 19.9L26.3 19.9Q26.3 20.2 26.5 20.5Q26.7 20.7 27.0 20.8Q27.4 21.0 27.8 21.0ZM32.4 14.4L36.5 14.4L36.5 15.6L32.4 15.6L32.4 14.4ZM33.5 20.1L33.5 12.5L35.0 12.5L35.0 19.9Q35.0 20.4 35.2 20.6Q35.4 20.8 35.8 20.8L35.8 20.8Q36.0 20.8 36.2 20.8Q36.3 20.8 36.5 20.7L36.5 20.7L36.7 21.9Q36.5 22.0 36.2 22.1Q36.0 22.1 35.7 22.1L35.7 22.1Q34.7 22.1 34.1 21.6Q33.5 21.0 33.5 20.1L33.5 20.1ZM40.6 22.1L40.6 22.1Q39.9 22.1 39.3 21.8Q38.7 21.4 38.4 20.8Q38.0 20.2 38.0 19.2L38.0 19.2L38.0 14.4L39.5 14.4L39.5 19.0Q39.5 19.9 40.0 20.3Q40.4 20.8 41.1 20.8L41.1 20.8Q41.7 20.8 42.1 20.6Q42.5 20.3 42.7 19.9Q42.9 19.5 42.9 18.9L42.9 18.9L42.9 14.4L44.4 14.4L44.4 22L43.0 22L43.0 20.1L43.1 20.1Q42.8 21.2 42.2 21.6Q41.5 22.1 40.6 22.1ZM49.2 22.2L49.2 22.2Q48.4 22.2 47.7 21.9Q47.1 21.7 46.7 21.2Q46.2 20.7 46.1 20.1L46.1 20.1L47.5 19.8Q47.7 20.4 48.1 20.7Q48.5 20.9 49.2 20.9L49.2 20.9Q49.9 20.9 50.4 20.6Q50.8 20.3 50.8 19.9L50.8 19.9Q50.8 19.5 50.5 19.3Q50.3 19.1 49.7 18.9L49.7 18.9L48.4 18.7Q47.4 18.4 46.8 17.9Q46.3 17.4 46.3 16.5L46.3 16.5Q46.3 15.9 46.7 15.3Q47.1 14.8 47.8 14.5Q48.4 14.3 49.3 14.3L49.3 14.3Q50.1 14.3 50.7 14.5Q51.3 14.7 51.7 15.2Q52.0 15.6 52.2 16.2L52.2 16.2L50.8 16.5Q50.7 16.1 50.3 15.8Q50.0 15.5 49.3 15.5L49.3 15.5Q48.7 15.5 48.3 15.7Q47.8 16.0 47.8 16.4L47.8 16.4Q47.8 16.8 48.1 17.1Q48.4 17.3 49.0 17.4L49.0 17.4L50.3 17.7Q51.3 18.0 51.8 18.5Q52.3 19.0 52.3 19.8L52.3 19.8Q52.3 20.5 51.9 21.0Q51.5 21.5 50.8 21.9Q50.1 22.2 49.2 22.2Z "/></g><mask id="satori_om-id-2-1"><rect x="53" y="8" width="6" height="17" fill="#fff"/></mask><mask id="satori_om-id-3"><rect x="59" y="8" width="41" height="17" fill="#fff"/></mask><g  ><path fill="#ffffff" d="M62.2 22.2L62.2 22.2Q61.4 22.2 60.8 21.9Q60.3 21.6 59.9 21.1Q59.6 20.6 59.6 19.8L59.6 19.8Q59.6 19.2 59.8 18.8Q60.1 18.4 60.5 18.1Q60.9 17.9 61.4 17.7Q62.0 17.6 62.5 17.6L62.5 17.6Q63.2 17.5 63.6 17.4Q64.0 17.4 64.2 17.3Q64.4 17.1 64.4 16.9L64.4 16.9L64.4 16.8Q64.4 16.4 64.3 16.1Q64.1 15.8 63.8 15.6Q63.5 15.5 63.0 15.5L63.0 15.5Q62.5 15.5 62.1 15.6Q61.8 15.8 61.5 16.0Q61.3 16.3 61.2 16.5L61.2 16.5L59.8 16.2Q60.0 15.5 60.5 15.1Q61.0 14.6 61.6 14.5Q62.3 14.3 62.9 14.3L62.9 14.3Q63.4 14.3 63.9 14.4Q64.4 14.5 64.9 14.8Q65.4 15.1 65.7 15.6Q65.9 16.1 65.9 16.9L65.9 16.9L65.9 22L64.5 22L64.5 21.0L64.4 21.0Q64.3 21.2 64.0 21.5Q63.7 21.8 63.2 22.0Q62.8 22.2 62.2 22.2ZM62.5 21.0L62.5 21.0Q63.1 21.0 63.5 20.7Q64.0 20.5 64.2 20.1Q64.4 19.7 64.4 19.2L64.4 19.2L64.4 18.3Q64.4 18.3 64.1 18.4Q63.9 18.5 63.6 18.5Q63.3 18.6 63.0 18.6Q62.8 18.7 62.6 18.7L62.6 18.7Q62.2 18.7 61.8 18.9Q61.5 19.0 61.3 19.2Q61.0 19.5 61.0 19.9L61.0 19.9Q61.0 20.2 61.2 20.5Q61.4 20.7 61.7 20.8Q62.1 21.0 62.5 21.0ZM71.2 22.2L71.2 22.2Q70.1 22.2 69.3 21.7Q68.5 21.2 68.1 20.3Q67.6 19.4 67.6 18.2L67.6 18.2Q67.6 17.0 68.1 16.1Q68.5 15.2 69.3 14.8Q70.1 14.3 71.2 14.3L71.2 14.3Q71.8 14.3 72.3 14.4Q72.8 14.6 73.2 14.9Q73.6 15.2 73.9 15.6Q74.2 16.0 74.4 16.5L74.4 16.5L72.9 16.9Q72.9 16.6 72.7 16.3Q72.6 16.1 72.3 15.9Q72.1 15.7 71.8 15.6Q71.5 15.5 71.2 15.5L71.2 15.5Q70.5 15.5 70.0 15.9Q69.6 16.3 69.4 16.9Q69.1 17.5 69.1 18.2L69.1 18.2Q69.1 19.0 69.4 19.6Q69.6 20.2 70.0 20.5Q70.5 20.9 71.2 20.9L71.2 20.9Q71.5 20.9 71.8 20.8Q72.1 20.7 72.4 20.5Q72.6 20.3 72.7 20.1Q72.9 19.8 73.0 19.5L73.0 19.5L74.4 19.8Q74.3 20.4 74.0 20.8Q73.7 21.2 73.2 21.5Q72.8 21.8 72.3 22Q71.8 22.2 71.2 22.2ZM75.2 14.4L79.3 14.4L79.3 15.6L75.2 15.6L75.2 14.4ZM76.3 20.1L76.3 12.5L77.8 12.5L77.8 19.9Q77.8 20.4 78.0 20.6Q78.2 20.8 78.6 20.8L78.6 20.8Q78.7 20.8 78.9 20.8Q79.1 20.8 79.3 20.7L79.3 20.7L79.5 21.9Q79.3 22.0 79.0 22.1Q78.7 22.1 78.5 22.1L78.5 22.1Q77.4 22.1 76.9 21.6Q76.3 21.0 76.3 20.1L76.3 20.1ZM82.3 22L80.8 22L80.8 14.4L82.3 14.4L82.3 22ZM81.6 13.2L81.6 13.2Q81.2 13.2 80.9 12.9Q80.6 12.7 80.6 12.3L80.6 12.3Q80.6 11.9 80.9 11.7Q81.2 11.4 81.6 11.4L81.6 11.4Q82.0 11.4 82.2 11.7Q82.5 11.9 82.5 12.3L82.5 12.3Q82.5 12.7 82.2 12.9Q82.0 13.2 81.6 13.2ZM88.2 22L86.5 22L83.6 14.4L85.3 14.4L86.8 18.7Q87.0 19.4 87.2 20.1Q87.4 20.9 87.6 21.6L87.6 21.6L87.1 21.6Q87.3 20.9 87.5 20.1Q87.7 19.4 87.9 18.7L87.9 18.7L89.4 14.4L91.0 14.4L88.2 22ZM95.7 22.2L95.7 22.2Q94.5 22.2 93.7 21.7Q92.9 21.2 92.5 20.3Q92.0 19.4 92.0 18.2L92.0 18.2Q92.0 17.1 92.5 16.2Q92.9 15.3 93.7 14.8Q94.5 14.3 95.5 14.3L95.5 14.3Q96.2 14.3 96.8 14.5Q97.4 14.7 97.9 15.2Q98.4 15.6 98.7 16.3Q99.0 17.1 99.0 18.1L99.0 18.1L99.0 18.6L92.9 18.6L92.9 17.5L98.2 17.5L97.5 17.9Q97.5 17.2 97.3 16.6Q97.0 16.1 96.6 15.8Q96.2 15.5 95.5 15.5L95.5 15.5Q94.9 15.5 94.5 15.8Q94.0 16.1 93.8 16.6Q93.5 17.1 93.5 17.7L93.5 17.7L93.5 18.5Q93.5 19.3 93.8 19.8Q94.1 20.4 94.6 20.6Q95.0 20.9 95.7 20.9L95.7 20.9Q96.1 20.9 96.5 20.8Q96.8 20.7 97.0 20.4Q97.3 20.2 97.4 19.8L97.4 19.8L98.8 20.2Q98.7 20.8 98.2 21.2Q97.8 21.7 97.1 21.9Q96.5 22.2 95.7 22.2Z "/></g></svg>