<svg width="102" height="32" viewBox="0 0 102 32" xmlns="http://www.w3.org/2000/svg"><mask id="satori_om-id"><rect x="0" y="0" width="102" height="32" fill="#fff"/></mask><path x="0" y="0" width="102" height="32" fill="#7c3aed" d="M6,0 h90 a6,6 0 0 1 6,6 v20 a6,6 0 0 1 -6,6 h-90 a6,6 0 0 1 -6,-6 v-20 a6,6 0 0 1 6,-6"/><mask id="satori_om-id-2"><rect x="12" y="8" width="56" height="17" fill="#fff"/></mask><mask id="satori_om-id-2-0"><rect x="12" y="8" width="50" height="17" fill="#fff"/></mask><g  ><path fill="rgba(255,255,255,0.7)" d="M16.8 22L15.2 22L12.3 14.4L13.9 14.4L15.5 18.7Q15.7 19.4 15.9 20.1Q16.1 20.9 16.3 21.6L16.3 21.6L15.8 21.6Q16.0 20.9 16.2 20.1Q16.4 19.4 16.6 18.7L16.6 18.7L18.1 14.4L19.7 14.4L16.8 22ZM24.4 22.2L24.4 22.2Q23.2 22.2 22.4 21.7Q21.6 21.2 21.1 20.3Q20.7 19.4 20.7 18.2L20.7 18.2Q20.7 17.1 21.1 16.2Q21.6 15.3 22.4 14.8Q23.2 14.3 24.2 14.3L24.2 14.3Q24.9 14.3 25.5 14.5Q26.1 14.7 26.6 15.2Q27.1 15.6 27.4 16.3Q27.6 17.1 27.6 18.1L27.6 18.1L27.6 18.6L21.5 18.6L21.5 17.5L26.9 17.5L26.2 17.9Q26.2 17.2 25.9 16.6Q25.7 16.1 25.3 15.8Q24.9 15.5 24.2 15.5L24.2 15.5Q23.6 15.5 23.1 15.8Q22.7 16.1 22.4 16.6Q22.2 17.1 22.2 17.7L22.2 17.7L22.2 18.5Q22.2 19.3 22.5 19.8Q22.8 20.4 23.2 20.6Q23.7 20.9 24.4 20.9L24.4 20.9Q24.8 20.9 25.1 20.8Q25.5 20.7 25.7 20.4Q26.0 20.2 26.1 19.8L26.1 19.8L27.5 20.2Q27.3 20.8 26.9 21.2Q26.5 21.7 25.8 21.9Q25.2 22.2 24.4 22.2ZM30.8 22L29.3 22L29.3 14.4L30.7 14.4L30.7 15.6L30.8 15.6Q31.0 15.0 31.6 14.6Q32.1 14.2 32.8 14.2L32.8 14.2Q32.9 14.2 33.1 14.3Q33.3 14.3 33.4 14.3L33.4 14.3L33.4 15.7Q33.3 15.7 33.1 15.7Q32.8 15.6 32.6 15.6L32.6 15.6Q32.1 15.6 31.7 15.9Q31.3 16.1 31.0 16.5Q30.8 16.9 30.8 17.4L30.8 17.4L30.8 22ZM37.4 22.2L37.4 22.2Q36.6 22.2 36.0 21.9Q35.3 21.7 34.9 21.2Q34.5 20.7 34.4 20.1L34.4 20.1L35.8 19.8Q35.9 20.4 36.4 20.7Q36.8 20.9 37.5 20.9L37.5 20.9Q38.2 20.9 38.6 20.6Q39.0 20.3 39.0 19.9L39.0 19.9Q39.0 19.5 38.8 19.3Q38.5 19.1 38.0 18.9L38.0 18.9L36.7 18.7Q35.6 18.4 35.1 17.9Q34.6 17.4 34.6 16.5L34.6 16.5Q34.6 15.9 35.0 15.3Q35.3 14.8 36.0 14.5Q36.7 14.3 37.5 14.3L37.5 14.3Q38.4 14.3 38.9 14.5Q39.5 14.7 39.9 15.2Q40.3 15.6 40.4 16.2L40.4 16.2L39.1 16.5Q38.9 16.1 38.6 15.8Q38.2 15.5 37.5 15.5L37.5 15.5Q36.9 15.5 36.5 15.7Q36.1 16.0 36.1 16.4L36.1 16.4Q36.1 16.8 36.4 17.1Q36.6 17.3 37.3 17.4L37.3 17.4L38.5 17.7Q39.6 18.0 40.1 18.5Q40.6 19.0 40.6 19.8L40.6 19.8Q40.6 20.5 40.2 21.0Q39.8 21.5 39.1 21.9Q38.4 22.2 37.4 22.2ZM43.7 22L42.2 22L42.2 14.4L43.7 14.4L43.7 22ZM43.0 13.2L43.0 13.2Q42.6 13.2 42.3 12.9Q42.1 12.7 42.1 12.3L42.1 12.3Q42.1 11.9 42.3 11.7Q42.6 11.4 43.0 11.4L43.0 11.4Q43.4 11.4 43.7 11.7Q43.9 11.9 43.9 12.3L43.9 12.3Q43.9 12.7 43.7 12.9Q43.4 13.2 43.0 13.2ZM49.0 22.2L49.0 22.2Q47.9 22.2 47.1 21.7Q46.3 21.2 45.9 20.3Q45.4 19.4 45.4 18.2L45.4 18.2Q45.4 17.0 45.9 16.1Q46.3 15.2 47.1 14.8Q47.9 14.3 49.0 14.3L49.0 14.3Q50.1 14.3 50.9 14.8Q51.7 15.2 52.1 16.1Q52.6 17.0 52.6 18.2L52.6 18.2Q52.6 19.4 52.1 20.3Q51.7 21.2 50.9 21.7Q50.1 22.2 49.0 22.2ZM49.0 20.9L49.0 20.9Q49.7 20.9 50.1 20.5Q50.6 20.2 50.8 19.5Q51.0 18.9 51.0 18.2L51.0 18.2Q51.0 17.5 50.8 16.9Q50.6 16.3 50.1 15.9Q49.7 15.5 49.0 15.5L49.0 15.5Q48.3 15.5 47.8 15.9Q47.4 16.3 47.2 16.9Q46.9 17.5 46.9 18.2L46.9 18.2Q46.9 18.9 47.2 19.5Q47.4 20.2 47.8 20.5Q48.3 20.9 49.0 20.9ZM55.7 17.5L55.7 17.5L55.7 22L54.2 22L54.2 14.4L55.7 14.4L55.7 16.2L55.5 16.2Q55.8 15.2 56.5 14.7Q57.1 14.3 58.0 14.3L58.0 14.3Q58.8 14.3 59.4 14.6Q60.0 14.9 60.3 15.6Q60.6 16.2 60.6 17.1L60.6 17.1L60.6 22L59.1 22L59.1 17.3Q59.1 16.5 58.7 16.0Q58.3 15.6 57.5 15.6L57.5 15.6Q57.0 15.6 56.6 15.8Q56.2 16.0 56.0 16.4Q55.7 16.9 55.7 17.5Z "/></g><mask id="satori_om-id-2-1"><rect x="62" y="8" width="6" height="17" fill="#fff"/></mask><mask id="satori_om-id-3"><rect x="68" y="8" width="22" height="17" fill="#fff"/></mask><g  ><path fill="#ffffff" d="M75.7 22L69.0 22L69.0 20.9L72.4 17.3Q73.0 16.7 73.3 16.3Q73.7 15.9 73.9 15.5Q74.1 15.1 74.1 14.6L74.1 14.6Q74.1 14.1 73.8 13.7Q73.6 13.4 73.2 13.2Q72.8 13.0 72.3 13.0L72.3 13.0Q71.7 13.0 71.3 13.2Q70.9 13.4 70.7 13.8Q70.5 14.2 70.5 14.8L70.5 14.8L69.0 14.8Q69.0 13.9 69.4 13.2Q69.8 12.5 70.6 12.1Q71.3 11.7 72.3 11.7L72.3 11.7Q73.3 11.7 74.0 12.1Q74.7 12.4 75.1 13.1Q75.6 13.7 75.6 14.6L75.6 14.6Q75.6 15.1 75.3 15.7Q75.1 16.2 74.6 16.9Q74.1 17.5 73.1 18.5L73.1 18.5L71.1 20.6L71.1 20.7L75.7 20.7L75.7 22ZM78.8 22.1L78.8 22.1Q78.3 22.1 78.0 21.8Q77.7 21.5 77.7 21.1L77.7 21.1Q77.7 20.7 78.0 20.4Q78.3 20.1 78.8 20.1L78.8 20.1Q79.2 20.1 79.5 20.4Q79.8 20.7 79.8 21.1L79.8 21.1Q79.8 21.5 79.5 21.8Q79.2 22.1 78.8 22.1ZM85.0 22.1L85.0 22.1Q83.8 22.1 83.0 21.5Q82.2 20.9 81.7 19.7Q81.3 18.6 81.3 16.9L81.3 16.9Q81.3 15.3 81.7 14.1Q82.2 12.9 83.0 12.3Q83.8 11.7 85.0 11.7L85.0 11.7Q86.2 11.7 87.0 12.3Q87.9 12.9 88.3 14.1Q88.8 15.3 88.8 16.9L88.8 16.9Q88.8 18.6 88.3 19.7Q87.9 20.9 87.0 21.5Q86.2 22.1 85.0 22.1ZM85.0 20.8L85.0 20.8Q85.7 20.8 86.2 20.3Q86.7 19.9 87.0 19.0Q87.2 18.1 87.2 16.9L87.2 16.9Q87.2 15.7 87.0 14.8Q86.7 13.9 86.2 13.5Q85.7 13.0 85.0 13.0L85.0 13.0Q84.3 13.0 83.8 13.5Q83.3 13.9 83.1 14.8Q82.8 15.7 82.8 16.9L82.8 16.9Q82.8 18.1 83.1 19.0Q83.3 19.9 83.8 20.3Q84.3 20.8 85.0 20.8Z "/></g></svg>