<svg width="116" height="32" viewBox="0 0 116 32" xmlns="http://www.w3.org/2000/svg"><mask id="satori_om-id"><rect x="0" y="0" width="116" height="32" fill="#fff"/></mask><path x="0" y="0" width="116" height="32" fill="#16a34a" d="M6,0 h104 a6,6 0 0 1 6,6 v20 a6,6 0 0 1 -6,6 h-104 a6,6 0 0 1 -6,-6 v-20 a6,6 0 0 1 6,-6"/><mask id="satori_om-id-2"><rect x="12" y="8" width="39" height="17" fill="#fff"/></mask><mask id="satori_om-id-2-0"><rect x="12" y="8" width="33" height="17" fill="#fff"/></mask><g  ><path fill="rgba(255,255,255,0.7)" d="M16.8 22.2L16.8 22.2Q16.1 22.2 15.7 21.9Q15.2 21.7 15.0 21.4Q14.7 21.0 14.6 20.8L14.6 20.8L14.5 20.8L14.5 22L13.0 22L13.0 11.8L14.5 11.8L14.5 15.6L14.6 15.6Q14.7 15.4 15.0 15.0Q15.2 14.7 15.7 14.5Q16.1 14.3 16.8 14.3L16.8 14.3Q17.7 14.3 18.4 14.7Q19.2 15.2 19.6 16.1Q20.0 17.0 20.0 18.2L20.0 18.2Q20.0 19.4 19.6 20.3Q19.2 21.2 18.5 21.7Q17.7 22.2 16.8 22.2ZM16.5 20.9L16.5 20.9Q17.1 20.9 17.6 20.5Q18.0 20.2 18.2 19.6Q18.5 18.9 18.5 18.2L18.5 18.2Q18.5 17.4 18.2 16.8Q18.0 16.2 17.6 15.9Q17.1 15.5 16.5 15.5L16.5 15.5Q15.8 15.5 15.4 15.9Q14.9 16.2 14.7 16.8Q14.5 17.4 14.5 18.2L14.5 18.2Q14.5 19.0 14.7 19.6Q14.9 20.2 15.4 20.5Q15.8 20.9 16.5 20.9ZM24.3 22.1L24.3 22.1Q23.5 22.1 22.9 21.8Q22.3 21.4 22.0 20.8Q21.7 20.2 21.7 19.2L21.7 19.2L21.7 14.4L23.2 14.4L23.2 19.0Q23.2 19.9 23.6 20.3Q24.0 20.8 24.8 20.8L24.8 20.8Q25.3 20.8 25.7 20.6Q26.1 20.3 26.3 19.9Q26.6 19.5 26.6 18.9L26.6 18.9L26.6 14.4L28.1 14.4L28.1 22L26.6 22L26.6 20.1L26.8 20.1Q26.4 21.2 25.8 21.6Q25.1 22.1 24.3 22.1ZM31.6 22L30.1 22L30.1 14.4L31.6 14.4L31.6 22ZM30.8 13.2L30.8 13.2Q30.5 13.2 30.2 12.9Q29.9 12.7 29.9 12.3L29.9 12.3Q29.9 11.9 30.2 11.7Q30.5 11.4 30.8 11.4L30.8 11.4Q31.2 11.4 31.5 11.7Q31.8 11.9 31.8 12.3L31.8 12.3Q31.8 12.7 31.5 12.9Q31.2 13.2 30.8 13.2ZM33.6 11.8L35.1 11.8L35.1 22L33.6 22L33.6 11.8ZM40.0 22.2L40.0 22.2Q39.1 22.2 38.3 21.7Q37.6 21.2 37.2 20.3Q36.8 19.4 36.8 18.2L36.8 18.2Q36.8 17.0 37.2 16.1Q37.6 15.2 38.3 14.7Q39.1 14.3 40.0 14.3L40.0 14.3Q40.7 14.3 41.1 14.5Q41.6 14.7 41.8 15.0Q42.1 15.4 42.2 15.6L42.2 15.6L42.3 15.6L42.3 11.8L43.8 11.8L43.8 22L42.3 22L42.3 20.8L42.2 20.8Q42.1 21.0 41.8 21.4Q41.6 21.7 41.1 21.9Q40.7 22.2 40.0 22.2ZM40.3 20.9L40.3 20.9Q41.0 20.9 41.4 20.5Q41.8 20.2 42.1 19.6Q42.3 19.0 42.3 18.2L42.3 18.2Q42.3 17.4 42.1 16.8Q41.8 16.2 41.4 15.9Q41.0 15.5 40.3 15.5L40.3 15.5Q39.7 15.5 39.2 15.9Q38.8 16.2 38.5 16.8Q38.3 17.4 38.3 18.2L38.3 18.2Q38.3 18.9 38.6 19.6Q38.8 20.2 39.2 20.5Q39.7 20.9 40.3 20.9Z "/></g><mask id="satori_om-id-2-1"><rect x="45" y="8" width="6" height="17" fill="#fff"/></mask><mask id="satori_om-id-3"><rect x="51" y="8" width="53" height="17" fill="#fff"/></mask><g  ><path fill="#ffffff" d="M53.5 24.9L52.0 24.9L52.0 14.4L53.5 14.4L53.5 15.6L53.6 15.6Q53.7 15.4 54.0 15.0Q54.2 14.7 54.7 14.5Q55.1 14.3 55.8 14.3L55.8 14.3Q56.7 14.3 57.4 14.7Q58.2 15.2 58.6 16.1Q59.0 17.0 59.0 18.2L59.0 18.2Q59.0 19.4 58.6 20.3Q58.2 21.2 57.5 21.7Q56.7 22.2 55.8 22.2L55.8 22.2Q55.1 22.2 54.7 21.9Q54.2 21.7 54.0 21.4Q53.7 21.0 53.6 20.8L53.6 20.8L53.5 20.8L53.5 24.9ZM55.5 20.9L55.5 20.9Q56.1 20.9 56.6 20.5Q57.0 20.2 57.2 19.6Q57.5 18.9 57.5 18.2L57.5 18.2Q57.5 17.4 57.2 16.8Q57.0 16.2 56.6 15.9Q56.1 15.5 55.5 15.5L55.5 15.5Q54.8 15.5 54.4 15.9Q53.9 16.2 53.7 16.8Q53.5 17.4 53.5 18.2L53.5 18.2Q53.5 19.0 53.7 19.6Q53.9 20.2 54.4 20.5Q54.8 20.9 55.5 20.9ZM62.8 22.2L62.8 22.2Q62.1 22.2 61.5 21.9Q60.9 21.6 60.6 21.1Q60.2 20.6 60.2 19.8L60.2 19.8Q60.2 19.2 60.5 18.8Q60.7 18.4 61.1 18.1Q61.6 17.9 62.1 17.7Q62.6 17.6 63.2 17.6L63.2 17.6Q63.8 17.5 64.3 17.4Q64.7 17.4 64.9 17.3Q65.1 17.1 65.1 16.9L65.1 16.9L65.1 16.8Q65.1 16.4 64.9 16.1Q64.8 15.8 64.4 15.6Q64.1 15.5 63.6 15.5L63.6 15.5Q63.1 15.5 62.8 15.6Q62.4 15.8 62.2 16.0Q62.0 16.3 61.9 16.5L61.9 16.5L60.4 16.2Q60.7 15.5 61.2 15.1Q61.7 14.6 62.3 14.5Q62.9 14.3 63.6 14.3L63.6 14.3Q64.1 14.3 64.6 14.4Q65.1 14.5 65.6 14.8Q66.0 15.1 66.3 15.6Q66.6 16.1 66.6 16.9L66.6 16.9L66.6 22L65.1 22L65.1 21.0L65.1 21.0Q64.9 21.2 64.6 21.5Q64.3 21.8 63.9 22.0Q63.4 22.2 62.8 22.2ZM63.1 21.0L63.1 21.0Q63.8 21.0 64.2 20.7Q64.6 20.5 64.9 20.1Q65.1 19.7 65.1 19.2L65.1 19.2L65.1 18.3Q65.0 18.3 64.8 18.4Q64.6 18.5 64.3 18.5Q64.0 18.6 63.7 18.6Q63.4 18.7 63.2 18.7L63.2 18.7Q62.8 18.7 62.5 18.9Q62.1 19.0 61.9 19.2Q61.7 19.5 61.7 19.9L61.7 19.9Q61.7 20.2 61.9 20.5Q62.1 20.7 62.4 20.8Q62.7 21.0 63.1 21.0ZM71.4 22.2L71.4 22.2Q70.5 22.2 69.9 21.9Q69.2 21.7 68.8 21.2Q68.4 20.7 68.3 20.1L68.3 20.1L69.7 19.8Q69.8 20.4 70.3 20.7Q70.7 20.9 71.4 20.9L71.4 20.9Q72.1 20.9 72.5 20.6Q73.0 20.3 73.0 19.9L73.0 19.9Q73.0 19.5 72.7 19.3Q72.4 19.1 71.9 18.9L71.9 18.9L70.6 18.7Q69.5 18.4 69.0 17.9Q68.5 17.4 68.5 16.5L68.5 16.5Q68.5 15.9 68.9 15.3Q69.3 14.8 69.9 14.5Q70.6 14.3 71.5 14.3L71.5 14.3Q72.3 14.3 72.9 14.5Q73.5 14.7 73.8 15.2Q74.2 15.6 74.3 16.2L74.3 16.2L73.0 16.5Q72.9 16.1 72.5 15.8Q72.1 15.5 71.5 15.5L71.5 15.5Q70.8 15.5 70.4 15.7Q70.0 16.0 70.0 16.4L70.0 16.4Q70.0 16.8 70.3 17.1Q70.6 17.3 71.2 17.4L71.2 17.4L72.4 17.7Q73.5 18.0 74.0 18.5Q74.5 19.0 74.5 19.8L74.5 19.8Q74.5 20.5 74.1 21.0Q73.7 21.5 73.0 21.9Q72.3 22.2 71.4 22.2ZM78.9 22.2L78.9 22.2Q78.1 22.2 77.4 21.9Q76.8 21.7 76.4 21.2Q76.0 20.7 75.8 20.1L75.8 20.1L77.2 19.8Q77.4 20.4 77.8 20.7Q78.2 20.9 78.9 20.9L78.9 20.9Q79.6 20.9 80.1 20.6Q80.5 20.3 80.5 19.9L80.5 19.9Q80.5 19.5 80.2 19.3Q80.0 19.1 79.4 18.9L79.4 18.9L78.1 18.7Q77.1 18.4 76.6 17.9Q76.0 17.4 76.0 16.5L76.0 16.5Q76.0 15.9 76.4 15.3Q76.8 14.8 77.5 14.5Q78.1 14.3 79.0 14.3L79.0 14.3Q79.8 14.3 80.4 14.5Q81.0 14.7 81.4 15.2Q81.7 15.6 81.9 16.2L81.9 16.2L80.5 16.5Q80.4 16.1 80.0 15.8Q79.7 15.5 79.0 15.5L79.0 15.5Q78.4 15.5 78.0 15.7Q77.6 16.0 77.6 16.4L77.6 16.4Q77.6 16.8 77.8 17.1Q78.1 17.3 78.7 17.4L78.7 17.4L80.0 17.7Q81.0 18.0 81.5 18.5Q82.0 19.0 82.0 19.8L82.0 19.8Q82.0 20.5 81.6 21.0Q81.2 21.5 80.5 21.9Q79.8 22.2 78.9 22.2ZM85.2 22L83.7 22L83.7 14.4L85.2 14.4L85.2 22ZM84.5 13.2L84.5 13.2Q84.1 13.2 83.8 12.9Q83.5 12.7 83.5 12.3L83.5 12.3Q83.5 11.9 83.8 11.7Q84.1 11.4 84.5 11.4L84.5 11.4Q84.8 11.4 85.1 11.7Q85.4 11.9 85.4 12.3L85.4 12.3Q85.4 12.7 85.1 12.9Q84.8 13.2 84.5 13.2ZM88.7 17.5L88.7 17.5L88.7 22L87.2 22L87.2 14.4L88.7 14.4L88.7 16.2L88.5 16.2Q88.9 15.2 89.5 14.7Q90.1 14.3 91.0 14.3L91.0 14.3Q91.8 14.3 92.4 14.6Q93.0 14.9 93.3 15.6Q93.6 16.2 93.6 17.1L93.6 17.1L93.6 22L92.1 22L92.1 17.3Q92.1 16.5 91.7 16.0Q91.3 15.6 90.5 15.6L90.5 15.6Q90.0 15.6 89.6 15.8Q89.2 16.0 89.0 16.4Q88.7 16.9 88.7 17.5ZM98.8 25.0L98.8 25.0Q98.0 25.0 97.3 24.8Q96.7 24.6 96.2 24.2Q95.8 23.8 95.6 23.4L95.6 23.4L96.9 22.8Q97.0 23.0 97.2 23.2Q97.5 23.5 97.8 23.6Q98.2 23.8 98.8 23.8L98.8 23.8Q99.7 23.8 100.3 23.4Q100.8 23.0 100.8 22.1L100.8 22.1L100.8 20.6L100.7 20.6Q100.5 20.9 100.3 21.2Q100.0 21.5 99.6 21.7Q99.2 21.9 98.5 21.9L98.5 21.9Q97.6 21.9 96.9 21.5Q96.1 21.0 95.7 20.2Q95.3 19.4 95.3 18.2L95.3 18.2Q95.3 16.9 95.7 16.1Q96.1 15.2 96.9 14.7Q97.6 14.3 98.5 14.3L98.5 14.3Q99.2 14.3 99.6 14.5Q100.1 14.7 100.3 15.0Q100.6 15.4 100.7 15.6L100.7 15.6L100.8 15.6L100.8 14.4L102.3 14.4L102.3 22.1Q102.3 23.1 101.8 23.8Q101.4 24.4 100.6 24.7Q99.8 25.0 98.8 25.0ZM98.8 20.6L98.8 20.6Q99.5 20.6 99.9 20.3Q100.4 20.0 100.6 19.5Q100.8 18.9 100.8 18.1L100.8 18.1Q100.8 17.4 100.6 16.8Q100.4 16.2 99.9 15.9Q99.5 15.5 98.8 15.5L98.8 15.5Q98.2 15.5 97.7 15.9Q97.3 16.2 97.1 16.8Q96.8 17.4 96.8 18.1L96.8 18.1Q96.8 18.9 97.1 19.4Q97.3 20.0 97.7 20.3Q98.2 20.6 98.8 20.6Z "/></g></svg>