<svg width="168" height="32" viewBox="0 0 168 32" xmlns="http://www.w3.org/2000/svg"><mask id="satori_om-id"><rect x="0" y="0" width="168" height="32" fill="#fff"/></mask><path x="0" y="0" width="168" height="32" fill="#fafafa" d="M6,0 h156 a6,6 0 0 1 6,6 v20 a6,6 0 0 1 -6,6 h-156 a6,6 0 0 1 -6,-6 v-20 a6,6 0 0 1 6,-6"/><clipPath id="satori_cp-id-1"><rect x="12" y="8" width="16" height="16"/></clipPath><mask id="satori_om-id-1"><rect x="12" y="8" width="16" height="16" fill="#fff"/></mask><image x="12" y="8" width="16" height="16" href="data:image/svg+xml;utf8,%3Csvg  fill=%22none%22 stroke=%22rgba(24,24,27,0.85)%22 stroke-width=%222%22 stroke-linecap=%22round%22 stroke-linejoin=%22round%22 xmlns=%22http://www.w3.org/2000/svg%22 width=%2216%22 height=%2216%22 viewBox=%220 0 24 24%22%3E%3Cpath d=%22M9,12a3,3 0 1,0 6,0a3,3 0 1,0 -6,0%22%3E%3C/path%3E%3C/svg%3E" preserveAspectRatio="none" clip-path="url(#satori_cp-id-1)" mask="url(#satori_om-id-1)"/><mask id="satori_om-id-1-0"><rect x="12" y="8" width="0" height="16" fill="#fff"/></mask><mask id="satori_om-id-2"><rect x="28" y="16" width="6" height="0" fill="#fff"/></mask><mask id="satori_om-id-3"><rect x="34" y="8" width="84" height="17" fill="#fff"/></mask><mask id="satori_om-id-3-0"><rect x="34" y="8" width="78" height="17" fill="#fff"/></mask><g  ><path fill="rgba(24,24,27,0.7)" d="M35.0 11.8L36.5 11.8L36.5 22L35.0 22L35.0 11.8ZM40.7 22.2L40.7 22.2Q40.0 22.2 39.4 21.9Q38.8 21.6 38.4 21.1Q38.1 20.6 38.1 19.8L38.1 19.8Q38.1 19.2 38.3 18.8Q38.6 18.4 39.0 18.1Q39.4 17.9 40.0 17.7Q40.5 17.6 41.0 17.6L41.0 17.6Q41.7 17.5 42.1 17.4Q42.6 17.4 42.8 17.3Q43.0 17.1 43.0 16.9L43.0 16.9L43.0 16.8Q43.0 16.4 42.8 16.1Q42.6 15.8 42.3 15.6Q42.0 15.5 41.5 15.5L41.5 15.5Q41 15.5 40.6 15.6Q40.3 15.8 40.1 16.0Q39.8 16.3 39.7 16.5L39.7 16.5L38.3 16.2Q38.6 15.5 39.1 15.1Q39.5 14.6 40.2 14.5Q40.8 14.3 41.5 14.3L41.5 14.3Q41.9 14.3 42.5 14.4Q43.0 14.5 43.4 14.8Q43.9 15.1 44.2 15.6Q44.5 16.1 44.5 16.9L44.5 16.9L44.5 22L43.0 22L43.0 21.0L42.9 21.0Q42.8 21.2 42.5 21.5Q42.2 21.8 41.7 22.0Q41.3 22.2 40.7 22.2ZM41.0 21.0L41.0 21.0Q41.6 21.0 42.1 20.7Q42.5 20.5 42.7 20.1Q43.0 19.7 43.0 19.2L43.0 19.2L43.0 18.3Q42.9 18.3 42.7 18.4Q42.4 18.5 42.1 18.5Q41.8 18.6 41.6 18.6Q41.3 18.7 41.1 18.7L41.1 18.7Q40.7 18.7 40.3 18.9Q40.0 19.0 39.8 19.2Q39.6 19.5 39.6 19.9L39.6 19.9Q39.6 20.2 39.8 20.5Q39.9 20.7 40.3 20.8Q40.6 21.0 41.0 21.0ZM49.2 22.2L49.2 22.2Q48.4 22.2 47.8 21.9Q47.1 21.7 46.7 21.2Q46.3 20.7 46.1 20.1L46.1 20.1L47.6 19.8Q47.7 20.4 48.2 20.7Q48.6 20.9 49.2 20.9L49.2 20.9Q50.0 20.9 50.4 20.6Q50.8 20.3 50.8 19.9L50.8 19.9Q50.8 19.5 50.6 19.3Q50.3 19.1 49.8 18.9L49.8 18.9L48.5 18.7Q47.4 18.4 46.9 17.9Q46.4 17.4 46.4 16.5L46.4 16.5Q46.4 15.9 46.7 15.3Q47.1 14.8 47.8 14.5Q48.5 14.3 49.3 14.3L49.3 14.3Q50.2 14.3 50.7 14.5Q51.3 14.7 51.7 15.2Q52.1 15.6 52.2 16.2L52.2 16.2L50.9 16.5Q50.7 16.1 50.4 15.8Q50.0 15.5 49.3 15.5L49.3 15.5Q48.7 15.5 48.3 15.7Q47.9 16.0 47.9 16.4L47.9 16.4Q47.9 16.8 48.2 17.1Q48.4 17.3 49.1 17.4L49.1 17.4L50.3 17.7Q51.4 18.0 51.9 18.5Q52.4 19.0 52.4 19.8L52.4 19.8Q52.4 20.5 52.0 21.0Q51.6 21.5 50.9 21.9Q50.2 22.2 49.2 22.2ZM53.2 14.4L57.3 14.4L57.3 15.6L53.2 15.6L53.2 14.4ZM54.3 20.1L54.3 12.5L55.8 12.5L55.8 19.9Q55.8 20.4 56.0 20.6Q56.2 20.8 56.6 20.8L56.6 20.8Q56.7 20.8 56.9 20.8Q57.1 20.8 57.2 20.7L57.2 20.7L57.5 21.9Q57.3 22.0 57.0 22.1Q56.7 22.1 56.5 22.1L56.5 22.1Q55.4 22.1 54.8 21.6Q54.3 21.0 54.3 20.1L54.3 20.1Z M65.7 22.2L65.7 22.2Q64.7 22.2 63.9 21.7Q63.1 21.2 62.6 20.3Q62.2 19.4 62.2 18.2L62.2 18.2Q62.2 17.0 62.6 16.1Q63.1 15.2 63.9 14.8Q64.7 14.3 65.7 14.3L65.7 14.3Q66.3 14.3 66.9 14.4Q67.4 14.6 67.8 14.9Q68.2 15.2 68.5 15.6Q68.8 16.0 68.9 16.5L68.9 16.5L67.5 16.9Q67.4 16.6 67.3 16.3Q67.1 16.1 66.9 15.9Q66.7 15.7 66.4 15.6Q66.1 15.5 65.7 15.5L65.7 15.5Q65.1 15.5 64.6 15.9Q64.1 16.3 63.9 16.9Q63.7 17.5 63.7 18.2L63.7 18.2Q63.7 19.0 63.9 19.6Q64.1 20.2 64.6 20.5Q65.1 20.9 65.7 20.9L65.7 20.9Q66.1 20.9 66.4 20.8Q66.7 20.7 66.9 20.5Q67.2 20.3 67.3 20.1Q67.5 19.8 67.5 19.5L67.5 19.5L69.0 19.8Q68.8 20.4 68.5 20.8Q68.2 21.2 67.8 21.5Q67.4 21.8 66.9 22Q66.3 22.2 65.7 22.2ZM73.8 22.2L73.8 22.2Q72.7 22.2 71.9 21.7Q71.1 21.2 70.7 20.3Q70.3 19.4 70.3 18.2L70.3 18.2Q70.3 17.0 70.7 16.1Q71.1 15.2 71.9 14.8Q72.7 14.3 73.8 14.3L73.8 14.3Q74.9 14.3 75.7 14.8Q76.5 15.2 77.0 16.1Q77.4 17.0 77.4 18.2L77.4 18.2Q77.4 19.4 77.0 20.3Q76.5 21.2 75.7 21.7Q74.9 22.2 73.8 22.2ZM73.8 20.9L73.8 20.9Q74.5 20.9 75.0 20.5Q75.4 20.2 75.6 19.5Q75.9 18.9 75.9 18.2L75.9 18.2Q75.9 17.5 75.6 16.9Q75.4 16.3 75.0 15.9Q74.5 15.5 73.8 15.5L73.8 15.5Q73.1 15.5 72.7 15.9Q72.2 16.3 72.0 16.9Q71.8 17.5 71.8 18.2L71.8 18.2Q71.8 18.9 72.0 19.5Q72.2 20.2 72.7 20.5Q73.1 20.9 73.8 20.9ZM80.6 22L79.1 22L79.1 14.4L80.5 14.4L80.5 16.1L80.4 16.1Q80.6 15.5 80.9 15.1Q81.3 14.6 81.7 14.4Q82.2 14.2 82.7 14.2L82.7 14.2Q83.5 14.2 84.0 14.7Q84.5 15.3 84.7 16.2L84.7 16.2L84.5 16.2Q84.7 15.6 85.0 15.1Q85.4 14.7 85.9 14.5Q86.5 14.2 87.1 14.2L87.1 14.2Q87.7 14.2 88.3 14.5Q88.8 14.8 89.2 15.4Q89.5 16.0 89.5 16.8L89.5 16.8L89.5 22L88.0 22L88.0 17.0Q88.0 16.2 87.5 15.9Q87.1 15.5 86.5 15.5L86.5 15.5Q86.1 15.5 85.7 15.7Q85.4 15.9 85.2 16.3Q85.0 16.6 85.0 17.1L85.0 17.1L85.0 22L83.5 22L83.5 16.9Q83.5 16.3 83.1 15.9Q82.7 15.5 82.1 15.5L82.1 15.5Q81.7 15.5 81.4 15.7Q81.0 15.9 80.8 16.3Q80.6 16.7 80.6 17.2L80.6 17.2L80.6 22ZM93.0 22L91.5 22L91.5 14.4L92.9 14.4L93.0 16.1L92.9 16.1Q93.0 15.5 93.4 15.1Q93.7 14.6 94.2 14.4Q94.6 14.2 95.1 14.2L95.1 14.2Q95.9 14.2 96.5 14.7Q97.0 15.3 97.2 16.2L97.2 16.2L97.0 16.2Q97.1 15.6 97.5 15.1Q97.8 14.7 98.4 14.5Q98.9 14.2 99.5 14.2L99.5 14.2Q100.2 14.2 100.7 14.5Q101.3 14.8 101.6 15.4Q101.9 16.0 101.9 16.8L101.9 16.8L101.9 22L100.4 22L100.4 17.0Q100.4 16.2 100.0 15.9Q99.5 15.5 99.0 15.5L99.0 15.5Q98.5 15.5 98.2 15.7Q97.8 15.9 97.6 16.3Q97.4 16.6 97.4 17.1L97.4 17.1L97.4 22L96.0 22L96.0 16.9Q96.0 16.3 95.6 15.9Q95.2 15.5 94.6 15.5L94.6 15.5Q94.1 15.5 93.8 15.7Q93.4 15.9 93.2 16.3Q93.0 16.7 93.0 17.2L93.0 17.2L93.0 22ZM105.4 22L103.9 22L103.9 14.4L105.4 14.4L105.4 22ZM104.7 13.2L104.7 13.2Q104.3 13.2 104.0 12.9Q103.7 12.7 103.7 12.3L103.7 12.3Q103.7 11.9 104.0 11.7Q104.3 11.4 104.7 11.4L104.7 11.4Q105.1 11.4 105.4 11.7Q105.6 11.9 105.6 12.3L105.6 12.3Q105.6 12.7 105.4 12.9Q105.1 13.2 104.7 13.2ZM106.6 14.4L110.7 14.4L110.7 15.6L106.6 15.6L106.6 14.4ZM107.7 20.1L107.7 12.5L109.2 12.5L109.2 19.9Q109.2 20.4 109.4 20.6Q109.6 20.8 110.0 20.8L110.0 20.8Q110.2 20.8 110.3 20.8Q110.5 20.8 110.7 20.7L110.7 20.7L110.9 21.9Q110.7 22.0 110.4 22.1Q110.2 22.1 109.9 22.1L109.9 22.1Q108.8 22.1 108.3 21.6Q107.7 21.0 107.7 20.1L107.7 20.1Z "/></g><mask id="satori_om-id-3-1"><rect x="112" y="8" width="6" height="17" fill="#fff"/></mask><mask id="satori_om-id-4"><rect x="118" y="8" width="38" height="17" fill="#fff"/></mask><g  ><path fill="#18181b" d="M118.1 14.4L122.3 14.4L122.3 15.6L118.1 15.6L118.1 14.4ZM119.3 20.1L119.3 12.5L120.8 12.5L120.8 19.9Q120.8 20.4 120.9 20.6Q121.1 20.8 121.6 20.8L121.6 20.8Q121.7 20.8 121.9 20.8Q122.1 20.8 122.2 20.7L122.2 20.7L122.5 21.9Q122.3 22.0 122.0 22.1Q121.7 22.1 121.4 22.1L121.4 22.1Q120.4 22.1 119.8 21.6Q119.3 21.0 119.3 20.1L119.3 20.1ZM127.0 22.2L127.0 22.2Q125.9 22.2 125.1 21.7Q124.3 21.2 123.9 20.3Q123.4 19.4 123.4 18.2L123.4 18.2Q123.4 17.0 123.9 16.1Q124.3 15.2 125.1 14.8Q125.9 14.3 127.0 14.3L127.0 14.3Q128.1 14.3 128.9 14.8Q129.7 15.2 130.1 16.1Q130.6 17.0 130.6 18.2L130.6 18.2Q130.6 19.4 130.1 20.3Q129.7 21.2 128.9 21.7Q128.1 22.2 127.0 22.2ZM127.0 20.9L127.0 20.9Q127.7 20.9 128.1 20.5Q128.6 20.2 128.8 19.5Q129.0 18.9 129.0 18.2L129.0 18.2Q129.0 17.5 128.8 16.9Q128.6 16.3 128.1 15.9Q127.7 15.5 127.0 15.5L127.0 15.5Q126.3 15.5 125.8 15.9Q125.4 16.3 125.2 16.9Q125.0 17.5 125.0 18.2L125.0 18.2Q125.0 18.9 125.2 19.5Q125.4 20.2 125.8 20.5Q126.3 20.9 127.0 20.9ZM135.1 22.2L135.1 22.2Q134.1 22.2 133.4 21.7Q132.7 21.2 132.3 20.3Q131.9 19.4 131.9 18.2L131.9 18.2Q131.9 17.0 132.3 16.1Q132.7 15.2 133.4 14.7Q134.2 14.3 135.1 14.3L135.1 14.3Q135.8 14.3 136.2 14.5Q136.7 14.7 136.9 15.0Q137.1 15.4 137.3 15.6L137.3 15.6L137.4 15.6L137.4 11.8L138.9 11.8L138.9 22L137.4 22L137.4 20.8L137.3 20.8Q137.1 21.0 136.9 21.4Q136.6 21.7 136.2 21.9Q135.8 22.2 135.1 22.2ZM135.4 20.9L135.4 20.9Q136.0 20.9 136.5 20.5Q136.9 20.2 137.2 19.6Q137.4 19.0 137.4 18.2L137.4 18.2Q137.4 17.4 137.2 16.8Q136.9 16.2 136.5 15.9Q136.1 15.5 135.4 15.5L135.4 15.5Q134.7 15.5 134.3 15.9Q133.9 16.2 133.6 16.8Q133.4 17.4 133.4 18.2L133.4 18.2Q133.4 18.9 133.6 19.6Q133.9 20.2 134.3 20.5Q134.8 20.9 135.4 20.9ZM143.0 22.2L143.0 22.2Q142.3 22.2 141.7 21.9Q141.1 21.6 140.8 21.1Q140.4 20.6 140.4 19.8L140.4 19.8Q140.4 19.2 140.7 18.8Q140.9 18.4 141.4 18.1Q141.8 17.9 142.3 17.7Q142.8 17.6 143.4 17.6L143.4 17.6Q144.1 17.5 144.5 17.4Q144.9 17.4 145.1 17.3Q145.3 17.1 145.3 16.9L145.3 16.9L145.3 16.8Q145.3 16.4 145.1 16.1Q145.0 15.8 144.7 15.6Q144.3 15.5 143.8 15.5L143.8 15.5Q143.3 15.5 143.0 15.6Q142.6 15.8 142.4 16.0Q142.2 16.3 142.1 16.5L142.1 16.5L140.7 16.2Q140.9 15.5 141.4 15.1Q141.9 14.6 142.5 14.5Q143.1 14.3 143.8 14.3L143.8 14.3Q144.3 14.3 144.8 14.4Q145.3 14.5 145.8 14.8Q146.2 15.1 146.5 15.6Q146.8 16.1 146.8 16.9L146.8 16.9L146.8 22L145.4 22L145.4 21.0L145.3 21.0Q145.1 21.2 144.8 21.5Q144.5 21.8 144.1 22.0Q143.6 22.2 143.0 22.2ZM143.4 21.0L143.4 21.0Q144.0 21.0 144.4 20.7Q144.9 20.5 145.1 20.1Q145.3 19.7 145.3 19.2L145.3 19.2L145.3 18.3Q145.2 18.3 145.0 18.4Q144.8 18.5 144.5 18.5Q144.2 18.6 143.9 18.6Q143.6 18.7 143.5 18.7L143.5 18.7Q143.0 18.7 142.7 18.9Q142.3 19.0 142.1 19.2Q141.9 19.5 141.9 19.9L141.9 19.9Q141.9 20.2 142.1 20.5Q142.3 20.7 142.6 20.8Q142.9 21.0 143.4 21.0ZM148.7 24.7L148.7 24.7L149.1 23.5L149.3 23.6Q149.7 23.7 150.0 23.6Q150.3 23.6 150.5 23.3Q150.7 23.1 150.9 22.6L150.9 22.6L151.0 22.0L148.1 14.4L149.8 14.4L151.3 18.7Q151.5 19.4 151.7 20.1Q151.9 20.9 152.1 21.6L152.1 21.6L151.6 21.6Q151.8 20.9 152.0 20.1Q152.2 19.4 152.4 18.7L152.4 18.7L154.0 14.4L155.6 14.4L152.2 23.1Q152.0 23.7 151.7 24.1Q151.3 24.5 150.9 24.7Q150.4 24.9 149.8 24.9L149.8 24.9Q149.4 24.9 149.2 24.9Q148.9 24.8 148.7 24.7Z "/></g></svg>