<svg width="151" height="32" viewBox="0 0 151 32" xmlns="http://www.w3.org/2000/svg"><mask id="satori_om-id"><rect x="0" y="0" width="151" height="32" fill="#fff"/></mask><path x="0" y="0" width="151" height="32" fill="#fafafa" d="M6,0 h139 a6,6 0 0 1 6,6 v20 a6,6 0 0 1 -6,6 h-139 a6,6 0 0 1 -6,-6 v-20 a6,6 0 0 1 6,-6"/><clipPath id="satori_cp-id-1"><rect x="12" y="8" width="16" height="16"/></clipPath><mask id="satori_om-id-1"><rect x="12" y="8" width="16" height="16" fill="#fff"/></mask><image x="12" y="8" width="16" height="16" href="data:image/svg+xml;utf8,%3Csvg  fill=%22none%22 stroke=%22rgba(24,24,27,0.85)%22 stroke-width=%222%22 stroke-linecap=%22round%22 stroke-linejoin=%22round%22 xmlns=%22http://www.w3.org/2000/svg%22 width=%2216%22 height=%2216%22 viewBox=%220 0 24 24%22%3E%3Cpath d=%22M12.586 2.586A2 2 0 0 0 11.172 2H4a2 2 0 0 0-2 2v7.172a2 2 0 0 0 .586 1.414l8.704 8.704a2.426 2.426 0 0 0 3.42 0l6.58-6.58a2.426 2.426 0 0 0 0-3.42z M7,7.5a0.5,0.5 0 1,0 1,0a0.5,0.5 0 1,0 -1,0%22%3E%3C/path%3E%3C/svg%3E" preserveAspectRatio="none" clip-path="url(#satori_cp-id-1)" mask="url(#satori_om-id-1)"/><mask id="satori_om-id-1-0"><rect x="12" y="8" width="0" height="16" fill="#fff"/></mask><mask id="satori_om-id-2"><rect x="28" y="16" width="6" height="0" fill="#fff"/></mask><mask id="satori_om-id-3"><rect x="34" y="8" width="56" height="17" fill="#fff"/></mask><mask id="satori_om-id-3-0"><rect x="34" y="8" width="50" height="17" fill="#fff"/></mask><g  ><path fill="rgba(24,24,27,0.7)" d="M36.5 22L35.0 22L35.0 14.4L36.5 14.4L36.5 15.6L36.5 15.6Q36.8 15.0 37.3 14.6Q37.8 14.2 38.5 14.2L38.5 14.2Q38.6 14.2 38.8 14.3Q39.0 14.3 39.1 14.3L39.1 14.3L39.1 15.7Q39.0 15.7 38.8 15.7Q38.6 15.6 38.3 15.6L38.3 15.6Q37.8 15.6 37.4 15.9Q37.0 16.1 36.7 16.5Q36.5 16.9 36.5 17.4L36.5 17.4L36.5 22ZM43.7 22.2L43.7 22.2Q42.6 22.2 41.8 21.7Q41.0 21.2 40.5 20.3Q40.1 19.4 40.1 18.2L40.1 18.2Q40.1 17.1 40.5 16.2Q40.9 15.3 41.7 14.8Q42.5 14.3 43.6 14.3L43.6 14.3Q44.2 14.3 44.9 14.5Q45.5 14.7 45.9 15.2Q46.4 15.6 46.7 16.3Q47.0 17.1 47.0 18.1L47.0 18.1L47.0 18.6L40.9 18.6L40.9 17.5L46.2 17.5L45.5 17.9Q45.5 17.2 45.3 16.6Q45.1 16.1 44.7 15.8Q44.2 15.5 43.6 15.5L43.6 15.5Q43.0 15.5 42.5 15.8Q42.1 16.1 41.8 16.6Q41.6 17.1 41.6 17.7L41.6 17.7L41.6 18.5Q41.6 19.3 41.9 19.8Q42.1 20.4 42.6 20.6Q43.1 20.9 43.7 20.9L43.7 20.9Q44.2 20.9 44.5 20.8Q44.8 20.7 45.1 20.4Q45.3 20.2 45.5 19.8L45.5 19.8L46.9 20.2Q46.7 20.8 46.3 21.2Q45.8 21.7 45.2 21.9Q44.5 22.2 43.7 22.2ZM48.6 11.8L50.2 11.8L50.2 22L48.6 22L48.6 11.8ZM55.5 22.2L55.5 22.2Q54.3 22.2 53.5 21.7Q52.7 21.2 52.3 20.3Q51.8 19.4 51.8 18.2L51.8 18.2Q51.8 17.1 52.3 16.2Q52.7 15.3 53.5 14.8Q54.3 14.3 55.3 14.3L55.3 14.3Q56.0 14.3 56.6 14.5Q57.2 14.7 57.7 15.2Q58.2 15.6 58.5 16.3Q58.8 17.1 58.8 18.1L58.8 18.1L58.8 18.6L52.7 18.6L52.7 17.5L58.0 17.5L57.3 17.9Q57.3 17.2 57.1 16.6Q56.8 16.1 56.4 15.8Q56.0 15.5 55.3 15.5L55.3 15.5Q54.7 15.5 54.3 15.8Q53.8 16.1 53.6 16.6Q53.3 17.1 53.3 17.7L53.3 17.7L53.3 18.5Q53.3 19.3 53.6 19.8Q53.9 20.4 54.4 20.6Q54.8 20.9 55.5 20.9L55.5 20.9Q55.9 20.9 56.3 20.8Q56.6 20.7 56.8 20.4Q57.1 20.2 57.2 19.8L57.2 19.8L58.6 20.2Q58.5 20.8 58.0 21.2Q57.6 21.7 56.9 21.9Q56.3 22.2 55.5 22.2ZM62.5 22.2L62.5 22.2Q61.8 22.2 61.2 21.9Q60.6 21.6 60.3 21.1Q60.0 20.6 60.0 19.8L60.0 19.8Q60.0 19.2 60.2 18.8Q60.5 18.4 60.9 18.1Q61.3 17.9 61.8 17.7Q62.4 17.6 62.9 17.6L62.9 17.6Q63.6 17.5 64.0 17.4Q64.4 17.4 64.6 17.3Q64.8 17.1 64.8 16.9L64.8 16.9L64.8 16.8Q64.8 16.4 64.7 16.1Q64.5 15.8 64.2 15.6Q63.8 15.5 63.4 15.5L63.4 15.5Q62.9 15.5 62.5 15.6Q62.1 15.8 61.9 16.0Q61.7 16.3 61.6 16.5L61.6 16.5L60.2 16.2Q60.4 15.5 60.9 15.1Q61.4 14.6 62.0 14.5Q62.7 14.3 63.3 14.3L63.3 14.3Q63.8 14.3 64.3 14.4Q64.8 14.5 65.3 14.8Q65.8 15.1 66.0 15.6Q66.3 16.1 66.3 16.9L66.3 16.9L66.3 22L64.9 22L64.9 21.0L64.8 21.0Q64.6 21.2 64.4 21.5Q64.1 21.8 63.6 22.0Q63.2 22.2 62.5 22.2ZM62.9 21.0L62.9 21.0Q63.5 21.0 63.9 20.7Q64.4 20.5 64.6 20.1Q64.8 19.7 64.8 19.2L64.8 19.2L64.8 18.3Q64.7 18.3 64.5 18.4Q64.3 18.5 64.0 18.5Q63.7 18.6 63.4 18.6Q63.2 18.7 63.0 18.7L63.0 18.7Q62.6 18.7 62.2 18.9Q61.8 19.0 61.6 19.2Q61.4 19.5 61.4 19.9L61.4 19.9Q61.4 20.2 61.6 20.5Q61.8 20.7 62.1 20.8Q62.5 21.0 62.9 21.0ZM71.1 22.2L71.1 22.2Q70.3 22.2 69.6 21.9Q69.0 21.7 68.6 21.2Q68.1 20.7 68.0 20.1L68.0 20.1L69.4 19.8Q69.6 20.4 70.0 20.7Q70.4 20.9 71.1 20.9L71.1 20.9Q71.8 20.9 72.3 20.6Q72.7 20.3 72.7 19.9L72.7 19.9Q72.7 19.5 72.4 19.3Q72.2 19.1 71.6 18.9L71.6 18.9L70.3 18.7Q69.3 18.4 68.7 17.9Q68.2 17.4 68.2 16.5L68.2 16.5Q68.2 15.9 68.6 15.3Q69.0 14.8 69.7 14.5Q70.3 14.3 71.2 14.3L71.2 14.3Q72.0 14.3 72.6 14.5Q73.2 14.7 73.6 15.2Q73.9 15.6 74.1 16.2L74.1 16.2L72.7 16.5Q72.6 16.1 72.2 15.8Q71.9 15.5 71.2 15.5L71.2 15.5Q70.6 15.5 70.2 15.7Q69.7 16.0 69.7 16.4L69.7 16.4Q69.7 16.8 70.0 17.1Q70.3 17.3 70.9 17.4L70.9 17.4L72.2 17.7Q73.2 18.0 73.7 18.5Q74.2 19.0 74.2 19.8L74.2 19.8Q74.2 20.5 73.8 21.0Q73.4 21.5 72.7 21.9Q72.0 22.2 71.1 22.2ZM79.2 22.2L79.2 22.2Q78.1 22.2 77.2 21.7Q76.4 21.2 76.0 20.3Q75.5 19.4 75.5 18.2L75.5 18.2Q75.5 17.1 76.0 16.2Q76.4 15.3 77.2 14.8Q78.0 14.3 79.1 14.3L79.1 14.3Q79.7 14.3 80.3 14.5Q80.9 14.7 81.4 15.2Q81.9 15.6 82.2 16.3Q82.5 17.1 82.5 18.1L82.5 18.1L82.5 18.6L76.4 18.6L76.4 17.5L81.7 17.5L81.0 17.9Q81.0 17.2 80.8 16.6Q80.6 16.1 80.1 15.8Q79.7 15.5 79.1 15.5L79.1 15.5Q78.4 15.5 78.0 15.8Q77.5 16.1 77.3 16.6Q77.0 17.1 77.0 17.7L77.0 17.7L77.0 18.5Q77.0 19.3 77.3 19.8Q77.6 20.4 78.1 20.6Q78.6 20.9 79.2 20.9L79.2 20.9Q79.6 20.9 80.0 20.8Q80.3 20.7 80.6 20.4Q80.8 20.2 80.9 19.8L80.9 19.8L82.4 20.2Q82.2 20.8 81.7 21.2Q81.3 21.7 80.7 21.9Q80.0 22.2 79.2 22.2Z "/></g><mask id="satori_om-id-3-1"><rect x="84" y="8" width="6" height="17" fill="#fff"/></mask><mask id="satori_om-id-4"><rect x="90" y="8" width="49" height="17" fill="#fff"/></mask><g  ><path fill="#18181b" d="M94.8 22L93.2 22L90.3 14.4L91.9 14.4L93.5 18.7Q93.7 19.4 93.9 20.1Q94.1 20.9 94.3 21.6L94.3 21.6L93.8 21.6Q94.0 20.9 94.2 20.1Q94.4 19.4 94.6 18.7L94.6 18.7L96.1 14.4L97.7 14.4L94.8 22ZM100.9 11.8L102.7 11.8L102.7 22L101.2 22L101.2 13.2L101.1 13.2L98.7 15.0L98.7 13.4L100.9 11.8ZM108.4 22.1L108.4 22.1Q107.7 22.1 107.0 21.9Q106.3 21.7 105.8 21.1Q105.3 20.5 105.0 19.6Q104.6 18.7 104.6 17.2L104.6 17.2Q104.6 15.9 104.9 14.9Q105.2 13.9 105.7 13.1Q106.2 12.4 106.9 12.1Q107.6 11.7 108.5 11.7L108.5 11.7Q109.4 11.7 110.1 12.0Q110.8 12.4 111.3 13.0Q111.7 13.7 111.8 14.5L111.8 14.5L110.3 14.5Q110.1 13.8 109.7 13.4Q109.2 13.0 108.5 13.0L108.5 13.0Q107.7 13.0 107.2 13.5Q106.7 13.9 106.4 14.7Q106.1 15.6 106.1 16.7L106.1 16.7L106.2 16.7Q106.5 16.3 106.9 16.0Q107.2 15.7 107.7 15.5Q108.2 15.3 108.7 15.3L108.7 15.3Q109.6 15.3 110.3 15.8Q111.1 16.2 111.5 16.9Q111.9 17.7 111.9 18.7L111.9 18.7Q111.9 19.6 111.5 20.4Q111.0 21.2 110.2 21.7Q109.4 22.1 108.4 22.1ZM108.4 20.8L108.4 20.8Q108.9 20.8 109.4 20.5Q109.9 20.3 110.1 19.8Q110.4 19.3 110.4 18.7L110.4 18.7Q110.4 18.1 110.1 17.6Q109.9 17.2 109.4 16.9Q109.0 16.6 108.4 16.6L108.4 16.6Q107.9 16.6 107.6 16.8Q107.2 16.9 106.9 17.2Q106.6 17.5 106.5 17.9Q106.3 18.3 106.3 18.7L106.3 18.7Q106.3 19.3 106.6 19.8Q106.9 20.2 107.3 20.5Q107.8 20.8 108.4 20.8ZM114.3 22.1L114.3 22.1Q113.9 22.1 113.6 21.8Q113.3 21.5 113.3 21.1L113.3 21.1Q113.3 20.7 113.6 20.4Q113.9 20.1 114.3 20.1L114.3 20.1Q114.8 20.1 115.1 20.4Q115.4 20.7 115.4 21.1L115.4 21.1Q115.4 21.5 115.1 21.8Q114.8 22.1 114.3 22.1ZM124.2 22L117.5 22L117.5 20.9L120.9 17.3Q121.4 16.7 121.8 16.3Q122.2 15.9 122.3 15.5Q122.5 15.1 122.5 14.6L122.5 14.6Q122.5 14.1 122.3 13.7Q122.1 13.4 121.6 13.2Q121.2 13.0 120.7 13.0L120.7 13.0Q120.2 13.0 119.8 13.2Q119.4 13.4 119.2 13.8Q118.9 14.2 118.9 14.8L118.9 14.8L117.4 14.8Q117.4 13.9 117.9 13.2Q118.3 12.5 119.0 12.1Q119.8 11.7 120.7 11.7L120.7 11.7Q121.7 11.7 122.5 12.1Q123.2 12.4 123.6 13.1Q124.0 13.7 124.0 14.6L124.0 14.6Q124.0 15.1 123.8 15.7Q123.6 16.2 123.1 16.9Q122.6 17.5 121.6 18.5L121.6 18.5L119.6 20.6L119.6 20.7L124.2 20.7L124.2 22ZM127.2 22.1L127.2 22.1Q126.8 22.1 126.5 21.8Q126.2 21.5 126.2 21.1L126.2 21.1Q126.2 20.7 126.5 20.4Q126.8 20.1 127.2 20.1L127.2 20.1Q127.6 20.1 127.9 20.4Q128.2 20.7 128.2 21.1L128.2 21.1Q128.2 21.5 127.9 21.8Q127.6 22.1 127.2 22.1ZM137.8 20.0L130.1 20.0L130.1 18.8L134.5 11.8L135.5 11.8L135.5 13.7L134.9 13.7L131.7 18.6L131.7 18.7L137.8 18.7L137.8 20.0ZM136.4 22L134.9 22L134.9 19.6L135.0 19.1L135.0 11.8L136.4 11.8L136.4 22Z "/></g></svg>