<svg width="128" height="32" viewBox="0 0 128 32" xmlns="http://www.w3.org/2000/svg"><mask id="satori_om-id"><rect x="0" y="0" width="128" height="32" fill="#fff"/></mask><path x="0" y="0" width="128" height="32" fill="#fafafa" d="M6,0 h116 a6,6 0 0 1 6,6 v20 a6,6 0 0 1 -6,6 h-116 a6,6 0 0 1 -6,-6 v-20 a6,6 0 0 1 6,-6"/><clipPath id="satori_cp-id-1"><rect x="12" y="8" width="16" height="16"/></clipPath><mask id="satori_om-id-1"><rect x="12" y="8" width="16" height="16" fill="#fff"/></mask><image x="12" y="8" width="16" height="16" href="data:image/svg+xml;utf8,%3Csvg  fill=%22none%22 stroke=%22rgba(24,24,27,0.85)%22 stroke-width=%222%22 stroke-linecap=%22round%22 stroke-linejoin=%22round%22 xmlns=%22http://www.w3.org/2000/svg%22 width=%2216%22 height=%2216%22 viewBox=%220 0 24 24%22%3E%3Cpath d=%22M11.525 2.295a.53.53 0 0 1 .95 0l2.31 4.679a2.123 2.123 0 0 0 1.595 1.16l5.166.756a.53.53 0 0 1 .294.904l-3.736 3.638a2.123 2.123 0 0 0-.611 1.878l.882 5.14a.53.53 0 0 1-.771.56l-4.618-2.428a2.122 2.122 0 0 0-1.973 0L6.396 21.01a.53.53 0 0 1-.77-.56l.881-5.139a2.122 2.122 0 0 0-.611-1.879L2.16 9.795a.53.53 0 0 1 .294-.906l5.165-.755a2.122 2.122 0 0 0 1.597-1.16z%22%3E%3C/path%3E%3C/svg%3E" preserveAspectRatio="none" clip-path="url(#satori_cp-id-1)" mask="url(#satori_om-id-1)"/><mask id="satori_om-id-1-0"><rect x="12" y="8" width="0" height="16" fill="#fff"/></mask><mask id="satori_om-id-2"><rect x="28" y="16" width="6" height="0" fill="#fff"/></mask><mask id="satori_om-id-3"><rect x="34" y="8" width="40" height="17" fill="#fff"/></mask><mask id="satori_om-id-3-0"><rect x="34" y="8" width="34" height="17" fill="#fff"/></mask><g  ><path fill="rgba(24,24,27,0.7)" d="M37.8 22.2L37.8 22.2Q36.9 22.2 36.3 21.9Q35.6 21.7 35.2 21.2Q34.8 20.7 34.7 20.1L34.7 20.1L36.1 19.8Q36.2 20.4 36.7 20.7Q37.1 20.9 37.8 20.9L37.8 20.9Q38.5 20.9 38.9 20.6Q39.4 20.3 39.4 19.9L39.4 19.9Q39.4 19.5 39.1 19.3Q38.8 19.1 38.3 18.9L38.3 18.9L37.0 18.7Q35.9 18.4 35.4 17.9Q34.9 17.4 34.9 16.5L34.9 16.5Q34.9 15.9 35.3 15.3Q35.7 14.8 36.3 14.5Q37.0 14.3 37.8 14.3L37.8 14.3Q38.7 14.3 39.3 14.5Q39.9 14.7 40.2 15.2Q40.6 15.6 40.7 16.2L40.7 16.2L39.4 16.5Q39.3 16.1 38.9 15.8Q38.5 15.5 37.9 15.5L37.9 15.5Q37.2 15.5 36.8 15.7Q36.4 16.0 36.4 16.4L36.4 16.4Q36.4 16.8 36.7 17.1Q37.0 17.3 37.6 17.4L37.6 17.4L38.8 17.7Q39.9 18.0 40.4 18.5Q40.9 19.0 40.9 19.8L40.9 19.8Q40.9 20.5 40.5 21.0Q40.1 21.5 39.4 21.9Q38.7 22.2 37.8 22.2ZM41.7 14.4L45.8 14.4L45.8 15.6L41.7 15.6L41.7 14.4ZM42.8 20.1L42.8 12.5L44.3 12.5L44.3 19.9Q44.3 20.4 44.5 20.6Q44.7 20.8 45.1 20.8L45.1 20.8Q45.2 20.8 45.4 20.8Q45.6 20.8 45.8 20.7L45.8 20.7L46.0 21.9Q45.8 22.0 45.5 22.1Q45.2 22.1 45.0 22.1L45.0 22.1Q43.9 22.1 43.4 21.6Q42.8 21.0 42.8 20.1L42.8 20.1ZM49.5 22.2L49.5 22.2Q48.7 22.2 48.1 21.9Q47.6 21.6 47.2 21.1Q46.9 20.6 46.9 19.8L46.9 19.8Q46.9 19.2 47.1 18.8Q47.4 18.4 47.8 18.1Q48.2 17.9 48.7 17.7Q49.3 17.6 49.8 17.6L49.8 17.6Q50.5 17.5 50.9 17.4Q51.3 17.4 51.5 17.3Q51.7 17.1 51.7 16.9L51.7 16.9L51.7 16.8Q51.7 16.4 51.6 16.1Q51.4 15.8 51.1 15.6Q50.8 15.5 50.3 15.5L50.3 15.5Q49.8 15.5 49.4 15.6Q49.1 15.8 48.8 16.0Q48.6 16.3 48.5 16.5L48.5 16.5L47.1 16.2Q47.4 15.5 47.8 15.1Q48.3 14.6 49.0 14.5Q49.6 14.3 50.2 14.3L50.2 14.3Q50.7 14.3 51.2 14.4Q51.8 14.5 52.2 14.8Q52.7 15.1 53.0 15.6Q53.2 16.1 53.2 16.9L53.2 16.9L53.2 22L51.8 22L51.8 21.0L51.7 21.0Q51.6 21.2 51.3 21.5Q51.0 21.8 50.5 22.0Q50.1 22.2 49.5 22.2ZM49.8 21.0L49.8 21.0Q50.4 21.0 50.8 20.7Q51.3 20.5 51.5 20.1Q51.7 19.7 51.7 19.2L51.7 19.2L51.7 18.3Q51.7 18.3 51.4 18.4Q51.2 18.5 50.9 18.5Q50.6 18.6 50.3 18.6Q50.1 18.7 49.9 18.7L49.9 18.7Q49.5 18.7 49.1 18.9Q48.8 19.0 48.6 19.2Q48.3 19.5 48.3 19.9L48.3 19.9Q48.3 20.2 48.5 20.5Q48.7 20.7 49.0 20.8Q49.4 21.0 49.8 21.0ZM56.8 22L55.3 22L55.3 14.4L56.7 14.4L56.7 15.6L56.8 15.6Q57.0 15.0 57.5 14.6Q58.1 14.2 58.7 14.2L58.7 14.2Q58.9 14.2 59.1 14.3Q59.3 14.3 59.4 14.3L59.4 14.3L59.4 15.7Q59.3 15.7 59.1 15.7Q58.8 15.6 58.6 15.6L58.6 15.6Q58.1 15.6 57.7 15.9Q57.2 16.1 57.0 16.5Q56.8 16.9 56.8 17.4L56.8 17.4L56.8 22ZM63.4 22.2L63.4 22.2Q62.6 22.2 61.9 21.9Q61.3 21.7 60.9 21.2Q60.5 20.7 60.3 20.1L60.3 20.1L61.8 19.8Q61.9 20.4 62.3 20.7Q62.8 20.9 63.4 20.9L63.4 20.9Q64.2 20.9 64.6 20.6Q65.0 20.3 65.0 19.9L65.0 19.9Q65.0 19.5 64.8 19.3Q64.5 19.1 63.9 18.9L63.9 18.9L62.7 18.7Q61.6 18.4 61.1 17.9Q60.6 17.4 60.6 16.5L60.6 16.5Q60.6 15.9 60.9 15.3Q61.3 14.8 62.0 14.5Q62.6 14.3 63.5 14.3L63.5 14.3Q64.3 14.3 64.9 14.5Q65.5 14.7 65.9 15.2Q66.3 15.6 66.4 16.2L66.4 16.2L65.1 16.5Q64.9 16.1 64.6 15.8Q64.2 15.5 63.5 15.5L63.5 15.5Q62.9 15.5 62.5 15.7Q62.1 16.0 62.1 16.4L62.1 16.4Q62.1 16.8 62.4 17.1Q62.6 17.3 63.3 17.4L63.3 17.4L64.5 17.7Q65.5 18.0 66.1 18.5Q66.6 19.0 66.6 19.8L66.6 19.8Q66.6 20.5 66.2 21.0Q65.8 21.5 65.1 21.9Q64.4 22.2 63.4 22.2Z "/></g><mask id="satori_om-id-3-1"><rect x="68" y="8" width="6" height="17" fill="#fff"/></mask><mask id="satori_om-id-4"><rect x="74" y="8" width="42" height="17" fill="#fff"/></mask><g  ><path fill="#18181b" d="M76.9 11.8L78.7 11.8L78.7 22L77.1 22L77.1 13.2L77.1 13.2L74.6 15.0L74.6 13.4L76.9 11.8ZM84.2 22.1L84.2 22.1Q83.2 22.1 82.4 21.8Q81.6 21.4 81.1 20.8Q80.6 20.2 80.6 19.3L80.6 19.3L82.2 19.3Q82.2 19.8 82.5 20.1Q82.8 20.4 83.2 20.6Q83.6 20.8 84.2 20.8L84.2 20.8Q84.8 20.8 85.3 20.6Q85.7 20.4 86.0 20.0Q86.2 19.6 86.2 19.1L86.2 19.1Q86.2 18.6 86.0 18.3Q85.7 17.9 85.2 17.6Q84.7 17.4 84.0 17.4L84.0 17.4L83.2 17.4L83.2 16.2L84.0 16.2Q84.6 16.2 85.0 16.0Q85.5 15.8 85.7 15.4Q85.9 15.0 85.9 14.5L85.9 14.5Q85.9 14.1 85.7 13.7Q85.5 13.4 85.1 13.2Q84.7 13.0 84.2 13.0L84.2 13.0Q83.7 13.0 83.3 13.2Q82.9 13.3 82.6 13.7Q82.3 14.0 82.3 14.5L82.3 14.5L80.8 14.5Q80.8 13.6 81.3 13.0Q81.8 12.4 82.5 12.0Q83.3 11.7 84.2 11.7L84.2 11.7Q85.2 11.7 85.9 12.1Q86.7 12.4 87.1 13.1Q87.4 13.7 87.4 14.5L87.4 14.5Q87.4 15.3 87.0 15.9Q86.5 16.5 85.7 16.7L85.7 16.7L85.7 16.8Q86.4 16.9 86.8 17.2Q87.3 17.5 87.6 18.1Q87.8 18.6 87.8 19.2L87.8 19.2Q87.8 20.0 87.4 20.7Q86.9 21.4 86.1 21.8Q85.3 22.1 84.2 22.1ZM92.8 22.1L92.8 22.1Q91.9 22.1 91.2 21.8Q90.5 21.4 90.0 20.8Q89.6 20.1 89.4 19.3L89.4 19.3L91.0 19.3Q91.1 20.0 91.6 20.4Q92.0 20.8 92.8 20.8L92.8 20.8Q93.5 20.8 94.1 20.3Q94.6 19.9 94.9 19.1Q95.1 18.3 95.1 17.1L95.1 17.1L95.1 17.1Q94.8 17.5 94.4 17.8Q94.0 18.1 93.6 18.3Q93.1 18.5 92.5 18.5L92.5 18.5Q91.7 18.5 90.9 18.0Q90.2 17.6 89.8 16.9Q89.4 16.1 89.4 15.1L89.4 15.1Q89.4 14.2 89.8 13.4Q90.2 12.6 91.1 12.1Q91.9 11.7 92.9 11.7L92.9 11.7Q93.6 11.7 94.3 11.9Q94.9 12.2 95.5 12.7Q96.0 13.3 96.3 14.2Q96.6 15.2 96.6 16.6L96.6 16.6Q96.6 17.9 96.4 18.9Q96.1 20.0 95.6 20.7Q95.1 21.4 94.4 21.8Q93.7 22.1 92.8 22.1ZM92.9 17.2L92.9 17.2Q93.3 17.2 93.7 17.0Q94.1 16.9 94.4 16.6Q94.6 16.3 94.8 15.9Q95.0 15.5 95.0 15.1L95.0 15.1Q95.0 14.5 94.7 14.1Q94.4 13.6 94.0 13.3Q93.5 13.0 92.9 13.0L92.9 13.0Q92.3 13.0 91.9 13.3Q91.4 13.6 91.2 14.0Q90.9 14.5 90.9 15.1L90.9 15.1Q90.9 15.7 91.1 16.2Q91.4 16.6 91.9 16.9Q92.3 17.2 92.9 17.2ZM99.2 22.1L99.2 22.1Q98.7 22.1 98.4 21.8Q98.1 21.5 98.1 21.1L98.1 21.1Q98.1 20.7 98.4 20.4Q98.7 20.1 99.2 20.1L99.2 20.1Q99.6 20.1 99.9 20.4Q100.2 20.7 100.2 21.1L100.2 21.1Q100.2 21.5 99.9 21.8Q99.6 22.1 99.2 22.1ZM102.9 11.8L104.7 11.8L104.7 22L103.2 22L103.2 13.2L103.1 13.2L100.7 15.0L100.7 13.4L102.9 11.8ZM109.6 18.1L108.3 19.4L108.3 17.6L108.5 17.6L111.5 14.4L113.3 14.4L109.9 18.1L109.6 18.1ZM108.4 22L106.9 22L106.9 11.8L108.4 11.8L108.4 22ZM113.5 22L111.7 22L109.0 18.4L110.0 17.3L113.5 22Z "/></g></svg>