<svg width="138" height="32" viewBox="0 0 138 32" xmlns="http://www.w3.org/2000/svg"><mask id="satori_om-id"><rect x="0" y="0" width="138" height="32" fill="#fff"/></mask><path x="0" y="0" width="138" height="32" fill="#2563eb" d="M6,0 h126 a6,6 0 0 1 6,6 v20 a6,6 0 0 1 -6,6 h-126 a6,6 0 0 1 -6,-6 v-20 a6,6 0 0 1 6,-6"/><clipPath id="satori_cp-id-1"><rect x="12" y="8" width="16" height="16"/></clipPath><mask id="satori_om-id-1"><rect x="12" y="8" width="16" height="16" fill="#fff"/></mask><image x="12" y="8" width="16" height="16" href="data:image/svg+xml;utf8,%3Csvg  xmlns=%22http://www.w3.org/2000/svg%22 width=%2216%22 height=%2216%22 viewBox=%220 0 24 24%22%3E%3Cpath fill=%22%232496ED%22 d=%22M13.983 11.078h2.119a.186.186 0 00.186-.185V9.006a.186.186 0 00-.186-.186h-2.119a.185.185 0 00-.185.185v1.888c0 .102.083.185.185.185m-2.954-5.43h2.118a.186.186 0 00.186-.186V3.574a.186.186 0 00-.186-.185h-2.118a.185.185 0 00-.185.185v1.888c0 .102.082.185.185.185m0 2.716h2.118a.187.187 0 00.186-.186V6.29a.186.186 0 00-.186-.185h-2.118a.185.185 0 00-.185.185v1.887c0 .102.082.185.185.186m-2.93 0h2.12a.186.186 0 00.184-.186V6.29a.185.185 0 00-.185-.185H8.1a.185.185 0 00-.185.185v1.887c0 .102.083.185.185.186m-2.964 0h2.119a.186.186 0 00.185-.186V6.29a.185.185 0 00-.185-.185H5.136a.186.186 0 00-.186.185v1.887c0 .102.084.185.186.186m5.893 2.715h2.118a.186.186 0 00.186-.185V9.006a.186.186 0 00-.186-.186h-2.118a.185.185 0 00-.185.185v1.888c0 .102.082.185.185.185m-2.93 0h2.12a.185.185 0 00.184-.185V9.006a.185.185 0 00-.184-.186h-2.12a.185.185 0 00-.184.185v1.888c0 .102.083.185.185.185m-2.964 0h2.119a.185.185 0 00.185-.185V9.006a.185.185 0 00-.184-.186h-2.12a.186.186 0 00-.186.186v1.887c0 .102.084.185.186.185m-2.92 0h2.12a.185.185 0 00.184-.185V9.006a.185.185 0 00-.184-.186h-2.12a.185.185 0 00-.184.185v1.888c0 .102.082.185.185.185M23.763 9.89c-.065-.051-.672-.51-1.954-.51-.338.001-.676.03-1.01.087-.248-1.7-1.653-2.53-1.716-2.566l-.344-.199-.226.327c-.284.438-.49.922-.612 1.43-.23.97-.09 1.882.403 2.661-.595.332-1.55.413-1.744.42H.751a.751.751 0 00-.75.748 11.376 11.376 0 00.692 4.062c.545 1.428 1.355 2.48 2.41 3.124 1.18.723 3.1 1.137 5.275 1.137.983.003 1.963-.086 2.93-.266a12.248 12.248 0 003.823-1.389c.98-.567 1.86-1.288 2.61-2.136 1.252-1.418 1.998-2.997 2.553-4.4h.221c1.372 0 2.215-.549 2.68-1.009.309-.293.55-.65.707-1.046l.098-.288Z%22 fill-rule=%22undefined%22%3E%3C/path%3E%3C/svg%3E" preserveAspectRatio="none" clip-path="url(#satori_cp-id-1)" mask="url(#satori_om-id-1)"/><mask id="satori_om-id-1-0"><rect x="12" y="8" width="0" height="16" fill="#fff"/></mask><mask id="satori_om-id-2"><rect x="28" y="16" width="6" height="0" fill="#fff"/></mask><mask id="satori_om-id-3"><rect x="34" y="8" width="55" height="17" fill="#fff"/></mask><mask id="satori_om-id-3-0"><rect x="34" y="8" width="49" height="17" fill="#fff"/></mask><g  ><path fill="rgba(255,255,255,0.7)" d="M38.4 22L38.4 22L35.9 22L35.9 20.6L38.4 20.6Q39.5 20.6 40.3 20.2Q41.0 19.8 41.4 18.9Q41.8 18.1 41.8 16.9L41.8 16.9Q41.8 15.7 41.4 14.9Q41.0 14.0 40.3 13.6Q39.6 13.2 38.4 13.2L38.4 13.2L35.9 13.2L35.9 11.8L38.5 11.8Q40.0 11.8 41.1 12.4Q42.2 13.0 42.8 14.2Q43.3 15.3 43.3 16.9L43.3 16.9Q43.3 18.5 42.8 19.6Q42.2 20.8 41.1 21.4Q40.0 22 38.4 22ZM35.1 11.8L36.7 11.8L36.7 22L35.1 22L35.1 11.8ZM48.3 22.2L48.3 22.2Q47.3 22.2 46.5 21.7Q45.6 21.2 45.2 20.3Q44.8 19.4 44.8 18.2L44.8 18.2Q44.8 17.0 45.2 16.1Q45.6 15.2 46.5 14.8Q47.3 14.3 48.3 14.3L48.3 14.3Q49.4 14.3 50.2 14.8Q51.0 15.2 51.5 16.1Q51.9 17.0 51.9 18.2L51.9 18.2Q51.9 19.4 51.5 20.3Q51.0 21.2 50.2 21.7Q49.4 22.2 48.3 22.2ZM48.3 20.9L48.3 20.9Q49.0 20.9 49.5 20.5Q49.9 20.2 50.2 19.5Q50.4 18.9 50.4 18.2L50.4 18.2Q50.4 17.5 50.2 16.9Q49.9 16.3 49.5 15.9Q49.0 15.5 48.3 15.5L48.3 15.5Q47.6 15.5 47.2 15.9Q46.7 16.3 46.5 16.9Q46.3 17.5 46.3 18.2L46.3 18.2Q46.3 18.9 46.5 19.5Q46.7 20.2 47.2 20.5Q47.6 20.9 48.3 20.9ZM56.8 22.2L56.8 22.2Q55.7 22.2 54.9 21.7Q54.1 21.2 53.7 20.3Q53.2 19.4 53.2 18.2L53.2 18.2Q53.2 17.0 53.7 16.1Q54.1 15.2 54.9 14.8Q55.7 14.3 56.8 14.3L56.8 14.3Q57.4 14.3 57.9 14.4Q58.4 14.6 58.8 14.9Q59.3 15.2 59.5 15.6Q59.8 16.0 60.0 16.5L60.0 16.5L58.6 16.9Q58.5 16.6 58.3 16.3Q58.2 16.1 57.9 15.9Q57.7 15.7 57.4 15.6Q57.1 15.5 56.8 15.5L56.8 15.5Q56.1 15.5 55.6 15.9Q55.2 16.3 55.0 16.9Q54.7 17.5 54.7 18.2L54.7 18.2Q54.7 19.0 55.0 19.6Q55.2 20.2 55.6 20.5Q56.1 20.9 56.8 20.9L56.8 20.9Q57.1 20.9 57.4 20.8Q57.7 20.7 58.0 20.5Q58.2 20.3 58.4 20.1Q58.5 19.8 58.6 19.5L58.6 19.5L60.0 19.8Q59.9 20.4 59.6 20.8Q59.3 21.2 58.9 21.5Q58.4 21.8 57.9 22Q57.4 22.2 56.8 22.2ZM64.4 18.1L63.0 19.4L63.0 17.6L63.3 17.6L66.3 14.4L68.1 14.4L64.7 18.1L64.4 18.1ZM63.2 22L61.7 22L61.7 11.8L63.2 11.8L63.2 22ZM68.3 22L66.5 22L63.8 18.4L64.8 17.3L68.3 22ZM72.8 22.2L72.8 22.2Q71.6 22.2 70.8 21.7Q70.0 21.2 69.6 20.3Q69.1 19.4 69.1 18.2L69.1 18.2Q69.1 17.1 69.6 16.2Q70.0 15.3 70.8 14.8Q71.6 14.3 72.6 14.3L72.6 14.3Q73.3 14.3 73.9 14.5Q74.5 14.7 75.0 15.2Q75.5 15.6 75.8 16.3Q76.1 17.1 76.1 18.1L76.1 18.1L76.1 18.6L70.0 18.6L70.0 17.5L75.3 17.5L74.6 17.9Q74.6 17.2 74.4 16.6Q74.1 16.1 73.7 15.8Q73.3 15.5 72.6 15.5L72.6 15.5Q72.0 15.5 71.6 15.8Q71.1 16.1 70.9 16.6Q70.6 17.1 70.6 17.7L70.6 17.7L70.6 18.5Q70.6 19.3 70.9 19.8Q71.2 20.4 71.7 20.6Q72.1 20.9 72.8 20.9L72.8 20.9Q73.2 20.9 73.6 20.8Q73.9 20.7 74.1 20.4Q74.4 20.2 74.5 19.8L74.5 19.8L75.9 20.2Q75.8 20.8 75.3 21.2Q74.9 21.7 74.2 21.9Q73.6 22.2 72.8 22.2ZM79.2 22L77.7 22L77.7 14.4L79.2 14.4L79.2 15.6L79.2 15.6Q79.5 15.0 80.0 14.6Q80.5 14.2 81.2 14.2L81.2 14.2Q81.3 14.2 81.5 14.3Q81.7 14.3 81.8 14.3L81.8 14.3L81.8 15.7Q81.7 15.7 81.5 15.7Q81.3 15.6 81.0 15.6L81.0 15.6Q80.5 15.6 80.1 15.9Q79.7 16.1 79.4 16.5Q79.2 16.9 79.2 17.4L79.2 17.4L79.2 22Z "/></g><mask id="satori_om-id-3-1"><rect x="83" y="8" width="6" height="17" fill="#fff"/></mask><mask id="satori_om-id-4"><rect x="89" y="8" width="37" height="17" fill="#fff"/></mask><g  ><path fill="#ffffff" d="M90.0 11.8L91.5 11.8L91.5 22L90.0 22L90.0 11.8ZM95.7 22.2L95.7 22.2Q95.0 22.2 94.4 21.9Q93.8 21.6 93.4 21.1Q93.1 20.6 93.1 19.8L93.1 19.8Q93.1 19.2 93.3 18.8Q93.6 18.4 94.0 18.1Q94.4 17.9 95.0 17.7Q95.5 17.6 96.0 17.6L96.0 17.6Q96.7 17.5 97.1 17.4Q97.6 17.4 97.8 17.3Q98.0 17.1 98.0 16.9L98.0 16.9L98.0 16.8Q98.0 16.4 97.8 16.1Q97.6 15.8 97.3 15.6Q97.0 15.5 96.5 15.5L96.5 15.5Q96 15.5 95.6 15.6Q95.3 15.8 95.1 16.0Q94.8 16.3 94.7 16.5L94.7 16.5L93.3 16.2Q93.6 15.5 94.1 15.1Q94.5 14.6 95.2 14.5Q95.8 14.3 96.5 14.3L96.5 14.3Q96.9 14.3 97.5 14.4Q98.0 14.5 98.4 14.8Q98.9 15.1 99.2 15.6Q99.5 16.1 99.5 16.9L99.5 16.9L99.5 22L98.0 22L98.0 21.0L97.9 21.0Q97.8 21.2 97.5 21.5Q97.2 21.8 96.7 22.0Q96.3 22.2 95.7 22.2ZM96.0 21.0L96.0 21.0Q96.6 21.0 97.1 20.7Q97.5 20.5 97.7 20.1Q98.0 19.7 98.0 19.2L98.0 19.2L98.0 18.3Q97.9 18.3 97.7 18.4Q97.4 18.5 97.1 18.5Q96.8 18.6 96.6 18.6Q96.3 18.7 96.1 18.7L96.1 18.7Q95.7 18.7 95.3 18.9Q95.0 19.0 94.8 19.2Q94.6 19.5 94.6 19.9L94.6 19.9Q94.6 20.2 94.8 20.5Q94.9 20.7 95.3 20.8Q95.6 21.0 96.0 21.0ZM100.6 14.4L104.8 14.4L104.8 15.6L100.6 15.6L100.6 14.4ZM101.7 20.1L101.7 12.5L103.2 12.5L103.2 19.9Q103.2 20.4 103.4 20.6Q103.6 20.8 104.1 20.8L104.1 20.8Q104.2 20.8 104.4 20.8Q104.6 20.8 104.7 20.7L104.7 20.7L105.0 21.9Q104.7 22.0 104.5 22.1Q104.2 22.1 103.9 22.1L103.9 22.1Q102.9 22.1 102.3 21.6Q101.7 21.0 101.7 20.1L101.7 20.1ZM109.5 22.2L109.5 22.2Q108.4 22.2 107.6 21.7Q106.8 21.2 106.3 20.3Q105.9 19.4 105.9 18.2L105.9 18.2Q105.9 17.1 106.3 16.2Q106.8 15.3 107.6 14.8Q108.4 14.3 109.4 14.3L109.4 14.3Q110.1 14.3 110.7 14.5Q111.3 14.7 111.8 15.2Q112.3 15.6 112.5 16.3Q112.8 17.1 112.8 18.1L112.8 18.1L112.8 18.6L106.7 18.6L106.7 17.5L112.1 17.5L111.4 17.9Q111.4 17.2 111.1 16.6Q110.9 16.1 110.5 15.8Q110.1 15.5 109.4 15.5L109.4 15.5Q108.8 15.5 108.3 15.8Q107.9 16.1 107.6 16.6Q107.4 17.1 107.4 17.7L107.4 17.7L107.4 18.5Q107.4 19.3 107.7 19.8Q107.9 20.4 108.4 20.6Q108.9 20.9 109.6 20.9L109.6 20.9Q110.0 20.9 110.3 20.8Q110.7 20.7 110.9 20.4Q111.2 20.2 111.3 19.8L111.3 19.8L112.7 20.2Q112.5 20.8 112.1 21.2Q111.7 21.7 111.0 21.9Q110.4 22.2 109.5 22.2ZM117.2 22.2L117.2 22.2Q116.4 22.2 115.7 21.9Q115.1 21.7 114.7 21.2Q114.3 20.7 114.1 20.1L114.1 20.1L115.6 19.8Q115.7 20.4 116.1 20.7Q116.6 20.9 117.2 20.9L117.2 20.9Q118.0 20.9 118.4 20.6Q118.8 20.3 118.8 19.9L118.8 19.9Q118.8 19.5 118.6 19.3Q118.3 19.1 117.7 18.9L117.7 18.9L116.5 18.7Q115.4 18.4 114.9 17.9Q114.4 17.4 114.4 16.5L114.4 16.5Q114.4 15.9 114.7 15.3Q115.1 14.8 115.8 14.5Q116.4 14.3 117.3 14.3L117.3 14.3Q118.1 14.3 118.7 14.5Q119.3 14.7 119.7 15.2Q120.0 15.6 120.2 16.2L120.2 16.2L118.9 16.5Q118.7 16.1 118.4 15.8Q118.0 15.5 117.3 15.5L117.3 15.5Q116.7 15.5 116.3 15.7Q115.9 16.0 115.9 16.4L115.9 16.4Q115.9 16.8 116.1 17.1Q116.4 17.3 117.1 17.4L117.1 17.4L118.3 17.7Q119.3 18.0 119.9 18.5Q120.4 19.0 120.4 19.8L120.4 19.8Q120.4 20.5 120.0 21.0Q119.6 21.5 118.9 21.9Q118.2 22.2 117.2 22.2ZM121.1 14.4L125.3 14.4L125.3 15.6L121.1 15.6L121.1 14.4ZM122.3 20.1L122.3 12.5L123.8 12.5L123.8 19.9Q123.8 20.4 124.0 20.6Q124.2 20.8 124.6 20.8L124.6 20.8Q124.7 20.8 124.9 20.8Q125.1 20.8 125.2 20.7L125.2 20.7L125.5 21.9Q125.3 22.0 125.0 22.1Q124.7 22.1 124.4 22.1L124.4 22.1Q123.4 22.1 122.8 21.6Q122.3 21.0 122.3 20.1L122.3 20.1Z "/></g></svg>