<svg width="106" height="32" viewBox="0 0 106 32" xmlns="http://www.w3.org/2000/svg"><mask id="satori_om-id"><rect x="0" y="0" width="106" height="32" fill="#fff"/></mask><path x="0" y="0" width="106" height="32" fill="#2563eb" d="M6,0 h94 a6,6 0 0 1 6,6 v20 a6,6 0 0 1 -6,6 h-94 a6,6 0 0 1 -6,-6 v-20 a6,6 0 0 1 6,-6"/><clipPath id="satori_cp-id-1"><rect x="12" y="8" width="16" height="16"/></clipPath><mask id="satori_om-id-1"><rect x="12" y="8" width="16" height="16" fill="#fff"/></mask><image x="12" y="8" width="16" height="16" href="data:image/svg+xml;utf8,%3Csvg  xmlns=%22http://www.w3.org/2000/svg%22 width=%2216%22 height=%2216%22 viewBox=%220 0 24 24%22%3E%3Cpath fill=%22%2361DAFB%22 d=%22M14.23 12.004a2.236 2.236 0 0 1-2.235 2.236 2.236 2.236 0 0 1-2.236-2.236 2.236 2.236 0 0 1 2.235-2.236 2.236 2.236 0 0 1 2.236 2.236zm2.648-10.69c-1.346 0-3.107.96-4.888 2.622-1.78-1.653-3.542-2.602-4.887-2.602-.41 0-.783.093-1.106.278-1.375.793-1.683 3.264-.973 6.365C1.98 8.917 0 10.42 0 12.004c0 1.59 1.99 3.097 5.043 4.03-.704 3.113-.39 5.588.988 6.38.32.187.69.275 1.102.275 1.345 0 3.107-.96 4.888-2.624 1.78 1.654 3.542 2.603 4.887 2.603.41 0 .783-.09 1.106-.275 1.374-.792 1.683-3.263.973-6.365C22.02 15.096 24 13.59 24 12.004c0-1.59-1.99-3.097-5.043-4.032.704-3.11.39-5.587-.988-6.38-.318-.184-.688-.277-1.092-.278zm-.005 1.09v.006c.225 0 .406.044.558.127.666.382.955 1.835.73 3.704-.054.46-.142.945-.25 1.44-.96-.236-2.006-.417-3.107-.534-.66-.905-1.345-1.727-2.035-2.447 1.592-1.48 3.087-2.292 4.105-2.295zm-9.77.02c1.012 0 2.514.808 4.11 2.28-.686.72-1.37 1.537-2.02 2.442-1.107.117-2.154.298-3.113.538-.112-.49-.195-.964-.254-1.42-.23-1.868.054-3.32.714-3.707.19-.09.4-.127.563-.132zm4.882 3.05c.455.468.91.992 1.36 1.564-.44-.02-.89-.034-1.345-.034-.46 0-.915.01-1.36.034.44-.572.895-1.096 1.345-1.565zM12 8.1c.74 0 1.477.034 2.202.093.406.582.802 1.203 1.183 1.86.372.64.71 1.29 1.018 1.946-.308.655-.646 1.31-1.013 1.95-.38.66-.773 1.288-1.18 1.87-.728.063-1.466.098-2.21.098-.74 0-1.477-.035-2.202-.093-.406-.582-.802-1.204-1.183-1.86-.372-.64-.71-1.29-1.018-1.946.303-.657.646-1.313 1.013-1.954.38-.66.773-1.286 1.18-1.868.728-.064 1.466-.098 2.21-.098zm-3.635.254c-.24.377-.48.763-.704 1.16-.225.39-.435.782-.635 1.174-.265-.656-.49-1.31-.676-1.947.64-.15 1.315-.283 2.015-.386zm7.26 0c.695.103 1.365.23 2.006.387-.18.632-.405 1.282-.66 1.933-.2-.39-.41-.783-.64-1.174-.225-.392-.465-.774-.705-1.146zm3.063.675c.484.15.944.317 1.375.498 1.732.74 2.852 1.708 2.852 2.476-.005.768-1.125 1.74-2.857 2.475-.42.18-.88.342-1.355.493-.28-.958-.646-1.956-1.1-2.98.45-1.017.81-2.01 1.085-2.964zm-13.395.004c.278.96.645 1.957 1.1 2.98-.45 1.017-.812 2.01-1.086 2.964-.484-.15-.944-.318-1.37-.5-1.732-.737-2.852-1.706-2.852-2.474 0-.768 1.12-1.742 2.852-2.476.42-.18.88-.342 1.356-.494zm11.678 4.28c.265.657.49 1.312.676 1.948-.64.157-1.316.29-2.016.39.24-.375.48-.762.705-1.158.225-.39.435-.788.636-1.18zm-9.945.02c.2.392.41.783.64 1.175.23.39.465.772.705 1.143-.695-.102-1.365-.23-2.006-.386.18-.63.406-1.282.66-1.933zM17.92 16.32c.112.493.2.968.254 1.423.23 1.868-.054 3.32-.714 3.708-.147.09-.338.128-.563.128-1.012 0-2.514-.807-4.11-2.28.686-.72 1.37-1.536 2.02-2.44 1.107-.118 2.154-.3 3.113-.54zm-11.83.01c.96.234 2.006.415 3.107.532.66.905 1.345 1.727 2.035 2.446-1.595 1.483-3.092 2.295-4.11 2.295-.22-.005-.406-.05-.553-.132-.666-.38-.955-1.834-.73-3.703.054-.46.142-.944.25-1.438zm4.56.64c.44.02.89.034 1.345.034.46 0 .915-.01 1.36-.034-.44.572-.895 1.095-1.345 1.565-.455-.47-.91-.993-1.36-1.565z%22 fill-rule=%22undefined%22%3E%3C/path%3E%3C/svg%3E" preserveAspectRatio="none" clip-path="url(#satori_cp-id-1)" mask="url(#satori_om-id-1)"/><mask id="satori_om-id-1-0"><rect x="12" y="8" width="0" height="16" fill="#fff"/></mask><mask id="satori_om-id-2"><rect x="28" y="16" width="6" height="0" fill="#fff"/></mask><mask id="satori_om-id-3"><rect x="34" y="8" width="45" height="17" fill="#fff"/></mask><mask id="satori_om-id-3-0"><rect x="34" y="8" width="39" height="17" fill="#fff"/></mask><g  ><path fill="rgba(255,255,255,0.7)" d="M36.7 22L35.1 22L35.1 11.8L38.8 11.8Q40.0 11.8 40.7 12.2Q41.5 12.6 41.9 13.4Q42.3 14.1 42.3 15.0L42.3 15.0Q42.3 16.0 41.9 16.7Q41.5 17.4 40.7 17.8Q39.9 18.2 38.8 18.2L38.8 18.2L36.0 18.2L36.0 16.8L38.6 16.8Q39.4 16.8 39.8 16.6Q40.3 16.4 40.5 16.0Q40.7 15.6 40.7 15.0L40.7 15.0Q40.7 14.4 40.5 14.0Q40.3 13.6 39.8 13.4Q39.4 13.1 38.6 13.1L38.6 13.1L36.7 13.1L36.7 22ZM42.7 22L40.9 22L38.5 17.4L40.2 17.4L42.7 22ZM47.4 22.2L47.4 22.2Q46.3 22.2 45.4 21.7Q44.6 21.2 44.2 20.3Q43.7 19.4 43.7 18.2L43.7 18.2Q43.7 17.1 44.2 16.2Q44.6 15.3 45.4 14.8Q46.2 14.3 47.2 14.3L47.2 14.3Q47.9 14.3 48.5 14.5Q49.1 14.7 49.6 15.2Q50.1 15.6 50.4 16.3Q50.7 17.1 50.7 18.1L50.7 18.1L50.7 18.6L44.6 18.6L44.6 17.5L49.9 17.5L49.2 17.9Q49.2 17.2 49.0 16.6Q48.7 16.1 48.3 15.8Q47.9 15.5 47.2 15.5L47.2 15.5Q46.6 15.5 46.2 15.8Q45.7 16.1 45.5 16.6Q45.2 17.1 45.2 17.7L45.2 17.7L45.2 18.5Q45.2 19.3 45.5 19.8Q45.8 20.4 46.3 20.6Q46.7 20.9 47.4 20.9L47.4 20.9Q47.8 20.9 48.2 20.8Q48.5 20.7 48.7 20.4Q49.0 20.2 49.1 19.8L49.1 19.8L50.5 20.2Q50.4 20.8 49.9 21.2Q49.5 21.7 48.8 21.9Q48.2 22.2 47.4 22.2ZM54.4 22.2L54.4 22.2Q53.7 22.2 53.1 21.9Q52.5 21.6 52.2 21.1Q51.9 20.6 51.9 19.8L51.9 19.8Q51.9 19.2 52.1 18.8Q52.4 18.4 52.8 18.1Q53.2 17.9 53.7 17.7Q54.3 17.6 54.8 17.6L54.8 17.6Q55.5 17.5 55.9 17.4Q56.3 17.4 56.5 17.3Q56.7 17.1 56.7 16.9L56.7 16.9L56.7 16.8Q56.7 16.4 56.6 16.1Q56.4 15.8 56.1 15.6Q55.8 15.5 55.3 15.5L55.3 15.5Q54.8 15.5 54.4 15.6Q54.0 15.8 53.8 16.0Q53.6 16.3 53.5 16.5L53.5 16.5L52.1 16.2Q52.3 15.5 52.8 15.1Q53.3 14.6 53.9 14.5Q54.6 14.3 55.2 14.3L55.2 14.3Q55.7 14.3 56.2 14.4Q56.7 14.5 57.2 14.8Q57.7 15.1 57.9 15.6Q58.2 16.1 58.2 16.9L58.2 16.9L58.2 22L56.8 22L56.8 21.0L56.7 21.0Q56.6 21.2 56.3 21.5Q56.0 21.8 55.5 22.0Q55.1 22.2 54.4 22.2ZM54.8 21.0L54.8 21.0Q55.4 21.0 55.8 20.7Q56.3 20.5 56.5 20.1Q56.7 19.7 56.7 19.2L56.7 19.2L56.7 18.3Q56.7 18.3 56.4 18.4Q56.2 18.5 55.9 18.5Q55.6 18.6 55.3 18.6Q55.1 18.7 54.9 18.7L54.9 18.7Q54.5 18.7 54.1 18.9Q53.8 19.0 53.5 19.2Q53.3 19.5 53.3 19.9L53.3 19.9Q53.3 20.2 53.5 20.5Q53.7 20.7 54.0 20.8Q54.4 21.0 54.8 21.0ZM63.5 22.2L63.5 22.2Q62.4 22.2 61.6 21.7Q60.8 21.2 60.3 20.3Q59.9 19.4 59.9 18.2L59.9 18.2Q59.9 17.0 60.3 16.1Q60.8 15.2 61.6 14.8Q62.4 14.3 63.5 14.3L63.5 14.3Q64.1 14.3 64.6 14.4Q65.1 14.6 65.5 14.9Q65.9 15.2 66.2 15.6Q66.5 16.0 66.7 16.5L66.7 16.5L65.2 16.9Q65.2 16.6 65.0 16.3Q64.9 16.1 64.6 15.9Q64.4 15.7 64.1 15.6Q63.8 15.5 63.5 15.5L63.5 15.5Q62.8 15.5 62.3 15.9Q61.9 16.3 61.7 16.9Q61.4 17.5 61.4 18.2L61.4 18.2Q61.4 19.0 61.7 19.6Q61.9 20.2 62.3 20.5Q62.8 20.9 63.5 20.9L63.5 20.9Q63.8 20.9 64.1 20.8Q64.4 20.7 64.7 20.5Q64.9 20.3 65.0 20.1Q65.2 19.8 65.3 19.5L65.3 19.5L66.7 19.8Q66.6 20.4 66.3 20.8Q66.0 21.2 65.5 21.5Q65.1 21.8 64.6 22Q64.1 22.2 63.5 22.2ZM67.5 14.4L71.6 14.4L71.6 15.6L67.5 15.6L67.5 14.4ZM68.6 20.1L68.6 12.5L70.1 12.5L70.1 19.9Q70.1 20.4 70.3 20.6Q70.5 20.8 70.9 20.8L70.9 20.8Q71.0 20.8 71.2 20.8Q71.4 20.8 71.5 20.7L71.5 20.7L71.8 21.9Q71.6 22.0 71.3 22.1Q71.0 22.1 70.8 22.1L70.8 22.1Q69.7 22.1 69.2 21.6Q68.6 21.0 68.6 20.1L68.6 20.1Z "/></g><mask id="satori_om-id-3-1"><rect x="73" y="8" width="6" height="17" fill="#fff"/></mask><mask id="satori_om-id-4"><rect x="79" y="8" width="15" height="17" fill="#fff"/></mask><g  ><path fill="#ffffff" d="M81.9 11.8L83.7 11.8L83.7 22L82.1 22L82.1 13.2L82.1 13.2L79.6 15.0L79.6 13.4L81.9 11.8ZM89.0 22.1L89.0 22.1Q88.1 22.1 87.4 21.8Q86.7 21.4 86.2 20.8Q85.8 20.1 85.7 19.3L85.7 19.3L87.2 19.3Q87.4 20.0 87.8 20.4Q88.3 20.8 89.0 20.8L89.0 20.8Q89.8 20.8 90.3 20.3Q90.8 19.9 91.1 19.1Q91.4 18.3 91.4 17.1L91.4 17.1L91.3 17.1Q91.0 17.5 90.6 17.8Q90.3 18.1 89.8 18.3Q89.3 18.5 88.8 18.5L88.8 18.5Q87.9 18.5 87.2 18.0Q86.4 17.6 86.0 16.9Q85.6 16.1 85.6 15.1L85.6 15.1Q85.6 14.2 86.0 13.4Q86.5 12.6 87.3 12.1Q88.1 11.7 89.2 11.7L89.2 11.7Q89.8 11.7 90.5 11.9Q91.1 12.2 91.7 12.7Q92.2 13.3 92.5 14.2Q92.9 15.2 92.9 16.6L92.9 16.6Q92.9 17.9 92.6 18.9Q92.3 20.0 91.8 20.7Q91.3 21.4 90.6 21.8Q89.9 22.1 89.0 22.1ZM89.1 17.2L89.1 17.2Q89.5 17.2 89.9 17.0Q90.3 16.9 90.6 16.6Q90.9 16.3 91.0 15.9Q91.2 15.5 91.2 15.1L91.2 15.1Q91.2 14.5 90.9 14.1Q90.6 13.6 90.2 13.3Q89.7 13.0 89.1 13.0L89.1 13.0Q88.6 13.0 88.1 13.3Q87.6 13.6 87.4 14.0Q87.1 14.5 87.1 15.1L87.1 15.1Q87.1 15.7 87.4 16.2Q87.6 16.6 88.1 16.9Q88.5 17.2 89.1 17.2Z "/></g></svg>