<svg width="133" height="32" viewBox="0 0 133 32" xmlns="http://www.w3.org/2000/svg"><defs><clipPath id="satori_bc-id"><path x="0" y="0" width="133" height="32" d="M6,0 h121 a6,6 0 0 1 6,6 v20 a6,6 0 0 1 -6,6 h-121 a6,6 0 0 1 -6,-6 v-20 a6,6 0 0 1 6,-6"/></clipPath></defs><mask id="satori_om-id"><rect x="1" y="1" width="131" height="30" fill="#fff"/><path width="133" height="32" fill="none" stroke="#000" stroke-width="2" d="M1.7569999999999997,1.7569999999999997 A6,6 0 0 1 6,0 h121 a6,6 0 0 1 6,6 v20 a6,6 0 0 1 -6,6 h-121 a6,6 0 0 1 -6,-6 v-20 A6,6 0 0 1 1.7569999999999997,1.7569999999999997"/></mask><path width="133" height="32" clip-path="url(#satori_bc-id)" fill="none" stroke="#27272a" stroke-width="2" d="M1.7569999999999997,1.7569999999999997 A6,6 0 0 1 6,0 h121 a6,6 0 0 1 6,6 v20 a6,6 0 0 1 -6,6 h-121 a6,6 0 0 1 -6,-6 v-20 A6,6 0 0 1 1.7569999999999997,1.7569999999999997"/><clipPath id="satori_cp-id-1"><rect x="13" y="8" width="16" height="16"/></clipPath><mask id="satori_om-id-1"><rect x="13" y="8" width="16" height="16" fill="#fff"/></mask><image x="13" y="8" width="16" height="16" href="data:image/svg+xml;utf8,%3Csvg  xmlns=%22http://www.w3.org/2000/svg%22 width=%2216%22 height=%2216%22 viewBox=%220 0 24 24%22%3E%3Cpath fill=%22rgba(250,250,250,0.85)%22 d=%22M1.763 0C.786 0 0 .786 0 1.763v20.474C0 23.214.786 24 1.763 24h20.474c.977 0 1.763-.786 1.763-1.763V1.763C24 .786 23.214 0 22.237 0zM5.13 5.323l13.837.019-.009 13.836h-3.464l.01-10.382h-3.456L12.04 19.17H5.113z%22 fill-rule=%22undefined%22%3E%3C/path%3E%3C/svg%3E" preserveAspectRatio="none" clip-path="url(#satori_cp-id-1)" mask="url(#satori_om-id-1)"/><mask id="satori_om-id-1-0"><rect x="13" y="8" width="0" height="16" fill="#fff"/></mask><mask id="satori_om-id-2"><rect x="29" y="16" width="6" height="0" fill="#fff"/></mask><mask id="satori_om-id-3"><rect x="35" y="8" width="36" height="17" fill="#fff"/></mask><mask id="satori_om-id-3-0"><rect x="35" y="8" width="30" height="17" fill="#fff"/></mask><g  ><path fill="rgba(250,250,250,0.7)" d="M37.5 17.5L37.5 17.5L37.5 22L36.0 22L36.0 14.4L37.4 14.4L37.5 16.2L37.3 16.2Q37.6 15.2 38.3 14.7Q38.9 14.3 39.8 14.3L39.8 14.3Q40.6 14.3 41.2 14.6Q41.8 14.9 42.1 15.6Q42.4 16.2 42.4 17.1L42.4 17.1L42.4 22L40.9 22L40.9 17.3Q40.9 16.5 40.5 16.0Q40.0 15.6 39.3 15.6L39.3 15.6Q38.8 15.6 38.4 15.8Q38.0 16.0 37.7 16.4Q37.5 16.9 37.5 17.5ZM45.9 24.9L44.4 24.9L44.4 14.4L45.9 14.4L45.9 15.6L46.0 15.6Q46.2 15.4 46.4 15.0Q46.6 14.7 47.1 14.5Q47.5 14.3 48.2 14.3L48.2 14.3Q49.1 14.3 49.9 14.7Q50.6 15.2 51.0 16.1Q51.4 17.0 51.4 18.2L51.4 18.2Q51.4 19.4 51.0 20.3Q50.6 21.2 49.9 21.7Q49.2 22.2 48.2 22.2L48.2 22.2Q47.5 22.2 47.1 21.9Q46.7 21.7 46.4 21.4Q46.2 21.0 46.0 20.8L46.0 20.8L45.9 20.8L45.9 24.9ZM47.9 20.9L47.9 20.9Q48.5 20.9 49.0 20.5Q49.4 20.2 49.7 19.6Q49.9 18.9 49.9 18.2L49.9 18.2Q49.9 17.4 49.7 16.8Q49.4 16.2 49.0 15.9Q48.6 15.5 47.9 15.5L47.9 15.5Q47.3 15.5 46.8 15.9Q46.4 16.2 46.1 16.8Q45.9 17.4 45.9 18.2L45.9 18.2Q45.9 19.0 46.1 19.6Q46.4 20.2 46.8 20.5Q47.3 20.9 47.9 20.9ZM54.6 22L53.1 22L53.1 14.4L54.5 14.4L54.6 16.1L54.4 16.1Q54.6 15.5 54.9 15.1Q55.3 14.6 55.7 14.4Q56.2 14.2 56.7 14.2L56.7 14.2Q57.5 14.2 58.1 14.7Q58.6 15.3 58.7 16.2L58.7 16.2L58.5 16.2Q58.7 15.6 59.1 15.1Q59.4 14.7 60.0 14.5Q60.5 14.2 61.1 14.2L61.1 14.2Q61.8 14.2 62.3 14.5Q62.9 14.8 63.2 15.4Q63.5 16.0 63.5 16.8L63.5 16.8L63.5 22L62.0 22L62.0 17.0Q62.0 16.2 61.6 15.9Q61.1 15.5 60.6 15.5L60.6 15.5Q60.1 15.5 59.7 15.7Q59.4 15.9 59.2 16.3Q59.0 16.6 59.0 17.1L59.0 17.1L59.0 22L57.6 22L57.6 16.9Q57.6 16.3 57.2 15.9Q56.8 15.5 56.2 15.5L56.2 15.5Q55.7 15.5 55.4 15.7Q55.0 15.9 54.8 16.3Q54.6 16.7 54.6 17.2L54.6 17.2L54.6 22Z "/></g><mask id="satori_om-id-3-1"><rect x="65" y="8" width="6" height="17" fill="#fff"/></mask><mask id="satori_om-id-4"><rect x="71" y="8" width="49" height="17" fill="#fff"/></mask><g  ><path fill="#fafafa" d="M75.8 22L74.2 22L71.3 14.4L72.9 14.4L74.5 18.7Q74.7 19.4 74.9 20.1Q75.1 20.9 75.3 21.6L75.3 21.6L74.8 21.6Q75.0 20.9 75.2 20.1Q75.4 19.4 75.6 18.7L75.6 18.7L77.1 14.4L78.7 14.4L75.8 22ZM81.9 11.8L83.7 11.8L83.7 22L82.2 22L82.2 13.2L82.1 13.2L79.7 15.0L79.7 13.4L81.9 11.8ZM89.1 22.1L89.1 22.1Q88.1 22.1 87.4 21.8Q86.7 21.4 86.3 20.8Q85.8 20.1 85.7 19.3L85.7 19.3L87.3 19.3Q87.4 20.0 87.9 20.4Q88.3 20.8 89.1 20.8L89.1 20.8Q89.8 20.8 90.3 20.3Q90.9 19.9 91.1 19.1Q91.4 18.3 91.4 17.1L91.4 17.1L91.3 17.1Q91.1 17.5 90.7 17.8Q90.3 18.1 89.8 18.3Q89.4 18.5 88.8 18.5L88.8 18.5Q87.9 18.5 87.2 18.0Q86.5 17.6 86.1 16.9Q85.6 16.1 85.6 15.1L85.6 15.1Q85.6 14.2 86.1 13.4Q86.5 12.6 87.3 12.1Q88.1 11.7 89.2 11.7L89.2 11.7Q89.9 11.7 90.5 11.9Q91.2 12.2 91.7 12.7Q92.3 13.3 92.6 14.2Q92.9 15.2 92.9 16.6L92.9 16.6Q92.9 17.9 92.6 18.9Q92.4 20.0 91.9 20.7Q91.4 21.4 90.7 21.8Q89.9 22.1 89.1 22.1ZM89.1 17.2L89.1 17.2Q89.6 17.2 90.0 17.0Q90.3 16.9 90.6 16.6Q90.9 16.3 91.1 15.9Q91.2 15.5 91.2 15.1L91.2 15.1Q91.2 14.5 91.0 14.1Q90.7 13.6 90.2 13.3Q89.8 13.0 89.2 13.0L89.2 13.0Q88.6 13.0 88.1 13.3Q87.7 13.6 87.4 14.0Q87.2 14.5 87.2 15.1L87.2 15.1Q87.2 15.7 87.4 16.2Q87.7 16.6 88.1 16.9Q88.6 17.2 89.1 17.2ZM95.4 22.1L95.4 22.1Q95.0 22.1 94.7 21.8Q94.4 21.5 94.4 21.1L94.4 21.1Q94.4 20.7 94.7 20.4Q95.0 20.1 95.4 20.1L95.4 20.1Q95.8 20.1 96.1 20.4Q96.4 20.7 96.4 21.1L96.4 21.1Q96.4 21.5 96.1 21.8Q95.8 22.1 95.4 22.1ZM105.3 22L98.5 22L98.5 20.9L102.0 17.3Q102.5 16.7 102.9 16.3Q103.2 15.9 103.4 15.5Q103.6 15.1 103.6 14.6L103.6 14.6Q103.6 14.1 103.4 13.7Q103.1 13.4 102.7 13.2Q102.3 13.0 101.8 13.0L101.8 13.0Q101.3 13.0 100.9 13.2Q100.4 13.4 100.2 13.8Q100.0 14.2 100.0 14.8L100.0 14.8L98.5 14.8Q98.5 13.9 98.9 13.2Q99.4 12.5 100.1 12.1Q100.9 11.7 101.8 11.7L101.8 11.7Q102.8 11.7 103.5 12.1Q104.3 12.4 104.7 13.1Q105.1 13.7 105.1 14.6L105.1 14.6Q105.1 15.1 104.9 15.7Q104.7 16.2 104.2 16.9Q103.6 17.5 102.7 18.5L102.7 18.5L100.7 20.6L100.7 20.7L105.3 20.7L105.3 22ZM108.3 22.1L108.3 22.1Q107.9 22.1 107.6 21.8Q107.3 21.5 107.3 21.1L107.3 21.1Q107.3 20.7 107.6 20.4Q107.9 20.1 108.3 20.1L108.3 20.1Q108.7 20.1 109.0 20.4Q109.3 20.7 109.3 21.1L109.3 21.1Q109.3 21.5 109.0 21.8Q108.7 22.1 108.3 22.1ZM114.4 22.1L114.4 22.1Q113.5 22.1 112.7 21.8Q112.0 21.4 111.5 20.8Q111.1 20.1 111.0 19.3L111.0 19.3L112.6 19.3Q112.6 19.8 112.8 20.1Q113.1 20.4 113.5 20.6Q113.9 20.8 114.4 20.8L114.4 20.8Q115.0 20.8 115.4 20.6Q115.9 20.3 116.1 19.8Q116.4 19.3 116.4 18.7L116.4 18.7Q116.4 18.1 116.1 17.6Q115.9 17.1 115.4 16.9Q114.9 16.6 114.3 16.6L114.3 16.6Q113.9 16.6 113.4 16.8Q112.9 16.9 112.7 17.2L112.7 17.2L111.2 17.0L111.8 11.8L117.4 11.8L117.4 13.1L113.1 13.1L112.8 16.0L112.8 16.0Q113.1 15.7 113.6 15.5Q114.1 15.3 114.7 15.3L114.7 15.3Q115.4 15.3 116.0 15.6Q116.6 15.8 117.0 16.3Q117.4 16.7 117.7 17.3Q117.9 18.0 117.9 18.7L117.9 18.7Q117.9 19.7 117.5 20.5Q117.0 21.2 116.2 21.7Q115.4 22.1 114.4 22.1Z "/></g></svg>