<svg width="104" height="24" viewBox="0 0 104 24" xmlns="http://www.w3.org/2000/svg"><mask id="satori_om-id"><rect x="0" y="0" width="104" height="24" fill="#fff"/></mask><path x="0" y="0" width="104" height="24" fill="#fafafa" d="M6,0 h92 a6,6 0 0 1 6,6 v12 a6,6 0 0 1 -6,6 h-92 a6,6 0 0 1 -6,-6 v-12 a6,6 0 0 1 6,-6"/><clipPath id="satori_cp-id-1"><rect x="8" y="6" width="12" height="12"/></clipPath><mask id="satori_om-id-1"><rect x="8" y="6" width="12" height="12" fill="#fff"/></mask><image x="8" y="6" width="12" height="12" href="data:image/svg+xml;utf8,%3Csvg  xmlns=%22http://www.w3.org/2000/svg%22 width=%2212%22 height=%2212%22 viewBox=%220 0 24 24%22%3E%3Cpath fill=%22rgba(24,24,27,0.85)%22 d=%22M1.763 0C.786 0 0 .786 0 1.763v20.474C0 23.214.786 24 1.763 24h20.474c.977 0 1.763-.786 1.763-1.763V1.763C24 .786 23.214 0 22.237 0zM5.13 5.323l13.837.019-.009 13.836h-3.464l.01-10.382h-3.456L12.04 19.17H5.113z%22 fill-rule=%22undefined%22%3E%3C/path%3E%3C/svg%3E" preserveAspectRatio="none" clip-path="url(#satori_cp-id-1)" mask="url(#satori_om-id-1)"/><mask id="satori_om-id-1-0"><rect x="8" y="6" width="0" height="12" fill="#fff"/></mask><mask id="satori_om-id-2"><rect x="20" y="12" width="4" height="0" fill="#fff"/></mask><mask id="satori_om-id-3"><rect x="24" y="5" width="30" height="15" fill="#fff"/></mask><mask id="satori_om-id-3-0"><rect x="24" y="5" width="26" height="15" fill="#fff"/></mask><g  ><path fill="rgba(24,24,27,0.7)" d="M26.2 13.1L26.2 13.1L26.2 17L24.9 17L24.9 10.4L26.1 10.4L26.1 12.1L26.0 12.1Q26.3 11.2 26.8 10.8Q27.4 10.4 28.1 10.4L28.1 10.4Q28.8 10.4 29.3 10.6Q29.8 10.9 30.1 11.5Q30.4 12.0 30.4 12.8L30.4 12.8L30.4 17L29.1 17L29.1 13.0Q29.1 12.3 28.7 11.9Q28.3 11.5 27.7 11.5L27.7 11.5Q27.2 11.5 26.9 11.7Q26.6 11.9 26.4 12.2Q26.2 12.6 26.2 13.1ZM33.4 19.4L32.1 19.4L32.1 10.4L33.3 10.4L33.3 11.5L33.4 11.5Q33.6 11.3 33.8 11.0Q34.0 10.8 34.4 10.6Q34.7 10.4 35.3 10.4L35.3 10.4Q36.1 10.4 36.7 10.8Q37.4 11.2 37.7 11.9Q38.1 12.7 38.1 13.7L38.1 13.7Q38.1 14.8 37.7 15.6Q37.4 16.3 36.8 16.7Q36.1 17.1 35.3 17.1L35.3 17.1Q34.7 17.1 34.4 16.9Q34.0 16.7 33.8 16.5Q33.6 16.2 33.4 16.0L33.4 16.0L33.4 16.0L33.4 19.4ZM35.1 16.0L35.1 16.0Q35.6 16.0 36.0 15.7Q36.4 15.4 36.6 14.9Q36.8 14.4 36.8 13.7L36.8 13.7Q36.8 13.1 36.6 12.6Q36.4 12.1 36.0 11.8Q35.6 11.5 35.1 11.5L35.1 11.5Q34.5 11.5 34.1 11.7Q33.7 12.0 33.5 12.5Q33.4 13.0 33.4 13.7L33.4 13.7Q33.4 14.4 33.5 14.9Q33.7 15.4 34.1 15.7Q34.5 16.0 35.1 16.0ZM40.8 17L39.5 17L39.5 10.4L40.7 10.4L40.8 12.0L40.7 12.0Q40.8 11.4 41.1 11.1Q41.4 10.7 41.8 10.5Q42.2 10.3 42.6 10.3L42.6 10.3Q43.3 10.3 43.8 10.8Q44.2 11.2 44.3 12.0L44.3 12.0L44.2 12.0Q44.3 11.5 44.6 11.1Q44.9 10.7 45.4 10.5Q45.8 10.3 46.4 10.3L46.4 10.3Q46.9 10.3 47.4 10.6Q47.9 10.8 48.2 11.3Q48.4 11.8 48.4 12.6L48.4 12.6L48.4 17L47.1 17L47.1 12.7Q47.1 12.1 46.8 11.8Q46.4 11.5 45.9 11.5L45.9 11.5Q45.5 11.5 45.2 11.6Q44.9 11.8 44.8 12.1Q44.6 12.4 44.6 12.8L44.6 12.8L44.6 17L43.3 17L43.3 12.6Q43.3 12.1 43.0 11.8Q42.7 11.5 42.1 11.5L42.1 11.5Q41.8 11.5 41.5 11.6Q41.2 11.8 41.0 12.1Q40.8 12.5 40.8 12.9L40.8 12.9L40.8 17Z "/></g><mask id="satori_om-id-3-1"><rect x="50" y="5" width="4" height="15" fill="#fff"/></mask><mask id="satori_om-id-4"><rect x="54" y="5" width="42" height="15" fill="#fff"/></mask><g  ><path fill="#18181b" d="M58.1 17L56.7 17L54.3 10.4L55.7 10.4L57.0 14.2Q57.2 14.8 57.3 15.4Q57.5 16.0 57.7 16.6L57.7 16.6L57.3 16.6Q57.4 16.0 57.6 15.4Q57.7 14.8 57.9 14.2L57.9 14.2L59.2 10.4L60.6 10.4L58.1 17ZM63.4 8.3L64.9 8.3L64.9 17L63.6 17L63.6 9.5L63.5 9.5L61.5 11.0L61.5 9.7L63.4 8.3ZM69.5 17.1L69.5 17.1Q68.7 17.1 68.1 16.8Q67.5 16.5 67.1 16.0Q66.7 15.4 66.6 14.7L66.6 14.7L67.9 14.7Q68.1 15.3 68.5 15.6Q68.8 16.0 69.5 16.0L69.5 16.0Q70.1 16.0 70.6 15.6Q71.0 15.2 71.3 14.5Q71.5 13.8 71.5 12.8L71.5 12.8L71.4 12.8Q71.2 13.2 70.9 13.4Q70.6 13.7 70.1 13.8Q69.7 14.0 69.3 14.0L69.3 14.0Q68.5 14.0 67.9 13.6Q67.3 13.2 66.9 12.6Q66.5 11.9 66.5 11.1L66.5 11.1Q66.5 10.3 66.9 9.6Q67.3 8.9 68.0 8.5Q68.7 8.1 69.6 8.1L69.6 8.1Q70.2 8.2 70.7 8.4Q71.3 8.6 71.8 9.0Q72.2 9.5 72.5 10.3Q72.8 11.1 72.8 12.3L72.8 12.3Q72.8 13.5 72.5 14.4Q72.3 15.3 71.9 15.9Q71.5 16.5 70.8 16.8Q70.2 17.1 69.5 17.1ZM69.6 12.9L69.6 12.9Q69.9 12.9 70.3 12.8Q70.6 12.6 70.8 12.4Q71.1 12.1 71.2 11.8Q71.3 11.4 71.3 11.1L71.3 11.1Q71.3 10.6 71.1 10.2Q70.9 9.8 70.5 9.5Q70.1 9.3 69.6 9.3L69.6 9.3Q69.1 9.3 68.7 9.5Q68.3 9.8 68.1 10.2Q67.8 10.6 67.8 11.1L67.8 11.1Q67.8 11.6 68.1 12.0Q68.3 12.4 68.7 12.7Q69.1 12.9 69.6 12.9ZM74.9 17.1L74.9 17.1Q74.6 17.1 74.3 16.8Q74.1 16.6 74.1 16.2L74.1 16.2Q74.1 15.9 74.3 15.6Q74.6 15.4 74.9 15.4L74.9 15.4Q75.3 15.4 75.5 15.6Q75.8 15.9 75.8 16.2L75.8 16.2Q75.8 16.6 75.5 16.8Q75.3 17.1 74.9 17.1ZM83.4 17L77.6 17L77.6 16.0L80.6 13.0Q81.0 12.5 81.3 12.1Q81.6 11.8 81.8 11.4Q81.9 11.1 81.9 10.7L81.9 10.7Q81.9 10.2 81.7 9.9Q81.5 9.6 81.2 9.4Q80.8 9.3 80.4 9.3L80.4 9.3Q79.9 9.3 79.6 9.5Q79.2 9.7 79.1 10.0Q78.9 10.3 78.9 10.8L78.9 10.8L77.6 10.8Q77.6 10.0 78.0 9.4Q78.3 8.8 79.0 8.5Q79.6 8.2 80.4 8.2L80.4 8.2Q81.3 8.2 81.9 8.5Q82.5 8.8 82.9 9.4Q83.2 9.9 83.2 10.6L83.2 10.6Q83.2 11.1 83.0 11.6Q82.9 12.0 82.4 12.6Q82.0 13.2 81.2 14L81.2 14L79.4 15.8L79.4 15.9L83.4 15.9L83.4 17ZM86.0 17.1L86.0 17.1Q85.6 17.1 85.4 16.8Q85.1 16.6 85.1 16.2L85.1 16.2Q85.1 15.9 85.4 15.6Q85.6 15.4 86.0 15.4L86.0 15.4Q86.3 15.4 86.6 15.6Q86.8 15.9 86.8 16.2L86.8 16.2Q86.8 16.6 86.6 16.8Q86.3 17.1 86.0 17.1ZM91.2 17.1L91.2 17.1Q90.4 17.1 89.7 16.8Q89.1 16.5 88.7 16.0Q88.4 15.4 88.3 14.7L88.3 14.7L89.6 14.7Q89.7 15.1 89.9 15.4Q90.1 15.7 90.4 15.8Q90.8 16.0 91.2 16.0L91.2 16.0Q91.7 16.0 92.1 15.8Q92.5 15.5 92.7 15.1Q92.9 14.7 92.9 14.2L92.9 14.2Q92.9 13.7 92.7 13.3Q92.5 12.8 92.1 12.6Q91.7 12.4 91.1 12.4L91.1 12.4Q90.7 12.4 90.3 12.5Q89.9 12.6 89.7 12.9L89.7 12.9L88.5 12.7L89.0 8.3L93.8 8.3L93.8 9.4L90.1 9.4L89.8 11.8L89.9 11.8Q90.1 11.6 90.5 11.4Q91.0 11.3 91.5 11.3L91.5 11.3Q92.1 11.3 92.6 11.5Q93.1 11.7 93.4 12.1Q93.8 12.5 94.0 13.0Q94.2 13.5 94.2 14.2L94.2 14.2Q94.2 15.0 93.8 15.7Q93.4 16.4 92.8 16.7Q92.1 17.1 91.2 17.1Z "/></g></svg>